<svg xmlns="http://www.w3.org/2000/svg" width="1024" height="1024" viewBox="0 0 1024 1024"><style>@font-face{font-family:Osw;font-weight:700;src:url(oswald-latin-700-normal.woff2)}
@font-face{font-family:Osw;font-weight:600;src:url(oswald-latin-600-normal.woff2)}
@font-face{font-family:Osw;font-weight:500;src:url(oswald-latin-500-normal.woff2)}
@font-face{font-family:Osw;font-weight:400;src:url(oswald-latin-400-normal.woff2)}</style><defs><radialGradient id="gl" cx="50%" cy="42%" r="65%"><stop offset="0" stop-color="#3A2A18"/><stop offset="1" stop-color="#14110D"/></radialGradient><mask id="im" maskUnits="userSpaceOnUse" x="0" y="0" width="1024" height="1024"><rect width="1024" height="1024" fill="white"/><path d="M620.0 227.0 Q464.0 512.0 200.0 797.0 Q509.0 521.0 647.0 240.5 Z" fill="black"/><path d="M722.0 227.0 Q566.0 512.0 302.0 797.0 Q611.0 521.0 749.0 240.5 Z" fill="black"/><path d="M824.0 227.0 Q668.0 512.0 404.0 797.0 Q713.0 521.0 851.0 240.5 Z" fill="black"/></mask></defs><rect width="1024" height="1024" fill="url(#gl)"/><text x="512" y="760" text-anchor="middle" font-family="Osw" font-weight="700" font-size="700" fill="#ECE4D2" mask="url(#im)">H</text><g transform="translate(26,-18)"><path d="M605.6 265.0 Q470.40000000000003 512.0 241.60000000000002 759.0 Q509.40000000000003 519.8 629.0 276.7 Z" fill="#E3A23B"/><path d="M694.0 265.0 Q558.8 512.0 330.0 759.0 Q597.8 519.8 717.4 276.7 Z" fill="#E3A23B"/><path d="M782.4 265.0 Q647.1999999999999 512.0 418.4 759.0 Q686.1999999999999 519.8 805.8 276.7 Z" fill="#E3A23B"/></g></svg>