# Ruins_ColumnShort: from Quaternius, Ultimate Modular Ruins Pack (CC0 1.0)
mtllib Ruins_ColumnShort.mtl
v -0.21688 1.75675 0.21687
v -0.19862 1.71680 -0.19862
v -0.19862 1.71680 0.19862
v -0.21688 1.75675 -0.21688
v 0.21687 1.75675 -0.21688
v 0.19862 1.71680 0.19862
v 0.19862 1.71680 -0.19862
v 0.21687 1.75675 0.21687
v 0.19862 1.71680 0.19862
v -0.21688 1.75675 0.21687
v -0.19862 1.71680 0.19862
v 0.21687 1.75675 0.21687
v -0.21688 1.75675 -0.21688
v 0.19862 1.71680 -0.19862
v -0.19862 1.71680 -0.19862
v 0.21687 1.75675 -0.21688
v -0.19862 1.71680 0.19862
v -0.19862 1.71680 -0.19862
v 0.19862 1.71680 -0.19862
v 0.19862 1.71680 0.19862
v 0.21687 1.75675 -0.21688
v -0.21688 1.75675 0.21687
v 0.21687 1.75675 0.21687
v -0.21688 1.75675 -0.21688
v 0.23413 1.80188 -0.23413
v -0.23681 1.81152 -0.23681
v 0.23681 1.81152 -0.23681
v -0.23413 1.80188 0.23413
v 0.23413 1.80188 0.23413
v -0.23681 1.81152 0.23680
v -0.23413 1.80188 -0.23413
v -0.23413 1.80188 0.23413
v -0.23681 1.81152 -0.23681
v 0.23413 1.80188 0.23413
v -0.23413 1.80188 -0.23413
v 0.23413 1.80188 -0.23413
v -0.23413 1.80188 0.23413
v -0.23413 1.80188 -0.23413
v 0.23681 1.82968 -0.23681
v -0.23681 1.82968 -0.23681
v 0.23681 1.81152 0.23680
v -0.23681 1.82968 0.23680
v 0.23681 1.82968 0.23680
v -0.23681 1.81152 0.23680
v -0.23681 1.82968 -0.23681
v -0.23681 1.82968 0.23680
v 0.23681 1.82968 0.23680
v 0.23681 1.81152 -0.23681
v 0.23681 1.82968 -0.23681
v -0.23681 1.82968 -0.23681
v -0.23681 1.82968 0.23680
v 0.23681 1.82968 0.23680
v 0.23681 1.82968 -0.23681
v 0.23681 1.81152 0.23680
v 0.23413 1.80188 -0.23413
v 0.23413 1.80188 0.23413
v 0.23138 1.75176 0.23138
v -0.23138 1.75176 -0.23138
v 0.23138 1.75176 -0.23138
v -0.23138 1.75176 0.23138
v -0.23138 1.82904 0.23138
v -0.23138 1.75176 -0.23138
v -0.23138 1.75176 0.23138
v -0.23138 1.82904 -0.23138
v -0.23138 1.82904 -0.23138
v 0.23138 1.75176 -0.23138
v -0.23138 1.75176 -0.23138
v 0.23138 1.82904 -0.23138
v 0.23138 1.82904 -0.23138
v 0.23138 1.75176 0.23138
v 0.23138 1.75176 -0.23138
v 0.23138 1.82904 0.23138
v 0.23138 1.82904 0.23138
v -0.23138 1.75176 0.23138
v 0.23138 1.75176 0.23138
v -0.23138 1.82904 0.23138
v -0.23138 1.82904 -0.23138
v -0.23138 1.82904 0.23138
v 0.23138 1.82904 0.23138
v 0.23138 1.82904 -0.23138
v 0.16475 1.53942 -0.16475
v -0.16475 1.53942 0.16475
v -0.16475 1.53942 -0.16475
v 0.16475 1.53942 0.16475
v 0.19666 1.62013 -0.19666
v 0.19666 1.62013 0.19666
v 0.18557 1.60852 -0.18557
v 0.17113 1.66465 0.17113
v -0.18603 1.64554 0.18603
v 0.18603 1.64554 0.18603
v -0.17113 1.66465 0.17113
v -0.16021 1.68948 0.16021
v 0.16021 1.68948 0.16021
v 0.15622 1.71338 0.15622
v -0.15622 1.71338 0.15622
v -0.17113 1.66464 -0.17113
v -0.18603 1.64554 0.18603
v -0.17113 1.66465 0.17113
v -0.16021 1.68948 -0.16021
v -0.16021 1.68948 0.16021
v -0.15622 1.71338 -0.15622
v 0.17113 1.66464 -0.17113
v -0.16021 1.68948 -0.16021
v 0.16021 1.68948 -0.16021
v -0.18603 1.64554 -0.18603
v -0.17113 1.66464 -0.17113
v 0.15622 1.71338 -0.15622
v 0.17113 1.66465 0.17113
v 0.18603 1.64554 -0.18603
v 0.17113 1.66464 -0.17113
v 0.16021 1.68948 0.16021
v 0.16021 1.68948 -0.16021
v 0.15622 1.71338 0.15622
v -0.16475 1.53942 0.16475
v 0.16475 1.53942 0.16475
v -0.16493 1.56326 0.16493
v 0.16493 1.56326 0.16493
v 0.17255 1.58855 0.17255
v -0.17255 1.58855 0.17255
v -0.18557 1.60852 0.18557
v -0.16475 1.53942 -0.16475
v -0.16475 1.53942 0.16475
v -0.16493 1.56326 -0.16493
v -0.16493 1.56326 0.16493
v -0.17255 1.58855 -0.17255
v -0.17255 1.58855 0.17255
v -0.18557 1.60852 -0.18557
v 0.16475 1.53942 -0.16475
v -0.16493 1.56326 -0.16493
v 0.16493 1.56326 -0.16493
v -0.16475 1.53942 -0.16475
v 0.17255 1.58855 -0.17255
v -0.17255 1.58855 -0.17255
v -0.18557 1.60852 -0.18557
v 0.18557 1.60852 -0.18557
v 0.16475 1.53942 0.16475
v 0.16493 1.56326 -0.16493
v 0.16493 1.56326 0.16493
v 0.16475 1.53942 -0.16475
v 0.17255 1.58855 0.17255
v 0.18557 1.60852 0.18557
v 0.17255 1.58855 -0.17255
v 0.18603 1.64554 -0.18603
v 0.19666 1.63579 -0.19666
v -0.19666 1.63579 -0.19666
v 0.19666 1.63579 0.19666
v -0.19666 1.63579 0.19666
v 0.18603 1.64554 0.18603
v 0.19666 1.63579 0.19666
v 0.19666 1.63579 -0.19666
v -0.15622 1.71338 -0.15622
v 0.15622 1.74226 -0.15622
v -0.15622 1.74226 -0.15622
v -0.15622 1.74226 0.15622
v 0.15622 1.74226 0.15622
v -0.15622 1.71338 0.15622
v -0.15622 1.74226 -0.15622
v -0.15622 1.74226 0.15622
v 0.19666 1.62013 -0.19666
v 0.19666 1.63579 0.19666
v 0.19666 1.62013 0.19666
v 0.19666 1.63579 -0.19666
v -0.19666 1.62013 0.19666
v -0.19666 1.63579 -0.19666
v -0.19666 1.62013 -0.19666
v -0.19666 1.63579 0.19666
v -0.19666 1.62013 -0.19666
v 0.19666 1.63579 -0.19666
v 0.19666 1.62013 -0.19666
v -0.19666 1.63579 -0.19666
v -0.18603 1.64554 -0.18603
v -0.19666 1.63579 0.19666
v -0.19666 1.63579 -0.19666
v 0.19666 1.62013 0.19666
v -0.19666 1.63579 0.19666
v -0.19666 1.62013 0.19666
v 0.19666 1.63579 0.19666
v 0.19666 1.62013 -0.19666
v -0.19666 1.62013 -0.19666
v 0.18557 1.60852 0.18557
v 0.19666 1.62013 0.19666
v -0.19666 1.62013 0.19666
v -0.18557 1.60852 0.18557
v -0.19666 1.62013 0.19666
v -0.19666 1.62013 -0.19666
v 0.15622 1.71338 -0.15622
v 0.15622 1.74226 0.15622
v 0.15622 1.74226 -0.15622
v 0.18869 0.65019 -0.18883
v 0.20203 0.68619 0.20218
v 0.18869 0.65019 0.18883
v 0.20203 0.68619 -0.20218
v -0.18869 0.65019 0.18883
v -0.20203 0.68619 -0.20218
v -0.18869 0.65019 -0.18883
v -0.20203 0.68619 0.20218
v -0.18869 0.65019 -0.18883
v 0.20203 0.68619 -0.20218
v 0.18869 0.65019 -0.18883
v -0.20203 0.68619 -0.20218
v -0.18869 0.65019 0.18883
v 0.20203 0.68619 0.20218
v -0.20203 0.68619 0.20218
v 0.18869 0.65019 0.18883
v -0.20203 0.68619 -0.20218
v -0.20203 0.68619 0.20218
v 0.20203 0.68619 0.20218
v 0.20203 0.68619 -0.20218
v 0.18869 0.65019 0.18883
v -0.18869 0.65019 -0.18883
v 0.18869 0.65019 -0.18883
v -0.18869 0.65019 0.18883
v -0.09430 0.68156 0.16333
v 0.00000 0.74149 0.19164
v -0.09582 0.74149 0.16597
v -0.16333 0.68156 0.09430
v 0.16333 0.68156 0.09430
v 0.19164 0.74149 -0.00000
v 0.16597 0.74149 0.09582
v 0.09582 0.74149 0.16597
v 0.00000 0.74149 -0.19164
v 0.00000 0.68156 -0.18860
v -0.09430 0.68156 -0.16333
v 0.09430 0.68156 -0.16333
v -0.09582 0.74149 -0.16597
v -0.16333 0.68156 -0.09430
v 0.09582 0.74149 -0.16597
v 0.16333 0.68156 -0.09430
v -0.16597 0.74149 0.09582
v -0.19164 0.74149 -0.00000
v 0.00000 0.68156 0.18860
v 0.09430 0.68156 0.16333
v 0.16597 0.74149 -0.09582
v 0.18860 0.68156 -0.00000
v -0.09090 0.74707 0.15744
v -0.15744 0.74707 0.09090
v -0.09582 0.74149 0.16597
v -0.16597 0.74149 0.09582
v 0.00000 0.74707 0.18179
v -0.09090 0.74707 -0.15744
v 0.00000 0.74706 -0.18179
v -0.09582 0.74149 -0.16597
v 0.09582 0.74149 -0.16597
v 0.00000 0.74149 -0.19164
v -0.15744 0.74707 -0.09090
v 0.09090 0.74707 -0.15744
v 0.16597 0.74149 -0.09582
v 0.09090 0.74707 0.15744
v 0.16597 0.74149 0.09582
v 0.15744 0.74707 0.09090
v 0.09582 0.74149 0.16597
v 0.00000 0.74149 0.19164
v 0.15744 0.74707 -0.09090
v 0.18179 0.74707 -0.00000
v 0.19164 0.74149 -0.00000
v -0.16597 0.74149 -0.09582
v -0.18860 0.68156 -0.00000
v -0.15744 0.76531 -0.09090
v -0.09090 0.76531 -0.15744
v -0.15744 0.74707 -0.09090
v -0.18179 0.74707 -0.00000
v -0.09090 0.76531 0.15744
v -0.15744 0.76531 0.09090
v -0.09090 0.74707 0.15744
v 0.00000 0.74707 0.18179
v 0.15744 0.76531 0.09090
v 0.09090 0.76531 0.15744
v 0.15744 0.74707 0.09090
v 0.18179 0.74707 -0.00000
v 0.00000 0.76531 -0.18179
v -0.09090 0.74707 -0.15744
v 0.09090 0.76531 -0.15744
v 0.00000 0.74706 -0.18179
v 0.15744 0.76531 -0.09090
v 0.09090 0.74707 -0.15744
v -0.18179 0.76531 -0.00000
v -0.15744 0.74707 0.09090
v 0.00000 0.76531 0.18179
v 0.09090 0.74707 0.15744
v -0.19164 0.74149 -0.00000
v -0.18179 0.74707 -0.00000
v -0.16597 0.74149 -0.09582
v 0.18179 0.76531 -0.00000
v 0.15744 0.76531 -0.09090
v 0.19018 0.77529 -0.00000
v 0.15744 0.76531 0.09090
v -0.16470 0.77529 -0.09509
v -0.09509 0.77529 -0.16470
v -0.15744 0.76531 -0.09090
v -0.19018 0.77529 -0.00000
v -0.09090 0.76531 -0.15744
v -0.09090 0.76531 0.15744
v 0.00000 0.77529 0.19018
v -0.09509 0.77529 0.16470
v -0.15744 0.76531 0.09090
v 0.16470 0.77529 0.09509
v 0.09090 0.76531 0.15744
v 0.00000 0.77529 -0.19018
v 0.09090 0.76531 -0.15744
v 0.00000 0.76531 -0.18179
v 0.09509 0.77529 -0.16470
v 0.16470 0.77529 -0.09509
v -0.16470 0.77529 0.09509
v -0.18179 0.76531 -0.00000
v 0.18179 0.76531 -0.00000
v 0.15744 0.74707 -0.09090
v 0.19018 0.77529 -0.00000
v 0.16470 0.77529 -0.09509
v 0.19018 0.79397 -0.00000
v 0.16470 0.77529 0.09509
v -0.16470 0.77529 -0.09509
v -0.19018 0.79397 -0.00000
v -0.16470 0.79397 -0.09509
v -0.09509 0.77529 -0.16470
v -0.09509 0.79397 0.16470
v -0.16470 0.79397 0.09509
v -0.09509 0.77529 0.16470
v 0.00000 0.77529 0.19018
v 0.16470 0.79397 0.09509
v 0.09509 0.79397 0.16470
v -0.09509 0.79397 -0.16470
v 0.00000 0.79397 -0.19018
v 0.09509 0.79397 -0.16470
v 0.00000 0.77529 -0.19018
v 0.16470 0.79397 -0.09509
v 0.09509 0.77529 -0.16470
v -0.16470 0.77529 0.09509
v -0.19018 0.77529 -0.00000
v 0.09509 0.77529 0.16470
v 0.00000 0.76531 0.18179
v 0.15543 0.80425 -0.08974
v 0.17948 0.80425 -0.00000
v 0.16470 0.79397 -0.09509
v 0.08974 0.80425 -0.15543
v -0.15543 0.80425 -0.08974
v -0.09509 0.79397 -0.16470
v -0.16470 0.79397 -0.09509
v -0.19018 0.79397 -0.00000
v -0.17948 0.80425 -0.00000
v -0.08974 0.80425 -0.15543
v 0.00000 0.79397 -0.19018
v 0.00000 0.80425 -0.17948
v 0.09509 0.79397 -0.16470
v -0.15543 0.80425 0.08974
v -0.16470 0.79397 0.09509
v -0.08974 0.80425 0.15543
v -0.09509 0.79397 0.16470
v 0.00000 0.79397 0.19018
v 0.00000 0.80425 0.17948
v 0.09509 0.79397 0.16470
v 0.08974 0.80425 0.15543
v 0.16470 0.79397 0.09509
v 0.15543 0.80425 0.08974
v 0.00000 0.79397 0.19018
v 0.09509 0.77529 0.16470
v 0.19018 0.79397 -0.00000
v 0.07837 1.56038 -0.13574
v 0.00000 0.80425 -0.17948
v 0.00000 1.56038 -0.15674
v 0.15543 0.80425 -0.08974
v 0.08974 0.80425 -0.15543
v 0.13574 1.56038 -0.07837
v 0.17948 0.80425 -0.00000
v 0.15674 1.56038 -0.00000
v 0.13574 1.56038 0.07837
v 0.15543 0.80425 0.08974
v 0.07837 1.56038 0.13574
v 0.08974 0.80425 0.15543
v 0.00000 0.80425 0.17948
v 0.00000 1.56038 0.15674
v -0.07837 1.56038 0.13574
v -0.08974 0.80425 0.15543
v -0.13574 1.56038 0.07837
v -0.15543 0.80425 0.08974
v -0.17948 0.80425 -0.00000
v -0.15674 1.56038 -0.00000
v -0.13574 1.56038 -0.07837
v -0.15543 0.80425 -0.08974
v -0.08974 0.80425 -0.15543
v -0.07837 1.56038 -0.13574
v 0.22410 0.38385 -0.22410
v 0.22410 0.38385 0.22410
v 0.20524 0.34717 -0.20524
v 0.20524 0.34717 0.20524
v -0.22410 0.38385 0.22410
v -0.22410 0.38385 -0.22410
v -0.20524 0.34717 0.20524
v -0.20524 0.34717 -0.20524
v 0.22410 0.38385 0.22410
v -0.20524 0.34717 0.20524
v 0.20524 0.34717 0.20524
v -0.22410 0.38385 0.22410
v -0.22410 0.38385 -0.22410
v 0.22410 0.38385 -0.22410
v -0.20524 0.34717 -0.20524
v 0.20524 0.34717 -0.20524
v 0.20524 0.34717 0.20524
v -0.20524 0.34717 -0.20524
v 0.20524 0.34717 -0.20524
v -0.20524 0.34717 0.20524
v 0.22410 0.38385 0.22410
v -0.22410 0.38385 -0.22410
v -0.22410 0.38385 0.22410
v 0.22410 0.38385 -0.22410
v -0.24193 0.42530 -0.24193
v 0.24469 0.43415 -0.24470
v 0.24193 0.42530 -0.24193
v 0.24193 0.42530 -0.24193
v -0.24193 0.42530 0.24193
v -0.24193 0.42530 -0.24193
v 0.24193 0.42530 0.24193
v -0.24469 0.43415 -0.24470
v -0.24469 0.45083 -0.24470
v 0.24469 0.45083 -0.24470
v 0.24469 0.43415 0.24470
v -0.24193 0.42530 0.24193
v 0.24193 0.42530 0.24193
v -0.24469 0.43415 0.24470
v 0.24469 0.45083 0.24470
v -0.24469 0.45083 0.24470
v 0.24469 0.43415 -0.24470
v 0.24193 0.42530 0.24193
v 0.24193 0.42530 -0.24193
v 0.24469 0.43415 0.24470
v 0.24469 0.45083 -0.24470
v 0.24469 0.45083 0.24470
v -0.24469 0.45083 0.24470
v -0.24469 0.45083 -0.24470
v -0.24469 0.43415 -0.24470
v -0.24469 0.43415 0.24470
v 0.24469 0.45083 -0.24470
v -0.24469 0.45083 0.24470
v 0.24469 0.45083 0.24470
v -0.24469 0.45083 -0.24470
v -0.24193 0.42530 -0.24193
v -0.24193 0.42530 0.24193
v 0.21023 0.35022 0.21023
v -0.21023 0.34028 0.21023
v 0.21023 0.34028 0.21023
v -0.21023 0.35022 0.21023
v -0.21023 0.35022 -0.21023
v 0.21023 0.34028 -0.21023
v -0.21023 0.34028 -0.21023
v 0.21023 0.35022 -0.21023
v -0.21023 0.35022 0.21023
v -0.21023 0.34028 -0.21023
v -0.21023 0.34028 0.21023
v -0.21023 0.35022 -0.21023
v 0.21023 0.35022 -0.21023
v 0.21023 0.34028 0.21023
v 0.21023 0.34028 -0.21023
v 0.21023 0.35022 0.21023
v -0.21023 0.34028 0.21023
v -0.21023 0.34028 -0.21023
v 0.21023 0.34028 -0.21023
v 0.21023 0.34028 0.21023
v 0.21023 0.35022 -0.21023
v -0.21023 0.35022 0.21023
v 0.21023 0.35022 0.21023
v -0.21023 0.35022 -0.21023
v -0.23908 0.37927 0.23908
v -0.23908 0.37927 -0.23908
v 0.23908 0.37927 -0.23908
v 0.23908 0.37927 0.23908
v 0.23908 0.45024 -0.23908
v 0.23908 0.45024 0.23908
v 0.23908 0.37927 -0.23908
v 0.23908 0.37927 0.23908
v -0.23908 0.45024 -0.23908
v 0.23908 0.45024 -0.23908
v -0.23908 0.37927 -0.23908
v 0.23908 0.37927 -0.23908
v -0.23908 0.45024 0.23908
v -0.23908 0.45024 -0.23908
v -0.23908 0.37927 0.23908
v -0.23908 0.37927 -0.23908
v 0.23908 0.45024 0.23908
v -0.23908 0.45024 0.23908
v 0.23908 0.37927 0.23908
v -0.23908 0.37927 0.23908
v 0.23908 0.45024 -0.23908
v -0.23908 0.45024 0.23908
v 0.23908 0.45024 0.23908
v -0.23908 0.45024 -0.23908
v 0.24469 0.02095 -0.24470
v 0.24469 0.00000 0.24470
v 0.24469 0.00000 -0.24470
v 0.24469 0.02095 0.24470
v 0.24193 0.02979 -0.24193
v 0.24193 0.02979 0.24193
v -0.24193 0.02979 -0.24193
v 0.24469 0.02095 -0.24470
v -0.24469 0.02095 -0.24470
v -0.24193 0.02979 0.24193
v 0.24469 0.02095 0.24470
v 0.24193 0.02979 0.24193
v 0.24193 0.02979 -0.24193
v -0.24193 0.02979 0.24193
v 0.24193 0.02979 0.24193
v -0.24193 0.02979 -0.24193
v -0.24469 0.00000 -0.24470
v 0.24193 0.02979 -0.24193
v 0.24469 0.00000 -0.24470
v -0.24469 0.02095 0.24470
v 0.24469 0.00000 0.24470
v -0.24469 0.00000 0.24470
v -0.24469 0.00000 -0.24470
v -0.24469 0.00000 0.24470
v -0.24469 0.02095 -0.24470
v 0.24469 0.00000 -0.24470
v -0.24469 0.00000 0.24470
v -0.24469 0.00000 -0.24470
v 0.24469 0.00000 0.24470
v -0.24193 0.02979 -0.24193
v -0.24469 0.02095 0.24470
v -0.24193 0.02979 0.24193
v 0.21023 0.10487 0.21023
v -0.21023 0.11481 0.21023
v -0.21023 0.10487 0.21023
v 0.21023 0.11481 0.21023
v -0.21023 0.10487 -0.21023
v 0.21023 0.11481 -0.21023
v 0.21023 0.10487 -0.21023
v -0.21023 0.11481 -0.21023
v -0.21023 0.10487 0.21023
v -0.21023 0.11481 -0.21023
v -0.21023 0.10487 -0.21023
v -0.21023 0.11481 0.21023
v 0.21023 0.10487 -0.21023
v 0.21023 0.11481 0.21023
v 0.21023 0.10487 0.21023
v 0.21023 0.11481 -0.21023
v 0.21023 0.11481 -0.21023
v -0.21023 0.11481 0.21023
v 0.21023 0.11481 0.21023
v -0.21023 0.11481 -0.21023
v -0.21023 0.10487 0.21023
v -0.21023 0.10487 -0.21023
v 0.21023 0.10487 -0.21023
v 0.21023 0.10487 0.21023
v -0.20524 0.10793 -0.20524
v -0.22410 0.07124 0.22410
v -0.20524 0.10793 0.20524
v -0.22410 0.07124 -0.22410
v 0.20524 0.10793 0.20524
v 0.22410 0.07124 -0.22410
v 0.20524 0.10793 -0.20524
v 0.22410 0.07124 0.22410
v -0.20524 0.10793 0.20524
v 0.22410 0.07124 0.22410
v 0.20524 0.10793 0.20524
v -0.22410 0.07124 0.22410
v -0.20524 0.10793 -0.20524
v 0.22410 0.07124 -0.22410
v -0.22410 0.07124 -0.22410
v 0.20524 0.10793 -0.20524
v 0.20524 0.10793 -0.20524
v -0.20524 0.10793 0.20524
v 0.20524 0.10793 0.20524
v -0.20524 0.10793 -0.20524
v -0.22410 0.07124 0.22410
v -0.22410 0.07124 -0.22410
v 0.22410 0.07124 -0.22410
v 0.22410 0.07124 0.22410
v 0.23908 0.07582 -0.23908
v -0.23908 0.07582 0.23908
v 0.23908 0.07582 0.23908
v -0.23908 0.07582 -0.23908
v 0.23908 0.07582 -0.23908
v 0.23908 0.07582 0.23908
v 0.23908 0.00485 0.23908
v 0.23908 0.00485 -0.23908
v -0.23908 0.07582 -0.23908
v 0.23908 0.00485 -0.23908
v -0.23908 0.00485 -0.23908
v 0.23908 0.07582 -0.23908
v -0.23908 0.07582 0.23908
v -0.23908 0.00485 -0.23908
v -0.23908 0.00485 0.23908
v -0.23908 0.07582 -0.23908
v 0.23908 0.07582 0.23908
v -0.23908 0.00485 0.23908
v 0.23908 0.00485 0.23908
v -0.23908 0.07582 0.23908
v 0.23908 0.00485 -0.23908
v -0.23908 0.00485 0.23908
v -0.23908 0.00485 -0.23908
v 0.23908 0.00485 0.23908
v 0.12519 0.18080 -0.19931
v -0.13205 0.17345 -0.19334
v -0.12519 0.18080 -0.19931
v 0.13205 0.17345 -0.19334
v 0.12519 0.18080 -0.19931
v 0.13205 0.28164 -0.19334
v 0.13205 0.17345 -0.19334
v 0.12519 0.27429 -0.19931
v -0.13205 0.28164 -0.19334
v 0.12519 0.27429 -0.19931
v -0.12519 0.27429 -0.19931
v 0.13205 0.28164 -0.19334
v -0.12519 0.18080 -0.19931
v 0.12519 0.27429 -0.19931
v 0.12519 0.18080 -0.19931
v -0.12519 0.27429 -0.19931
v -0.14365 0.28888 -0.19334
v 0.14365 0.28888 -0.19334
v -0.13205 0.28164 -0.19334
v 0.13205 0.28164 -0.19334
v -0.14365 0.16621 -0.19334
v -0.13205 0.17345 -0.19334
v -0.13205 0.17345 -0.19334
v -0.13205 0.28164 -0.19334
v -0.12519 0.18080 -0.19931
v -0.12519 0.27429 -0.19931
v -0.15403 0.15685 -0.20233
v -0.15403 0.29824 -0.20233
v -0.14365 0.16621 -0.19334
v -0.14365 0.28888 -0.19334
v 0.14365 0.16621 -0.19334
v -0.15403 0.15685 -0.20233
v -0.14365 0.16621 -0.19334
v 0.15403 0.15685 -0.20233
v 0.14365 0.28888 -0.19334
v 0.15403 0.15685 -0.20233
v 0.14365 0.16621 -0.19334
v 0.15403 0.29824 -0.20233
v -0.15403 0.15685 -0.20233
v 0.20233 0.10793 -0.20233
v -0.20233 0.10793 -0.20233
v 0.15403 0.15685 -0.20233
v 0.20233 0.34717 -0.20233
v 0.15403 0.29824 -0.20233
v -0.20233 0.10793 -0.20233
v -0.20233 0.34717 -0.20233
v -0.15403 0.15685 -0.20233
v -0.15403 0.29824 -0.20233
v 0.20233 0.34717 -0.20233
v 0.15403 0.29824 -0.20233
v -0.15403 0.29824 -0.20233
v 0.15403 0.29824 -0.20233
v -0.14365 0.28888 -0.19334
v 0.14365 0.28888 -0.19334
v 0.13205 0.17345 -0.19334
v 0.14365 0.16621 -0.19334
v 0.19334 0.17345 0.13205
v 0.19334 0.17345 -0.13205
v 0.19931 0.18080 -0.12519
v 0.19931 0.18080 0.12519
v 0.19931 0.18080 -0.12519
v 0.19334 0.28164 -0.13205
v 0.19931 0.27429 -0.12519
v 0.19334 0.17345 -0.13205
v 0.19931 0.27429 -0.12519
v 0.19334 0.28164 0.13205
v 0.19931 0.27429 0.12519
v 0.19334 0.28164 -0.13205
v 0.19931 0.27429 -0.12519
v 0.19931 0.18080 0.12519
v 0.19931 0.18080 -0.12519
v 0.19931 0.27429 0.12519
v 0.19334 0.28164 0.13205
v 0.19334 0.16621 0.14365
v 0.19334 0.17345 0.13205
v 0.19334 0.28888 0.14365
v 0.19334 0.16621 -0.14365
v 0.19334 0.17345 -0.13205
v 0.19334 0.28164 0.13205
v 0.19931 0.18080 0.12519
v 0.19931 0.27429 0.12519
v 0.19334 0.17345 0.13205
v 0.20233 0.29824 0.15403
v 0.19334 0.16621 0.14365
v 0.19334 0.28888 0.14365
v 0.20233 0.15685 0.15403
v 0.20233 0.15685 0.15403
v 0.19334 0.16621 -0.14365
v 0.19334 0.16621 0.14365
v 0.20233 0.15685 -0.15403
v 0.20233 0.15685 -0.15403
v 0.19334 0.28888 -0.14365
v 0.19334 0.16621 -0.14365
v 0.20233 0.29824 -0.15403
v 0.20233 0.10793 -0.20233
v 0.20233 0.15685 0.15403
v 0.20233 0.10793 0.20233
v 0.20233 0.15685 -0.15403
v 0.20233 0.34717 -0.20233
v 0.20233 0.29824 -0.15403
v 0.20233 0.34717 0.20233
v 0.20233 0.29824 0.15403
v 0.20233 0.10793 -0.20233
v 0.20233 0.15685 -0.15403
v 0.20233 0.34717 0.20233
v 0.20233 0.29824 0.15403
v 0.19334 0.28888 -0.14365
v 0.20233 0.29824 0.15403
v 0.19334 0.28888 0.14365
v 0.20233 0.29824 -0.15403
v 0.19334 0.28888 -0.14365
v 0.19334 0.28164 -0.13205
v -0.19931 0.18080 -0.12519
v -0.19334 0.17345 0.13205
v -0.19931 0.18080 0.12519
v -0.19334 0.17345 -0.13205
v -0.19931 0.18080 0.12519
v -0.19334 0.28164 0.13205
v -0.19931 0.27429 0.12519
v -0.19334 0.17345 0.13205
v -0.19334 0.28164 0.13205
v -0.19931 0.27429 -0.12519
v -0.19931 0.27429 0.12519
v -0.19334 0.28164 -0.13205
v -0.19931 0.27429 0.12519
v -0.19931 0.18080 -0.12519
v -0.19931 0.18080 0.12519
v -0.19931 0.27429 -0.12519
v -0.19334 0.28888 -0.14365
v -0.19334 0.28164 0.13205
v -0.19334 0.28888 0.14365
v -0.19334 0.28164 -0.13205
v -0.19334 0.16621 -0.14365
v -0.19334 0.17345 -0.13205
v -0.19334 0.17345 0.13205
v -0.19334 0.16621 0.14365
v -0.19334 0.28164 -0.13205
v -0.19334 0.17345 -0.13205
v -0.19931 0.18080 -0.12519
v -0.19931 0.27429 -0.12519
v -0.20233 0.29824 -0.15403
v -0.19334 0.16621 -0.14365
v -0.19334 0.28888 -0.14365
v -0.20233 0.15685 -0.15403
v -0.19334 0.16621 -0.14365
v -0.20233 0.15685 0.15403
v -0.19334 0.16621 0.14365
v -0.20233 0.15685 -0.15403
v -0.20233 0.15685 0.15403
v -0.19334 0.28888 0.14365
v -0.19334 0.16621 0.14365
v -0.20233 0.29824 0.15403
v -0.20233 0.15685 0.15403
v -0.20233 0.34717 0.20233
v -0.20233 0.29824 0.15403
v -0.20233 0.10793 0.20233
v -0.20233 0.34717 -0.20233
v -0.20233 0.29824 -0.15403
v -0.20233 0.10793 -0.20233
v -0.20233 0.10793 0.20233
v -0.20233 0.15685 0.15403
v -0.20233 0.15685 -0.15403
v -0.20233 0.34717 -0.20233
v -0.20233 0.29824 -0.15403
v -0.20233 0.29824 0.15403
v -0.19334 0.28888 -0.14365
v -0.19334 0.28888 0.14365
v -0.20233 0.29824 -0.15403
v 0.12519 0.18080 0.19931
v -0.13205 0.17345 0.19334
v 0.13205 0.17345 0.19334
v -0.12519 0.18080 0.19931
v -0.12519 0.18080 0.19931
v -0.13205 0.28164 0.19334
v -0.13205 0.17345 0.19334
v -0.12519 0.27429 0.19931
v 0.13205 0.28164 0.19334
v -0.13205 0.28164 0.19334
v 0.12519 0.27429 0.19931
v -0.12519 0.27429 0.19931
v 0.12519 0.18080 0.19931
v -0.12519 0.27429 0.19931
v -0.12519 0.18080 0.19931
v 0.12519 0.27429 0.19931
v 0.14365 0.28888 0.19334
v -0.14365 0.28888 0.19334
v 0.13205 0.28164 0.19334
v -0.13205 0.28164 0.19334
v 0.14365 0.16621 0.19334
v 0.13205 0.17345 0.19334
v 0.13205 0.17345 0.19334
v 0.13205 0.28164 0.19334
v 0.12519 0.18080 0.19931
v 0.12519 0.27429 0.19931
v 0.15403 0.15685 0.20233
v 0.15403 0.29824 0.20233
v 0.14365 0.16621 0.19334
v 0.14365 0.28888 0.19334
v -0.14365 0.16621 0.19334
v 0.15403 0.15685 0.20233
v 0.14365 0.16621 0.19334
v -0.15403 0.15685 0.20233
v -0.14365 0.28888 0.19334
v -0.15403 0.15685 0.20233
v -0.14365 0.16621 0.19334
v -0.15403 0.29824 0.20233
v 0.20233 0.10793 0.20233
v -0.15403 0.15685 0.20233
v -0.20233 0.10793 0.20233
v 0.15403 0.15685 0.20233
v -0.20233 0.34717 0.20233
v -0.15403 0.29824 0.20233
v -0.15403 0.29824 0.20233
v 0.20233 0.34717 0.20233
v -0.20233 0.34717 0.20233
v 0.20233 0.10793 0.20233
v 0.15403 0.15685 0.20233
v 0.15403 0.29824 0.20233
v 0.15403 0.29824 0.20233
v -0.15403 0.29824 0.20233
v 0.14365 0.28888 0.19334
v -0.14365 0.28888 0.19334
v -0.13205 0.17345 0.19334
v -0.14365 0.16621 0.19334
v 0.22644 0.53378 -0.22644
v 0.22644 0.53378 0.22644
v 0.21367 0.52041 -0.21367
v 0.19704 0.58503 0.19704
v -0.21421 0.56303 0.21421
v 0.21421 0.56303 0.21421
v -0.19704 0.58503 0.19704
v -0.18448 0.61362 0.18448
v 0.18448 0.61362 0.18448
v -0.17988 0.64115 0.17988
v -0.19704 0.58503 -0.19704
v -0.21421 0.56303 0.21421
v -0.19704 0.58503 0.19704
v -0.18448 0.61362 -0.18448
v -0.18448 0.61362 0.18448
v -0.17988 0.64115 -0.17988
v 0.19704 0.58503 -0.19704
v -0.21421 0.56303 -0.21421
v -0.19704 0.58503 -0.19704
v -0.18448 0.61362 -0.18448
v 0.18448 0.61362 -0.18448
v 0.17988 0.64115 -0.17988
v 0.19704 0.58503 0.19704
v 0.21421 0.56303 -0.21421
v 0.19704 0.58503 -0.19704
v 0.18448 0.61362 0.18448
v 0.18448 0.61362 -0.18448
v 0.17988 0.64115 0.17988
v -0.18970 0.44084 0.18970
v 0.18970 0.44084 0.18970
v -0.18991 0.46829 0.18991
v 0.18991 0.46829 0.18991
v 0.19868 0.49741 0.19868
v -0.19868 0.49741 0.19868
v -0.21367 0.52041 0.21367
v -0.18970 0.44084 -0.18970
v -0.18970 0.44084 0.18970
v -0.18991 0.46829 -0.18991
v -0.18991 0.46829 0.18991
v -0.19868 0.49741 -0.19868
v -0.19868 0.49741 0.19868
v -0.21367 0.52041 -0.21367
v 0.18970 0.44084 -0.18970
v -0.18970 0.44084 -0.18970
v 0.18991 0.46829 -0.18991
v -0.18991 0.46829 -0.18991
v 0.19868 0.49741 -0.19868
v -0.19868 0.49741 -0.19868
v -0.21367 0.52041 -0.21367
v 0.21367 0.52041 -0.21367
v 0.18970 0.44084 0.18970
v 0.18970 0.44084 -0.18970
v 0.18991 0.46829 0.18991
v 0.18991 0.46829 -0.18991
v 0.19868 0.49741 0.19868
v 0.21367 0.52041 0.21367
v 0.19868 0.49741 -0.19868
v 0.21421 0.56303 -0.21421
v 0.22644 0.55181 -0.22644
v -0.22644 0.55181 -0.22644
v 0.22644 0.55181 0.22644
v -0.22644 0.55181 0.22644
v 0.21421 0.56303 0.21421
v 0.22644 0.55181 0.22644
v 0.22644 0.55181 -0.22644
v -0.17988 0.64115 -0.17988
v 0.17988 0.67440 -0.17988
v -0.17988 0.67440 -0.17988
v 0.17988 0.64115 0.17988
v -0.17988 0.67440 0.17988
v 0.17988 0.67440 0.17988
v -0.17988 0.64115 0.17988
v -0.17988 0.67440 -0.17988
v -0.17988 0.67440 0.17988
v 0.22644 0.53378 -0.22644
v 0.22644 0.55181 0.22644
v 0.22644 0.53378 0.22644
v 0.22644 0.55181 -0.22644
v -0.22644 0.53378 0.22644
v -0.22644 0.55181 -0.22644
v -0.22644 0.53378 -0.22644
v -0.22644 0.55181 0.22644
v -0.22644 0.53378 -0.22644
v 0.22644 0.55181 -0.22644
v 0.22644 0.53378 -0.22644
v -0.22644 0.55181 -0.22644
v -0.21421 0.56303 -0.21421
v -0.22644 0.55181 0.22644
v -0.22644 0.55181 -0.22644
v 0.22644 0.53378 0.22644
v -0.22644 0.55181 0.22644
v -0.22644 0.53378 0.22644
v 0.22644 0.55181 0.22644
v 0.22644 0.53378 -0.22644
v -0.22644 0.53378 -0.22644
v 0.21367 0.52041 0.21367
v 0.22644 0.53378 0.22644
v -0.22644 0.53378 0.22644
v -0.21367 0.52041 0.21367
v -0.22644 0.53378 0.22644
v -0.22644 0.53378 -0.22644
v 0.17988 0.64115 -0.17988
v 0.17988 0.67440 0.17988
v 0.17988 0.67440 -0.17988
vt 0.00000 0.00000
vt 0.00000 0.00000
vt 0.00000 0.00000
vt 0.00000 0.00000
vt 0.00000 0.00000
vt 0.00000 0.00000
vt 0.00000 0.00000
vt 0.00000 0.00000
vt 0.00000 0.00000
vt 0.00000 0.00000
vt 0.00000 0.00000
vt 0.00000 0.00000
vt 0.00000 0.00000
vt 0.00000 0.00000
vt 0.00000 0.00000
vt 0.00000 0.00000
vt 0.00000 0.00000
vt 0.00000 0.00000
vt 0.00000 0.00000
vt 0.00000 0.00000
vt 0.00000 0.00000
vt 0.00000 0.00000
vt 0.00000 0.00000
vt 0.00000 0.00000
vt 0.00000 0.00000
vt 0.00000 0.00000
vt 0.00000 0.00000
vt 0.00000 0.00000
vt 0.00000 0.00000
vt 0.00000 0.00000
vt 0.00000 0.00000
vt 0.00000 0.00000
vt 0.00000 0.00000
vt 0.00000 0.00000
vt 0.00000 0.00000
vt 0.00000 0.00000
vt 0.00000 0.00000
vt 0.00000 0.00000
vt 0.00000 0.00000
vt 0.00000 0.00000
vt 0.00000 0.00000
vt 0.00000 0.00000
vt 0.00000 0.00000
vt 0.00000 0.00000
vt 0.00000 0.00000
vt 0.00000 0.00000
vt 0.00000 0.00000
vt 0.00000 0.00000
vt 0.00000 0.00000
vt 0.00000 0.00000
vt 0.00000 0.00000
vt 0.00000 0.00000
vt 0.00000 0.00000
vt 0.00000 0.00000
vt 0.00000 0.00000
vt 0.00000 0.00000
vt 0.00000 0.00000
vt 0.00000 0.00000
vt 0.00000 0.00000
vt 0.00000 0.00000
vt 0.00000 0.00000
vt 0.00000 0.00000
vt 0.00000 0.00000
vt 0.00000 0.00000
vt 0.00000 0.00000
vt 0.00000 0.00000
vt 0.00000 0.00000
vt 0.00000 0.00000
vt 0.00000 0.00000
vt 0.00000 0.00000
vt 0.00000 0.00000
vt 0.00000 0.00000
vt 0.00000 0.00000
vt 0.00000 0.00000
vt 0.00000 0.00000
vt 0.00000 0.00000
vt 0.00000 0.00000
vt 0.00000 0.00000
vt 0.00000 0.00000
vt 0.00000 0.00000
vt 0.00000 0.00000
vt 0.00000 0.00000
vt 0.00000 0.00000
vt 0.00000 0.00000
vt 0.00000 0.00000
vt 0.00000 0.00000
vt 0.00000 0.00000
vt 0.00000 0.00000
vt 0.00000 0.00000
vt 0.00000 0.00000
vt 0.00000 0.00000
vt 0.00000 0.00000
vt 0.00000 0.00000
vt 0.00000 0.00000
vt 0.00000 0.00000
vt 0.00000 0.00000
vt 0.00000 0.00000
vt 0.00000 0.00000
vt 0.00000 0.00000
vt 0.00000 0.00000
vt 0.00000 0.00000
vt 0.00000 0.00000
vt 0.00000 0.00000
vt 0.00000 0.00000
vt 0.00000 0.00000
vt 0.00000 0.00000
vt 0.00000 0.00000
vt 0.00000 0.00000
vt 0.00000 0.00000
vt 0.00000 0.00000
vt 0.00000 0.00000
vt 0.00000 0.00000
vt 0.00000 0.00000
vt 0.00000 0.00000
vt 0.00000 0.00000
vt 0.00000 0.00000
vt 0.00000 0.00000
vt 0.00000 0.00000
vt 0.00000 0.00000
vt 0.00000 0.00000
vt 0.00000 0.00000
vt 0.00000 0.00000
vt 0.00000 0.00000
vt 0.00000 0.00000
vt 0.00000 0.00000
vt 0.00000 0.00000
vt 0.00000 0.00000
vt 0.00000 0.00000
vt 0.00000 0.00000
vt 0.00000 0.00000
vt 0.00000 0.00000
vt 0.00000 0.00000
vt 0.00000 0.00000
vt 0.00000 0.00000
vt 0.00000 0.00000
vt 0.00000 0.00000
vt 0.00000 0.00000
vt 0.00000 0.00000
vt 0.00000 0.00000
vt 0.00000 0.00000
vt 0.00000 0.00000
vt 0.00000 0.00000
vt 0.00000 0.00000
vt 0.00000 0.00000
vt 0.00000 0.00000
vt 0.00000 0.00000
vt 0.00000 0.00000
vt 0.00000 0.00000
vt 0.00000 0.00000
vt 0.00000 0.00000
vt 0.00000 0.00000
vt 0.00000 0.00000
vt 0.00000 0.00000
vt 0.00000 0.00000
vt 0.00000 0.00000
vt 0.00000 0.00000
vt 0.00000 0.00000
vt 0.00000 0.00000
vt 0.00000 0.00000
vt 0.00000 0.00000
vt 0.00000 0.00000
vt 0.00000 0.00000
vt 0.00000 0.00000
vt 0.00000 0.00000
vt 0.00000 0.00000
vt 0.00000 0.00000
vt 0.00000 0.00000
vt 0.00000 0.00000
vt 0.00000 0.00000
vt 0.00000 0.00000
vt 0.00000 0.00000
vt 0.00000 0.00000
vt 0.00000 0.00000
vt 0.00000 0.00000
vt 0.00000 0.00000
vt 0.00000 0.00000
vt 0.00000 0.00000
vt 0.00000 0.00000
vt 0.00000 0.00000
vt 0.00000 0.00000
vt 0.00000 0.00000
vt 0.00000 0.00000
vt 0.00000 0.00000
vt 0.00000 0.00000
vt 0.00000 0.00000
vt 0.00000 0.00000
vt 0.00000 0.00000
vt 0.00000 0.00000
vt 0.00000 0.00000
vt 0.00000 0.00000
vt 0.00000 0.00000
vt 0.00000 0.00000
vt 0.00000 0.00000
vt 0.00000 0.00000
vt 0.00000 0.00000
vt 0.00000 0.00000
vt 0.00000 0.00000
vt 0.00000 0.00000
vt 0.00000 0.00000
vt 0.00000 0.00000
vt 0.00000 0.00000
vt 0.00000 0.00000
vt 0.00000 0.00000
vt 0.00000 0.00000
vt 0.00000 0.00000
vt 0.00000 0.00000
vt 0.00000 0.00000
vt 0.00000 0.00000
vt 0.00000 0.00000
vt 0.00000 0.00000
vt 0.00000 0.00000
vt 0.00000 0.00000
vt 0.00000 0.00000
vt 0.00000 0.00000
vt 0.00000 0.00000
vt 0.00000 0.00000
vt 0.00000 0.00000
vt 0.00000 0.00000
vt 0.00000 0.00000
vt 0.00000 0.00000
vt 0.00000 0.00000
vt 0.00000 0.00000
vt 0.00000 0.00000
vt 0.00000 0.00000
vt 0.00000 0.00000
vt 0.00000 0.00000
vt 0.00000 0.00000
vt 0.00000 0.00000
vt 0.00000 0.00000
vt 0.00000 0.00000
vt 0.00000 0.00000
vt 0.00000 0.00000
vt 0.00000 0.00000
vt 0.00000 0.00000
vt 0.00000 0.00000
vt 0.00000 0.00000
vt 0.00000 0.00000
vt 0.00000 0.00000
vt 0.00000 0.00000
vt 0.00000 0.00000
vt 0.00000 0.00000
vt 0.00000 0.00000
vt 0.00000 0.00000
vt 0.00000 0.00000
vt 0.00000 0.00000
vt 0.00000 0.00000
vt 0.00000 0.00000
vt 0.00000 0.00000
vt 0.00000 0.00000
vt 0.00000 0.00000
vt 0.00000 0.00000
vt 0.00000 0.00000
vt 0.00000 0.00000
vt 0.00000 0.00000
vt 0.00000 0.00000
vt 0.00000 0.00000
vt 0.00000 0.00000
vt 0.00000 0.00000
vt 0.00000 0.00000
vt 0.00000 0.00000
vt 0.00000 0.00000
vt 0.00000 0.00000
vt 0.00000 0.00000
vt 0.00000 0.00000
vt 0.00000 0.00000
vt 0.00000 0.00000
vt 0.00000 0.00000
vt 0.00000 0.00000
vt 0.00000 0.00000
vt 0.00000 0.00000
vt 0.00000 0.00000
vt 0.00000 0.00000
vt 0.00000 0.00000
vt 0.00000 0.00000
vt 0.00000 0.00000
vt 0.00000 0.00000
vt 0.00000 0.00000
vt 0.00000 0.00000
vt 0.00000 0.00000
vt 0.00000 0.00000
vt 0.00000 0.00000
vt 0.00000 0.00000
vt 0.00000 0.00000
vt 0.00000 0.00000
vt 0.00000 0.00000
vt 0.00000 0.00000
vt 0.00000 0.00000
vt 0.00000 0.00000
vt 0.00000 0.00000
vt 0.00000 0.00000
vt 0.00000 0.00000
vt 0.00000 0.00000
vt 0.00000 0.00000
vt 0.00000 0.00000
vt 0.00000 0.00000
vt 0.00000 0.00000
vt 0.00000 0.00000
vt 0.00000 0.00000
vt 0.00000 0.00000
vt 0.00000 0.00000
vt 0.00000 0.00000
vt 0.00000 0.00000
vt 0.00000 0.00000
vt 0.00000 0.00000
vt 0.00000 0.00000
vt 0.00000 0.00000
vt 0.00000 0.00000
vt 0.00000 0.00000
vt 0.00000 0.00000
vt 0.00000 0.00000
vt 0.00000 0.00000
vt 0.00000 0.00000
vt 0.00000 0.00000
vt 0.00000 0.00000
vt 0.00000 0.00000
vt 0.00000 0.00000
vt 0.00000 0.00000
vt 0.00000 0.00000
vt 0.00000 0.00000
vt 0.00000 0.00000
vt 0.00000 0.00000
vt 0.00000 0.00000
vt 0.00000 0.00000
vt 0.00000 0.00000
vt 0.00000 0.00000
vt 0.00000 0.00000
vt 0.00000 0.00000
vt 0.00000 0.00000
vt 0.00000 0.00000
vt 0.00000 0.00000
vt 0.00000 0.00000
vt 0.00000 0.00000
vt 0.00000 0.00000
vt 0.00000 0.00000
vt 0.00000 0.00000
vt 0.00000 0.00000
vt 0.00000 0.00000
vt 0.00000 0.00000
vt 0.00000 0.00000
vt 0.00000 0.00000
vt 0.00000 0.00000
vt 0.00000 0.00000
vt 0.00000 0.00000
vt 0.00000 0.00000
vt 0.00000 0.00000
vt 0.00000 0.00000
vt 0.00000 0.00000
vt 0.00000 0.00000
vt 0.00000 0.00000
vt 0.00000 0.00000
vt 0.00000 0.00000
vt 0.00000 0.00000
vt 0.00000 0.00000
vt 0.00000 0.00000
vt 0.00000 0.00000
vt 0.00000 0.00000
vt 0.00000 0.00000
vt 0.00000 0.00000
vt 0.00000 0.00000
vt 0.00000 0.00000
vt 0.00000 0.00000
vt 0.00000 0.00000
vt 0.00000 0.00000
vt 0.00000 0.00000
vt 0.00000 0.00000
vt 0.00000 0.00000
vt 0.00000 0.00000
vt 0.00000 0.00000
vt 0.00000 0.00000
vt 0.00000 0.00000
vt 0.00000 0.00000
vt 0.00000 0.00000
vt 0.00000 0.00000
vt 0.00000 0.00000
vt 0.00000 0.00000
vt 0.00000 0.00000
vt 0.00000 0.00000
vt 0.00000 0.00000
vt 0.00000 0.00000
vt 0.00000 0.00000
vt 0.00000 0.00000
vt 0.00000 0.00000
vt 0.00000 0.00000
vt 0.00000 0.00000
vt 0.00000 0.00000
vt 0.00000 0.00000
vt 0.00000 0.00000
vt 0.00000 0.00000
vt 0.00000 0.00000
vt 0.00000 0.00000
vt 0.00000 0.00000
vt 0.00000 0.00000
vt 0.00000 0.00000
vt 0.00000 0.00000
vt 0.00000 0.00000
vt 0.00000 0.00000
vt 0.00000 0.00000
vt 0.00000 0.00000
vt 0.00000 0.00000
vt 0.00000 0.00000
vt 0.00000 0.00000
vt 0.00000 0.00000
vt 0.00000 0.00000
vt 0.00000 0.00000
vt 0.00000 0.00000
vt 0.00000 0.00000
vt 0.00000 0.00000
vt 0.00000 0.00000
vt 0.00000 0.00000
vt 0.00000 0.00000
vt 0.00000 0.00000
vt 0.00000 0.00000
vt 0.00000 0.00000
vt 0.00000 0.00000
vt 0.00000 0.00000
vt 0.00000 0.00000
vt 0.00000 0.00000
vt 0.00000 0.00000
vt 0.00000 0.00000
vt 0.00000 0.00000
vt 0.00000 0.00000
vt 0.00000 0.00000
vt 0.00000 0.00000
vt 0.00000 0.00000
vt 0.00000 0.00000
vt 0.00000 0.00000
vt 0.00000 0.00000
vt 0.00000 0.00000
vt 0.00000 0.00000
vt 0.00000 0.00000
vt 0.00000 0.00000
vt 0.00000 0.00000
vt 0.00000 0.00000
vt 0.00000 0.00000
vt 0.00000 0.00000
vt 0.00000 0.00000
vt 0.00000 0.00000
vt 0.00000 0.00000
vt 0.00000 0.00000
vt 0.00000 0.00000
vt 0.00000 0.00000
vt 0.00000 0.00000
vt 0.00000 0.00000
vt 0.00000 0.00000
vt 0.00000 0.00000
vt 0.00000 0.00000
vt 0.00000 0.00000
vt 0.00000 0.00000
vt 0.00000 0.00000
vt 0.00000 0.00000
vt 0.00000 0.00000
vt 0.00000 0.00000
vt 0.00000 0.00000
vt 0.00000 0.00000
vt 0.00000 0.00000
vt 0.00000 0.00000
vt 0.00000 0.00000
vt 0.00000 0.00000
vt 0.00000 0.00000
vt 0.00000 0.00000
vt 0.00000 0.00000
vt 0.00000 0.00000
vt 0.00000 0.00000
vt 0.00000 0.00000
vt 0.00000 0.00000
vt 0.00000 0.00000
vt 0.00000 0.00000
vt 0.00000 0.00000
vt 0.00000 0.00000
vt 0.00000 0.00000
vt 0.00000 0.00000
vt 0.00000 0.00000
vt 0.00000 0.00000
vt 0.00000 0.00000
vt 0.00000 0.00000
vt 0.00000 0.00000
vt 0.00000 0.00000
vt 0.00000 0.00000
vt 0.00000 0.00000
vt 0.00000 0.00000
vt 0.00000 0.00000
vt 0.00000 0.00000
vt 0.00000 0.00000
vt 0.00000 0.00000
vt 0.00000 0.00000
vt 0.00000 0.00000
vt 0.00000 0.00000
vt 0.00000 0.00000
vt 0.00000 0.00000
vt 0.00000 0.00000
vt 0.00000 0.00000
vt 0.00000 0.00000
vt 0.00000 0.00000
vt 0.00000 0.00000
vt 0.00000 0.00000
vt 0.00000 0.00000
vt 0.00000 0.00000
vt 0.00000 0.00000
vt 0.00000 0.00000
vt 0.00000 0.00000
vt 0.00000 0.00000
vt 0.00000 0.00000
vt 0.00000 0.00000
vt 0.00000 0.00000
vt 0.00000 0.00000
vt 0.00000 0.00000
vt 0.00000 0.00000
vt 0.00000 0.00000
vt 0.00000 0.00000
vt 0.00000 0.00000
vt 0.00000 0.00000
vt 0.00000 0.00000
vt 0.00000 0.00000
vt 0.00000 0.00000
vt 0.00000 0.00000
vt 0.00000 0.00000
vt 0.00000 0.00000
vt 0.00000 0.00000
vt 0.00000 0.00000
vt 0.00000 0.00000
vt 0.00000 0.00000
vt 0.00000 0.00000
vt 0.00000 0.00000
vt 0.00000 0.00000
vt 0.00000 0.00000
vt 0.00000 0.00000
vt 0.00000 0.00000
vt 0.00000 0.00000
vt 0.00000 0.00000
vt 0.00000 0.00000
vt 0.00000 0.00000
vt 0.00000 0.00000
vt 0.00000 0.00000
vt 0.00000 0.00000
vt 0.00000 0.00000
vt 0.00000 0.00000
vt 0.00000 0.00000
vt 0.00000 0.00000
vt 0.00000 0.00000
vt 0.00000 0.00000
vt 0.00000 0.00000
vt 0.00000 0.00000
vt 0.00000 0.00000
vt 0.00000 0.00000
vt 0.00000 0.00000
vt 0.00000 0.00000
vt 0.00000 0.00000
vt 0.00000 0.00000
vt 0.00000 0.00000
vt 0.00000 0.00000
vt 0.00000 0.00000
vt 0.00000 0.00000
vt 0.00000 0.00000
vt 0.00000 0.00000
vt 0.00000 0.00000
vt 0.00000 0.00000
vt 0.00000 0.00000
vt 0.00000 0.00000
vt 0.00000 0.00000
vt 0.00000 0.00000
vt 0.00000 0.00000
vt 0.00000 0.00000
vt 0.00000 0.00000
vt 0.00000 0.00000
vt 0.00000 0.00000
vt 0.00000 0.00000
vt 0.00000 0.00000
vt 0.00000 0.00000
vt 0.00000 0.00000
vt 0.00000 0.00000
vt 0.00000 0.00000
vt 0.00000 0.00000
vt 0.00000 0.00000
vt 0.00000 0.00000
vt 0.00000 0.00000
vt 0.00000 0.00000
vt 0.00000 0.00000
vt 0.00000 0.00000
vt 0.00000 0.00000
vt 0.00000 0.00000
vt 0.00000 0.00000
vt 0.00000 0.00000
vt 0.00000 0.00000
vt 0.00000 0.00000
vt 0.00000 0.00000
vt 0.00000 0.00000
vt 0.00000 0.00000
vt 0.00000 0.00000
vt 0.00000 0.00000
vt 0.00000 0.00000
vt 0.00000 0.00000
vt 0.00000 0.00000
vt 0.00000 0.00000
vt 0.00000 0.00000
vt 0.00000 0.00000
vt 0.00000 0.00000
vt 0.00000 0.00000
vt 0.00000 0.00000
vt 0.00000 0.00000
vt 0.00000 0.00000
vt 0.00000 0.00000
vt 0.00000 0.00000
vt 0.00000 0.00000
vt 0.00000 0.00000
vt 0.00000 0.00000
vt 0.00000 0.00000
vt 0.00000 0.00000
vt 0.00000 0.00000
vt 0.00000 0.00000
vt 0.00000 0.00000
vt 0.00000 0.00000
vt 0.00000 0.00000
vt 0.00000 0.00000
vt 0.00000 0.00000
vt 0.00000 0.00000
vt 0.00000 0.00000
vt 0.00000 0.00000
vt 0.00000 0.00000
vt 0.00000 0.00000
vt 0.00000 0.00000
vt 0.00000 0.00000
vt 0.00000 0.00000
vt 0.00000 0.00000
vt 0.00000 0.00000
vt 0.00000 0.00000
vt 0.00000 0.00000
vt 0.00000 0.00000
vt 0.00000 0.00000
vt 0.00000 0.00000
vt 0.00000 0.00000
vt 0.00000 0.00000
vt 0.00000 0.00000
vt 0.00000 0.00000
vt 0.00000 0.00000
vt 0.00000 0.00000
vt 0.00000 0.00000
vt 0.00000 0.00000
vt 0.00000 0.00000
vt 0.00000 0.00000
vt 0.00000 0.00000
vt 0.00000 0.00000
vt 0.00000 0.00000
vt 0.00000 0.00000
vt 0.00000 0.00000
vt 0.00000 0.00000
vt 0.00000 0.00000
vt 0.00000 0.00000
vt 0.00000 0.00000
vt 0.00000 0.00000
vt 0.00000 0.00000
vt 0.00000 0.00000
vt 0.00000 0.00000
vt 0.00000 0.00000
vt 0.00000 0.00000
vt 0.00000 0.00000
vt 0.00000 0.00000
vt 0.00000 0.00000
vt 0.00000 0.00000
vt 0.00000 0.00000
vt 0.00000 0.00000
vt 0.00000 0.00000
vt 0.00000 0.00000
vt 0.00000 0.00000
vt 0.00000 0.00000
vt 0.00000 0.00000
vt 0.00000 0.00000
vt 0.00000 0.00000
vt 0.00000 0.00000
vt 0.00000 0.00000
vt 0.00000 0.00000
vt 0.00000 0.00000
vt 0.00000 0.00000
vt 0.00000 0.00000
vt 0.00000 0.00000
vt 0.00000 0.00000
vt 0.00000 0.00000
vt 0.00000 0.00000
vt 0.00000 0.00000
vt 0.00000 0.00000
vt 0.00000 0.00000
vt 0.00000 0.00000
vt 0.00000 0.00000
vt 0.00000 0.00000
vt 0.00000 0.00000
vt 0.00000 0.00000
vt 0.00000 0.00000
vt 0.00000 0.00000
vt 0.00000 0.00000
vt 0.00000 0.00000
vt 0.00000 0.00000
vt 0.00000 0.00000
vt 0.00000 0.00000
vt 0.00000 0.00000
vt 0.00000 0.00000
vt 0.00000 0.00000
vt 0.00000 0.00000
vt 0.00000 0.00000
vt 0.00000 0.00000
vt 0.00000 0.00000
vt 0.00000 0.00000
vt 0.00000 0.00000
vt 0.00000 0.00000
vt 0.00000 0.00000
vt 0.00000 0.00000
vt 0.00000 0.00000
vt 0.00000 0.00000
vt 0.00000 0.00000
vt 0.00000 0.00000
vt 0.00000 0.00000
vt 0.00000 0.00000
vt 0.00000 0.00000
vt 0.00000 0.00000
vt 0.00000 0.00000
vt 0.00000 0.00000
vt 0.00000 0.00000
vt 0.00000 0.00000
vt 0.00000 0.00000
vt 0.00000 0.00000
vt 0.00000 0.00000
vt 0.00000 0.00000
vt 0.00000 0.00000
vt 0.00000 0.00000
vt 0.00000 0.00000
vt 0.00000 0.00000
vt 0.00000 0.00000
vt 0.00000 0.00000
vt 0.00000 0.00000
vt 0.00000 0.00000
vt 0.00000 0.00000
vt 0.00000 0.00000
vt 0.00000 0.00000
vt 0.00000 0.00000
vt 0.00000 0.00000
vt 0.00000 0.00000
vt 0.00000 0.00000
vt 0.00000 0.00000
vt 0.00000 0.00000
vt 0.00000 0.00000
vt 0.00000 0.00000
vt 0.00000 0.00000
vt 0.00000 0.00000
vt 0.00000 0.00000
vt 0.00000 0.00000
vt 0.00000 0.00000
vt 0.00000 0.00000
vt 0.00000 0.00000
vt 0.00000 0.00000
vt 0.00000 0.00000
vt 0.00000 0.00000
vt 0.00000 0.00000
vt 0.00000 0.00000
vt 0.00000 0.00000
vt 0.00000 0.00000
vt 0.00000 0.00000
vt 0.00000 0.00000
vt 0.00000 0.00000
vt 0.00000 0.00000
vt 0.00000 0.00000
vt 0.00000 0.00000
vt 0.00000 0.00000
vt 0.00000 0.00000
vt 0.00000 0.00000
vt 0.00000 0.00000
vt 0.00000 0.00000
vt 0.00000 0.00000
vt 0.00000 0.00000
vt 0.00000 0.00000
vt 0.00000 0.00000
vt 0.00000 0.00000
vt 0.00000 0.00000
vt 0.00000 0.00000
vt 0.00000 0.00000
vt 0.00000 0.00000
vt 0.00000 0.00000
vt 0.00000 0.00000
vt 0.00000 0.00000
vt 0.00000 0.00000
vt 0.00000 0.00000
vt 0.00000 0.00000
vt 0.00000 0.00000
vt 0.00000 0.00000
vt 0.00000 0.00000
vt 0.00000 0.00000
vt 0.00000 0.00000
vt 0.00000 0.00000
vt 0.00000 0.00000
vt 0.00000 0.00000
vt 0.00000 0.00000
vt 0.00000 0.00000
vt 0.00000 0.00000
vt 0.00000 0.00000
vt 0.00000 0.00000
vt 0.00000 0.00000
vt 0.00000 0.00000
vt 0.00000 0.00000
vt 0.00000 0.00000
vt 0.00000 0.00000
vt 0.00000 0.00000
vt 0.00000 0.00000
vt 0.00000 0.00000
vt 0.00000 0.00000
vt 0.00000 0.00000
vt 0.00000 0.00000
vt 0.00000 0.00000
vt 0.00000 0.00000
vt 0.00000 0.00000
vt 0.00000 0.00000
vt 0.00000 0.00000
vt 0.00000 0.00000
vt 0.00000 0.00000
vt 0.00000 0.00000
vt 0.00000 0.00000
vt 0.00000 0.00000
vt 0.00000 0.00000
vt 0.00000 0.00000
vt 0.00000 0.00000
vt 0.00000 0.00000
vt 0.00000 0.00000
vt 0.00000 0.00000
vt 0.00000 0.00000
vt 0.00000 0.00000
vt 0.00000 0.00000
vt 0.00000 0.00000
vt 0.00000 0.00000
vt 0.00000 0.00000
vt 0.00000 0.00000
vt 0.00000 0.00000
vt 0.00000 0.00000
vt 0.00000 0.00000
vt 0.00000 0.00000
vt 0.00000 0.00000
vt 0.00000 0.00000
vt 0.00000 0.00000
vt 0.00000 0.00000
vt 0.00000 0.00000
vt 0.00000 0.00000
vt 0.00000 0.00000
vt 0.00000 0.00000
vt 0.00000 0.00000
vt 0.00000 0.00000
vt 0.00000 0.00000
vt 0.00000 0.00000
vt 0.00000 0.00000
vt 0.00000 0.00000
vt 0.00000 0.00000
vt 0.00000 0.00000
vt 0.00000 0.00000
vt 0.00000 0.00000
vt 0.00000 0.00000
vt 0.00000 0.00000
vt 0.00000 0.00000
vt 0.00000 0.00000
vt 0.00000 0.00000
vt 0.00000 0.00000
vt 0.00000 0.00000
vt 0.00000 0.00000
vt 0.00000 0.00000
vt 0.00000 0.00000
vt 0.00000 0.00000
vt 0.00000 0.00000
vt 0.00000 0.00000
vt 0.00000 0.00000
vt 0.00000 0.00000
vt 0.00000 0.00000
vt 0.00000 0.00000
vt 0.00000 0.00000
vt 0.00000 0.00000
vt 0.00000 0.00000
vt 0.00000 0.00000
vt 0.00000 0.00000
vt 0.00000 0.00000
vt 0.00000 0.00000
vt 0.00000 0.00000
vt 0.00000 0.00000
vt 0.00000 0.00000
vt 0.00000 0.00000
vt 0.00000 0.00000
vt 0.00000 0.00000
vt 0.00000 0.00000
vt 0.00000 0.00000
vt 0.00000 0.00000
vt 0.00000 0.00000
vt 0.00000 0.00000
vt 0.00000 0.00000
vt 0.00000 0.00000
vt 0.00000 0.00000
vt 0.00000 0.00000
vt 0.00000 0.00000
vt 0.00000 0.00000
vt 0.00000 0.00000
vt 0.00000 0.00000
vt 0.00000 0.00000
vt 0.00000 0.00000
vt 0.00000 0.00000
vt 0.00000 0.00000
vt 0.00000 0.00000
vt 0.00000 0.00000
vt 0.00000 0.00000
vt 0.00000 0.00000
vt 0.00000 0.00000
vt 0.00000 0.00000
vt 0.00000 0.00000
vt 0.00000 0.00000
vt 0.00000 0.00000
vt 0.00000 0.00000
vt 0.00000 0.00000
vt 0.00000 0.00000
vt 0.00000 0.00000
vt 0.00000 0.00000
vt 0.00000 0.00000
vt 0.00000 0.00000
vt 0.00000 0.00000
vt 0.00000 0.00000
vt 0.00000 0.00000
vt 0.00000 0.00000
vt 0.00000 0.00000
vn -0.90955 -0.41560 0.00000
vn -0.90955 -0.41560 0.00000
vn -0.90955 -0.41560 0.00000
vn -0.90955 -0.41560 0.00000
vn 0.90955 -0.41560 0.00000
vn 0.90955 -0.41560 0.00000
vn 0.90955 -0.41560 0.00000
vn 0.90955 -0.41560 0.00000
vn 0.00000 -0.41560 0.90955
vn 0.00000 -0.41560 0.90955
vn 0.00000 -0.41560 0.90955
vn 0.00000 -0.41560 0.90955
vn 0.00000 -0.41560 -0.90955
vn 0.00000 -0.41560 -0.90955
vn 0.00000 -0.41560 -0.90955
vn 0.00000 -0.41560 -0.90955
vn 0.00000 -1.00000 0.00000
vn 0.00000 -1.00000 0.00000
vn 0.00000 -1.00000 0.00000
vn 0.00000 -1.00000 0.00000
vn 0.00000 1.00000 -0.00000
vn 0.00000 1.00000 -0.00000
vn 0.00000 1.00000 -0.00000
vn 0.00000 1.00000 -0.00000
vn 0.00000 -0.26725 -0.96363
vn 0.00000 -0.12262 -0.99245
vn 0.00000 -0.12262 -0.99245
vn 0.00000 -0.26725 0.96363
vn 0.00000 -0.26725 0.96363
vn 0.00000 -0.12262 0.99245
vn -0.96364 -0.26722 0.00000
vn -0.96364 -0.26722 0.00000
vn -0.99246 -0.12261 0.00000
vn 0.00000 -1.00000 0.00000
vn 0.00000 -1.00000 0.00000
vn 0.00000 -1.00000 0.00000
vn 0.00000 -1.00000 0.00000
vn 0.00000 -0.26725 -0.96363
vn 0.00000 -0.00000 -1.00000
vn 0.00000 -0.00000 -1.00000
vn 0.00000 -0.12262 0.99245
vn 0.00000 0.00000 1.00000
vn 0.00000 0.00000 1.00000
vn -0.99246 -0.12261 0.00000
vn -1.00000 0.00000 0.00000
vn -1.00000 0.00000 0.00000
vn 1.00000 0.00000 0.00000
vn 0.99245 -0.12262 0.00000
vn 1.00000 0.00000 0.00000
vn 0.00000 1.00000 -0.00000
vn 0.00000 1.00000 -0.00000
vn 0.00000 1.00000 -0.00000
vn 0.00000 1.00000 -0.00000
vn 0.99245 -0.12262 0.00000
vn 0.96363 -0.26725 0.00000
vn 0.96363 -0.26725 0.00000
vn 0.00000 -1.00000 0.00000
vn 0.00000 -1.00000 0.00000
vn 0.00000 -1.00000 0.00000
vn 0.00000 -1.00000 0.00000
vn -1.00000 0.00000 0.00000
vn -1.00000 0.00000 0.00000
vn -1.00000 0.00000 0.00000
vn -1.00000 0.00000 0.00000
vn 0.00000 -0.00000 -1.00000
vn 0.00000 -0.00000 -1.00000
vn 0.00000 -0.00000 -1.00000
vn 0.00000 -0.00000 -1.00000
vn 1.00000 0.00000 0.00000
vn 1.00000 0.00000 0.00000
vn 1.00000 0.00000 0.00000
vn 1.00000 0.00000 0.00000
vn 0.00000 0.00000 1.00000
vn 0.00000 0.00000 1.00000
vn 0.00000 0.00000 1.00000
vn 0.00000 0.00000 1.00000
vn 0.00000 1.00000 -0.00000
vn 0.00000 1.00000 -0.00000
vn 0.00000 1.00000 -0.00000
vn 0.00000 1.00000 -0.00000
vn 0.00000 -1.00000 0.00000
vn 0.00000 -1.00000 0.00000
vn 0.00000 -1.00000 0.00000
vn 0.00000 -1.00000 0.00000
vn 0.72317 -0.69067 0.00000
vn 0.72317 -0.69067 0.00000
vn 0.76383 -0.64542 0.00000
vn 0.00000 0.54265 0.83996
vn 0.00000 0.70038 0.71377
vn 0.00000 0.70038 0.71377
vn 0.00000 0.54265 0.83996
vn 0.00000 0.30519 0.95229
vn 0.00000 0.30519 0.95229
vn 0.00000 0.08679 0.99623
vn 0.00000 0.08679 0.99623
vn -0.83996 0.54265 -0.00000
vn -0.71377 0.70038 -0.00000
vn -0.83996 0.54265 -0.00000
vn -0.95229 0.30519 -0.00000
vn -0.95229 0.30519 -0.00000
vn -0.99623 0.08679 -0.00000
vn 0.00000 0.54265 -0.83996
vn 0.00000 0.30519 -0.95229
vn 0.00000 0.30519 -0.95229
vn 0.00000 0.70038 -0.71377
vn 0.00000 0.54265 -0.83996
vn 0.00000 0.08679 -0.99623
vn 0.83996 0.54265 -0.00000
vn 0.71377 0.70038 -0.00000
vn 0.83996 0.54265 -0.00000
vn 0.95229 0.30519 -0.00000
vn 0.95229 0.30519 -0.00000
vn 0.99623 0.08680 -0.00000
vn 0.00000 -0.00736 0.99997
vn 0.00000 -0.00736 0.99997
vn 0.00000 -0.16136 0.98690
vn 0.00000 -0.16136 0.98690
vn 0.00000 -0.45152 0.89226
vn 0.00000 -0.45152 0.89226
vn 0.00000 -0.64542 0.76383
vn -0.99997 -0.00736 0.00000
vn -0.99997 -0.00736 0.00000
vn -0.98690 -0.16136 0.00000
vn -0.98690 -0.16136 0.00000
vn -0.89226 -0.45152 0.00000
vn -0.89226 -0.45152 0.00000
vn -0.76383 -0.64542 0.00000
vn 0.00000 -0.00736 -0.99997
vn 0.00000 -0.16136 -0.98690
vn 0.00000 -0.16136 -0.98690
vn 0.00000 -0.00736 -0.99997
vn 0.00000 -0.45153 -0.89226
vn 0.00000 -0.45153 -0.89226
vn 0.00000 -0.64542 -0.76383
vn 0.00000 -0.64542 -0.76383
vn 0.99997 -0.00736 0.00000
vn 0.98690 -0.16136 0.00000
vn 0.98690 -0.16136 0.00000
vn 0.99997 -0.00736 0.00000
vn 0.89226 -0.45153 0.00000
vn 0.76383 -0.64542 0.00000
vn 0.89226 -0.45153 0.00000
vn 0.00000 0.70038 -0.71377
vn 0.00000 0.73672 -0.67620
vn 0.00000 0.73672 -0.67620
vn 0.00000 0.73671 0.67620
vn 0.00000 0.73671 0.67620
vn 0.71377 0.70038 -0.00000
vn 0.67620 0.73672 -0.00000
vn 0.67620 0.73672 -0.00000
vn 0.00000 0.08679 -0.99623
vn 0.00000 -0.00000 -1.00000
vn 0.00000 -0.00000 -1.00000
vn 0.00000 0.00000 1.00000
vn 0.00000 0.00000 1.00000
vn -0.99623 0.08679 -0.00000
vn -1.00000 0.00000 0.00000
vn -1.00000 0.00000 0.00000
vn 1.00000 0.00000 0.00000
vn 1.00000 0.00000 0.00000
vn 1.00000 0.00000 0.00000
vn 1.00000 0.00000 0.00000
vn -1.00000 0.00000 0.00000
vn -1.00000 0.00000 0.00000
vn -1.00000 0.00000 0.00000
vn -1.00000 0.00000 0.00000
vn 0.00000 -0.00000 -1.00000
vn 0.00000 -0.00000 -1.00000
vn 0.00000 -0.00000 -1.00000
vn 0.00000 -0.00000 -1.00000
vn -0.71377 0.70038 -0.00000
vn -0.67620 0.73672 -0.00000
vn -0.67620 0.73672 -0.00000
vn 0.00000 0.00000 1.00000
vn 0.00000 0.00000 1.00000
vn 0.00000 0.00000 1.00000
vn 0.00000 0.00000 1.00000
vn 0.00000 -0.69068 -0.72316
vn 0.00000 -0.69068 -0.72316
vn 0.00000 -0.64542 0.76383
vn 0.00000 -0.69067 0.72317
vn 0.00000 -0.69067 0.72317
vn -0.76383 -0.64542 0.00000
vn -0.72316 -0.69068 0.00000
vn -0.72316 -0.69068 0.00000
vn 0.99623 0.08680 -0.00000
vn 1.00000 0.00000 0.00000
vn 1.00000 0.00000 0.00000
vn 0.93766 -0.34754 0.00000
vn 0.93766 -0.34754 0.00000
vn 0.93766 -0.34754 0.00000
vn 0.93766 -0.34754 0.00000
vn -0.93766 -0.34755 0.00000
vn -0.93766 -0.34755 0.00000
vn -0.93766 -0.34755 0.00000
vn -0.93766 -0.34755 0.00000
vn 0.00000 -0.34777 -0.93758
vn 0.00000 -0.34777 -0.93758
vn 0.00000 -0.34777 -0.93758
vn 0.00000 -0.34777 -0.93758
vn 0.00000 -0.34777 0.93758
vn 0.00000 -0.34777 0.93758
vn 0.00000 -0.34777 0.93758
vn 0.00000 -0.34777 0.93758
vn 0.00000 1.00000 -0.00000
vn 0.00000 1.00000 -0.00000
vn 0.00000 1.00000 -0.00000
vn 0.00000 1.00000 -0.00000
vn 0.00000 -1.00000 0.00000
vn 0.00000 -1.00000 0.00000
vn 0.00000 -1.00000 0.00000
vn 0.00000 -1.00000 0.00000
vn -0.49936 -0.05070 0.86491
vn 0.00000 -0.05070 0.99871
vn -0.49936 -0.05070 0.86491
vn -0.86491 -0.05070 0.49936
vn 0.86491 -0.05070 0.49936
vn 0.99871 -0.05070 0.00000
vn 0.86491 -0.05070 0.49936
vn 0.49936 -0.05070 0.86491
vn 0.00000 -0.05070 -0.99871
vn 0.00000 -0.05070 -0.99871
vn -0.49936 -0.05070 -0.86491
vn 0.49936 -0.05070 -0.86491
vn -0.49936 -0.05070 -0.86491
vn -0.86491 -0.05070 -0.49936
vn 0.49936 -0.05070 -0.86491
vn 0.86491 -0.05070 -0.49936
vn -0.86491 -0.05070 0.49936
vn -0.99871 -0.05071 0.00000
vn 0.00000 -0.05070 0.99871
vn 0.49936 -0.05070 0.86491
vn 0.86491 -0.05070 -0.49936
vn 0.99871 -0.05070 0.00000
vn -0.24639 0.87015 0.42677
vn -0.42677 0.87015 0.24640
vn -0.24639 0.87015 0.42677
vn -0.42677 0.87015 0.24640
vn 0.00000 0.87015 0.49279
vn -0.24639 0.87015 -0.42677
vn 0.00000 0.87015 -0.49279
vn -0.24639 0.87015 -0.42677
vn 0.24639 0.87015 -0.42677
vn 0.00000 0.87015 -0.49279
vn -0.42677 0.87015 -0.24640
vn 0.24640 0.87015 -0.42677
vn 0.42677 0.87015 -0.24640
vn 0.24640 0.87015 0.42677
vn 0.42677 0.87014 0.24640
vn 0.42677 0.87014 0.24640
vn 0.24640 0.87015 0.42677
vn 0.00000 0.87015 0.49279
vn 0.42677 0.87015 -0.24640
vn 0.49279 0.87015 0.00000
vn 0.49279 0.87015 0.00000
vn -0.86491 -0.05070 -0.49936
vn -0.99871 -0.05071 0.00000
vn -0.86603 -0.00000 -0.50000
vn -0.50000 -0.00000 -0.86603
vn -0.86603 -0.00000 -0.50000
vn -1.00000 0.00000 0.00000
vn -0.50000 0.00000 0.86603
vn -0.86603 0.00000 0.50000
vn -0.50000 0.00000 0.86603
vn -0.00000 0.00000 1.00000
vn 0.86603 0.00000 0.50000
vn 0.50000 0.00000 0.86603
vn 0.86603 0.00000 0.50000
vn 1.00000 0.00000 0.00000
vn -0.00000 -0.00000 -1.00000
vn -0.50000 -0.00000 -0.86603
vn 0.50000 -0.00000 -0.86603
vn -0.00000 -0.00000 -1.00000
vn 0.86603 -0.00000 -0.50000
vn 0.50000 -0.00000 -0.86603
vn -1.00000 0.00000 0.00000
vn -0.86603 0.00000 0.50000
vn -0.00000 0.00000 1.00000
vn 0.50000 0.00000 0.86603
vn -0.49279 0.87015 -0.00000
vn -0.49279 0.87015 -0.00000
vn -0.42677 0.87015 -0.24640
vn 0.76537 -0.64359 0.00000
vn 0.66283 -0.64359 -0.38269
vn 0.76537 -0.64359 0.00000
vn 0.66284 -0.64358 0.38269
vn -0.66283 -0.64359 -0.38268
vn -0.38269 -0.64359 -0.66283
vn -0.66283 -0.64359 -0.38268
vn -0.76537 -0.64359 0.00000
vn -0.38268 -0.64359 -0.66283
vn -0.38268 -0.64359 0.66283
vn -0.00000 -0.64359 0.76537
vn -0.38269 -0.64359 0.66283
vn -0.66283 -0.64359 0.38268
vn 0.66283 -0.64358 0.38269
vn 0.38269 -0.64359 0.66283
vn 0.00000 -0.64359 -0.76537
vn 0.38269 -0.64359 -0.66283
vn 0.00000 -0.64359 -0.76537
vn 0.38268 -0.64359 -0.66283
vn 0.66283 -0.64359 -0.38268
vn -0.66283 -0.64359 0.38268
vn -0.76537 -0.64359 0.00000
vn 1.00000 0.00000 0.00000
vn 0.86603 -0.00000 -0.50000
vn 1.00000 -0.00000 0.00000
vn 0.86603 -0.00000 -0.50000
vn 1.00000 -0.00000 0.00000
vn 0.86603 -0.00000 0.50000
vn -0.86603 -0.00000 -0.50000
vn -1.00000 -0.00000 -0.00000
vn -0.86603 -0.00000 -0.50000
vn -0.50000 -0.00000 -0.86603
vn -0.50000 0.00000 0.86602
vn -0.86603 0.00000 0.50000
vn -0.50000 0.00000 0.86602
vn 0.00000 -0.00000 1.00000
vn 0.86603 -0.00000 0.50000
vn 0.50000 -0.00000 0.86603
vn -0.50000 -0.00000 -0.86603
vn 0.00000 -0.00000 -1.00000
vn 0.50000 -0.00000 -0.86603
vn 0.00000 -0.00000 -1.00000
vn 0.86603 -0.00000 -0.50000
vn 0.50000 -0.00000 -0.86603
vn -0.86603 0.00000 0.50000
vn -1.00000 -0.00000 -0.00000
vn 0.38269 -0.64359 0.66283
vn -0.00000 -0.64359 0.76537
vn 0.59966 0.72149 -0.34621
vn 0.69243 0.72149 0.00000
vn 0.59966 0.72149 -0.34621
vn 0.34621 0.72149 -0.59966
vn -0.59966 0.72149 -0.34621
vn -0.34621 0.72149 -0.59966
vn -0.59966 0.72149 -0.34621
vn -0.69243 0.72148 -0.00000
vn -0.69243 0.72148 -0.00000
vn -0.34621 0.72149 -0.59966
vn 0.00000 0.72149 -0.69243
vn 0.00000 0.72149 -0.69243
vn 0.34621 0.72149 -0.59966
vn -0.59966 0.72149 0.34621
vn -0.59966 0.72149 0.34621
vn -0.34621 0.72149 0.59966
vn -0.34621 0.72149 0.59966
vn -0.00000 0.72149 0.69243
vn -0.00000 0.72149 0.69243
vn 0.34621 0.72149 0.59966
vn 0.34621 0.72149 0.59966
vn 0.59966 0.72149 0.34621
vn 0.59966 0.72149 0.34621
vn 0.00000 -0.00000 1.00000
vn 0.50000 -0.00000 0.86603
vn 0.69243 0.72149 0.00000
vn 0.49977 0.03005 -0.86563
vn -0.00000 0.03005 -0.99955
vn -0.00000 0.03005 -0.99955
vn 0.86563 0.03005 -0.49977
vn 0.49977 0.03005 -0.86563
vn 0.86563 0.03005 -0.49977
vn 0.99955 0.03005 0.00000
vn 0.99955 0.03005 0.00000
vn 0.86563 0.03005 0.49977
vn 0.86563 0.03005 0.49977
vn 0.49978 0.03005 0.86563
vn 0.49978 0.03005 0.86563
vn -0.00000 0.03005 0.99955
vn -0.00000 0.03005 0.99955
vn -0.49977 0.03005 0.86563
vn -0.49977 0.03005 0.86563
vn -0.86563 0.03005 0.49977
vn -0.86563 0.03005 0.49977
vn -0.99955 0.03005 0.00000
vn -0.99955 0.03005 0.00000
vn -0.86563 0.03005 -0.49977
vn -0.86563 0.03005 -0.49977
vn -0.49977 0.03005 -0.86563
vn -0.49977 0.03005 -0.86563
vn 0.88934 -0.45724 0.00000
vn 0.88934 -0.45724 0.00000
vn 0.88934 -0.45724 0.00000
vn 0.88934 -0.45724 0.00000
vn -0.88934 -0.45725 0.00000
vn -0.88934 -0.45725 0.00000
vn -0.88934 -0.45725 0.00000
vn -0.88934 -0.45725 0.00000
vn 0.00000 -0.45724 0.88934
vn 0.00000 -0.45724 0.88934
vn 0.00000 -0.45724 0.88934
vn 0.00000 -0.45724 0.88934
vn 0.00000 -0.45724 -0.88934
vn 0.00000 -0.45724 -0.88934
vn 0.00000 -0.45724 -0.88934
vn 0.00000 -0.45724 -0.88934
vn 0.00000 -1.00000 0.00000
vn 0.00000 -1.00000 0.00000
vn 0.00000 -1.00000 0.00000
vn 0.00000 -1.00000 0.00000
vn 0.00000 1.00000 -0.00000
vn 0.00000 1.00000 -0.00000
vn 0.00000 1.00000 -0.00000
vn 0.00000 1.00000 -0.00000
vn 0.00000 -0.29789 -0.95460
vn 0.00000 -0.13536 -0.99080
vn 0.00000 -0.29789 -0.95460
vn 0.00000 -1.00000 0.00000
vn 0.00000 -1.00000 0.00000
vn 0.00000 -1.00000 0.00000
vn 0.00000 -1.00000 0.00000
vn 0.00000 -0.13536 -0.99080
vn 0.00000 -0.00000 -1.00000
vn 0.00000 -0.00000 -1.00000
vn 0.00000 -0.13536 0.99080
vn 0.00000 -0.29789 0.95460
vn 0.00000 -0.29789 0.95460
vn 0.00000 -0.13536 0.99080
vn 0.00000 0.00000 1.00000
vn 0.00000 0.00000 1.00000
vn 0.99080 -0.13534 0.00000
vn 0.95461 -0.29786 0.00000
vn 0.95461 -0.29786 0.00000
vn 0.99080 -0.13534 0.00000
vn 1.00000 0.00000 0.00000
vn 1.00000 0.00000 0.00000
vn -1.00000 0.00000 0.00000
vn -1.00000 0.00000 0.00000
vn -0.99080 -0.13536 0.00000
vn -0.99080 -0.13536 0.00000
vn 0.00000 1.00000 -0.00000
vn 0.00000 1.00000 -0.00000
vn 0.00000 1.00000 -0.00000
vn 0.00000 1.00000 -0.00000
vn -0.95460 -0.29790 0.00000
vn -0.95460 -0.29790 0.00000
vn 0.00000 0.00000 1.00000
vn 0.00000 0.00000 1.00000
vn 0.00000 0.00000 1.00000
vn 0.00000 0.00000 1.00000
vn 0.00000 -0.00000 -1.00000
vn 0.00000 -0.00000 -1.00000
vn 0.00000 -0.00000 -1.00000
vn 0.00000 -0.00000 -1.00000
vn -1.00000 0.00000 0.00000
vn -1.00000 0.00000 0.00000
vn -1.00000 0.00000 0.00000
vn -1.00000 0.00000 0.00000
vn 1.00000 0.00000 0.00000
vn 1.00000 0.00000 0.00000
vn 1.00000 0.00000 0.00000
vn 1.00000 0.00000 0.00000
vn 0.00000 -1.00000 0.00000
vn 0.00000 -1.00000 0.00000
vn 0.00000 -1.00000 0.00000
vn 0.00000 -1.00000 0.00000
vn 0.00000 1.00000 -0.00000
vn 0.00000 1.00000 -0.00000
vn 0.00000 1.00000 -0.00000
vn 0.00000 1.00000 -0.00000
vn 0.00000 -1.00000 0.00000
vn 0.00000 -1.00000 0.00000
vn 0.00000 -1.00000 0.00000
vn 0.00000 -1.00000 0.00000
vn 1.00000 0.00000 0.00000
vn 1.00000 0.00000 0.00000
vn 1.00000 0.00000 0.00000
vn 1.00000 0.00000 0.00000
vn 0.00000 -0.00000 -1.00000
vn 0.00000 -0.00000 -1.00000
vn 0.00000 -0.00000 -1.00000
vn 0.00000 -0.00000 -1.00000
vn -1.00000 0.00000 0.00000
vn -1.00000 0.00000 0.00000
vn -1.00000 0.00000 0.00000
vn -1.00000 0.00000 0.00000
vn 0.00000 0.00000 1.00000
vn 0.00000 0.00000 1.00000
vn 0.00000 0.00000 1.00000
vn 0.00000 0.00000 1.00000
vn 0.00000 1.00000 -0.00000
vn 0.00000 1.00000 -0.00000
vn 0.00000 1.00000 -0.00000
vn 0.00000 1.00000 -0.00000
vn 0.99080 0.13534 -0.00000
vn 1.00000 0.00000 0.00000
vn 1.00000 0.00000 0.00000
vn 0.99080 0.13534 -0.00000
vn 0.95461 0.29786 -0.00000
vn 0.95461 0.29786 -0.00000
vn 0.00000 0.29789 -0.95460
vn 0.00000 0.13536 -0.99080
vn 0.00000 0.13535 -0.99080
vn 0.00000 0.29789 0.95460
vn 0.00000 0.13536 0.99080
vn 0.00000 0.29789 0.95460
vn 0.00000 1.00000 -0.00000
vn 0.00000 1.00000 -0.00000
vn 0.00000 1.00000 -0.00000
vn 0.00000 1.00000 -0.00000
vn 0.00000 -0.00000 -1.00000
vn 0.00000 0.29789 -0.95460
vn 0.00000 -0.00000 -1.00000
vn 0.00000 0.13535 0.99080
vn 0.00000 0.00000 1.00000
vn 0.00000 0.00000 1.00000
vn -1.00000 0.00000 0.00000
vn -1.00000 0.00000 0.00000
vn -0.99080 0.13536 -0.00000
vn 0.00000 -1.00000 0.00000
vn 0.00000 -1.00000 0.00000
vn 0.00000 -1.00000 0.00000
vn 0.00000 -1.00000 0.00000
vn -0.95460 0.29790 -0.00000
vn -0.99080 0.13536 -0.00000
vn -0.95460 0.29790 -0.00000
vn 0.00000 0.00000 1.00000
vn 0.00000 0.00000 1.00000
vn 0.00000 0.00000 1.00000
vn 0.00000 0.00000 1.00000
vn 0.00000 -0.00000 -1.00000
vn 0.00000 -0.00000 -1.00000
vn 0.00000 -0.00000 -1.00000
vn 0.00000 -0.00000 -1.00000
vn -1.00000 0.00000 0.00000
vn -1.00000 0.00000 0.00000
vn -1.00000 0.00000 0.00000
vn -1.00000 0.00000 0.00000
vn 1.00000 0.00000 0.00000
vn 1.00000 0.00000 0.00000
vn 1.00000 0.00000 0.00000
vn 1.00000 0.00000 0.00000
vn 0.00000 1.00000 -0.00000
vn 0.00000 1.00000 -0.00000
vn 0.00000 1.00000 -0.00000
vn 0.00000 1.00000 -0.00000
vn 0.00000 -1.00000 0.00000
vn 0.00000 -1.00000 0.00000
vn 0.00000 -1.00000 0.00000
vn 0.00000 -1.00000 0.00000
vn -0.88934 0.45725 -0.00000
vn -0.88934 0.45725 -0.00000
vn -0.88934 0.45725 -0.00000
vn -0.88934 0.45725 -0.00000
vn 0.88934 0.45724 -0.00000
vn 0.88934 0.45724 -0.00000
vn 0.88934 0.45724 -0.00000
vn 0.88934 0.45724 -0.00000
vn 0.00000 0.45724 0.88934
vn 0.00000 0.45724 0.88934
vn 0.00000 0.45724 0.88934
vn 0.00000 0.45724 0.88934
vn 0.00000 0.45724 -0.88934
vn 0.00000 0.45724 -0.88934
vn 0.00000 0.45724 -0.88934
vn 0.00000 0.45724 -0.88934
vn 0.00000 1.00000 -0.00000
vn 0.00000 1.00000 -0.00000
vn 0.00000 1.00000 -0.00000
vn 0.00000 1.00000 -0.00000
vn 0.00000 -1.00000 0.00000
vn 0.00000 -1.00000 0.00000
vn 0.00000 -1.00000 0.00000
vn 0.00000 -1.00000 0.00000
vn 0.00000 1.00000 -0.00000
vn 0.00000 1.00000 -0.00000
vn 0.00000 1.00000 -0.00000
vn 0.00000 1.00000 -0.00000
vn 1.00000 0.00000 0.00000
vn 1.00000 0.00000 0.00000
vn 1.00000 0.00000 0.00000
vn 1.00000 0.00000 0.00000
vn 0.00000 -0.00000 -1.00000
vn 0.00000 -0.00000 -1.00000
vn 0.00000 -0.00000 -1.00000
vn 0.00000 -0.00000 -1.00000
vn -1.00000 0.00000 0.00000
vn -1.00000 0.00000 0.00000
vn -1.00000 0.00000 0.00000
vn -1.00000 0.00000 0.00000
vn 0.00000 0.00000 1.00000
vn 0.00000 0.00000 1.00000
vn 0.00000 0.00000 1.00000
vn 0.00000 0.00000 1.00000
vn 0.00000 -1.00000 0.00000
vn 0.00000 -1.00000 0.00000
vn 0.00000 -1.00000 0.00000
vn 0.00000 -1.00000 0.00000
vn 0.00000 -0.63022 -0.77641
vn 0.00000 -0.63022 -0.77641
vn 0.00000 -0.63022 -0.77641
vn 0.00000 -0.63022 -0.77641
vn 0.65626 -0.00000 -0.75453
vn 0.65626 -0.00000 -0.75453
vn 0.65626 -0.00000 -0.75453
vn 0.65626 -0.00000 -0.75453
vn 0.00000 0.63023 -0.77641
vn 0.00000 0.63023 -0.77641
vn 0.00000 0.63023 -0.77641
vn 0.00000 0.63023 -0.77641
vn 0.00000 -0.00000 -1.00000
vn 0.00000 -0.00000 -1.00000
vn 0.00000 -0.00000 -1.00000
vn 0.00000 -0.00000 -1.00000
vn 0.00000 -0.00000 -1.00000
vn 0.00000 -0.00000 -1.00000
vn 0.00000 -0.00000 -1.00000
vn 0.00000 -0.00000 -1.00000
vn 0.00000 -0.00000 -1.00000
vn 0.00000 -0.00000 -1.00000
vn -0.65628 -0.00000 -0.75452
vn -0.65628 -0.00000 -0.75452
vn -0.65628 -0.00000 -0.75452
vn -0.65628 -0.00000 -0.75452
vn 0.65483 -0.00000 -0.75578
vn 0.65483 -0.00000 -0.75578
vn 0.65483 -0.00000 -0.75578
vn 0.65483 -0.00000 -0.75578
vn 0.00000 0.69267 -0.72125
vn 0.00000 0.69267 -0.72125
vn 0.00000 0.69267 -0.72125
vn 0.00000 0.69267 -0.72125
vn -0.65483 -0.00000 -0.75578
vn -0.65483 -0.00000 -0.75578
vn -0.65483 -0.00000 -0.75578
vn -0.65483 -0.00000 -0.75578
vn 0.00000 -0.00000 -1.00000
vn -0.00000 -0.00000 -1.00000
vn 0.00000 -0.00000 -1.00000
vn -0.00000 -0.00000 -1.00000
vn -0.00000 -0.00000 -1.00000
vn -0.00000 -0.00000 -1.00000
vn 0.00000 -0.00000 -1.00000
vn 0.00000 -0.00000 -1.00000
vn 0.00000 -0.00000 -1.00000
vn 0.00000 -0.00000 -1.00000
vn 0.00000 -0.00000 -1.00000
vn 0.00000 -0.00000 -1.00000
vn 0.00000 -0.69267 -0.72125
vn 0.00000 -0.69267 -0.72125
vn 0.00000 -0.69267 -0.72125
vn 0.00000 -0.69267 -0.72125
vn 0.00000 -0.00000 -1.00000
vn 0.00000 -0.00000 -1.00000
vn 0.77640 -0.63024 0.00000
vn 0.77640 -0.63024 0.00000
vn 0.77640 -0.63024 0.00000
vn 0.77640 -0.63024 0.00000
vn 0.75451 -0.00000 -0.65629
vn 0.75451 -0.00000 -0.65629
vn 0.75451 -0.00000 -0.65629
vn 0.75451 -0.00000 -0.65629
vn 0.77640 0.63024 -0.00000
vn 0.77640 0.63024 -0.00000
vn 0.77640 0.63024 -0.00000
vn 0.77640 0.63024 -0.00000
vn 1.00000 0.00000 0.00000
vn 1.00000 0.00000 0.00000
vn 1.00000 0.00000 0.00000
vn 1.00000 0.00000 0.00000
vn 1.00000 0.00000 0.00000
vn 1.00000 0.00000 0.00000
vn 1.00000 0.00000 0.00000
vn 1.00000 0.00000 0.00000
vn 1.00000 0.00000 0.00000
vn 1.00000 0.00000 0.00000
vn 0.75451 0.00000 0.65629
vn 0.75451 0.00000 0.65629
vn 0.75451 0.00000 0.65629
vn 0.75451 0.00000 0.65629
vn 0.75577 -0.00000 -0.65483
vn 0.75577 -0.00000 -0.65483
vn 0.75577 -0.00000 -0.65483
vn 0.75577 -0.00000 -0.65483
vn 0.72125 0.69267 -0.00000
vn 0.72125 0.69267 -0.00000
vn 0.72125 0.69267 -0.00000
vn 0.72125 0.69267 -0.00000
vn 0.75577 0.00000 0.65483
vn 0.75577 0.00000 0.65483
vn 0.75577 0.00000 0.65483
vn 0.75577 0.00000 0.65483
vn 1.00000 0.00000 0.00000
vn 1.00000 -0.00000 -0.00000
vn 1.00000 -0.00000 -0.00000
vn 1.00000 0.00000 0.00000
vn 1.00000 0.00000 0.00000
vn 1.00000 0.00000 0.00000
vn 1.00000 0.00000 0.00000
vn 1.00000 0.00000 0.00000
vn 1.00000 0.00000 0.00000
vn 1.00000 0.00000 0.00000
vn 1.00000 -0.00000 -0.00000
vn 1.00000 -0.00000 -0.00000
vn 0.72125 -0.69267 0.00000
vn 0.72125 -0.69267 0.00000
vn 0.72125 -0.69267 0.00000
vn 0.72125 -0.69267 0.00000
vn 1.00000 0.00000 0.00000
vn 1.00000 0.00000 0.00000
vn -0.77642 -0.63021 0.00000
vn -0.77642 -0.63021 0.00000
vn -0.77642 -0.63021 0.00000
vn -0.77642 -0.63021 0.00000
vn -0.75454 0.00000 0.65626
vn -0.75454 0.00000 0.65626
vn -0.75454 0.00000 0.65626
vn -0.75454 0.00000 0.65626
vn -0.77642 0.63021 -0.00000
vn -0.77642 0.63021 -0.00000
vn -0.77642 0.63021 -0.00000
vn -0.77642 0.63021 -0.00000
vn -1.00000 0.00000 0.00000
vn -1.00000 0.00000 0.00000
vn -1.00000 0.00000 0.00000
vn -1.00000 0.00000 0.00000
vn -1.00000 0.00000 0.00000
vn -1.00000 0.00000 0.00000
vn -1.00000 0.00000 0.00000
vn -1.00000 0.00000 0.00000
vn -1.00000 0.00000 0.00000
vn -1.00000 0.00000 0.00000
vn -1.00000 0.00000 0.00000
vn -1.00000 0.00000 0.00000
vn -0.75454 -0.00000 -0.65626
vn -0.75454 -0.00000 -0.65626
vn -0.75454 -0.00000 -0.65626
vn -0.75454 -0.00000 -0.65626
vn -0.75577 0.00000 0.65483
vn -0.75577 0.00000 0.65483
vn -0.75577 0.00000 0.65483
vn -0.75577 0.00000 0.65483
vn -0.72125 0.69267 -0.00000
vn -0.72125 0.69267 -0.00000
vn -0.72125 0.69267 -0.00000
vn -0.72125 0.69267 -0.00000
vn -0.75577 -0.00000 -0.65483
vn -0.75577 -0.00000 -0.65483
vn -0.75577 -0.00000 -0.65483
vn -0.75577 -0.00000 -0.65483
vn -1.00000 -0.00000 -0.00000
vn -1.00000 -0.00000 -0.00000
vn -1.00000 -0.00000 -0.00000
vn -1.00000 -0.00000 -0.00000
vn -1.00000 0.00000 0.00000
vn -1.00000 0.00000 0.00000
vn -1.00000 0.00000 0.00000
vn -1.00000 0.00000 0.00000
vn -1.00000 0.00000 0.00000
vn -1.00000 0.00000 0.00000
vn -1.00000 0.00000 0.00000
vn -1.00000 0.00000 0.00000
vn -0.72125 -0.69267 0.00000
vn -0.72125 -0.69267 0.00000
vn -0.72125 -0.69267 0.00000
vn -0.72125 -0.69267 0.00000
vn 0.00000 -0.63022 0.77641
vn 0.00000 -0.63022 0.77641
vn 0.00000 -0.63022 0.77641
vn 0.00000 -0.63022 0.77641
vn -0.65628 0.00000 0.75452
vn -0.65628 0.00000 0.75452
vn -0.65628 0.00000 0.75452
vn -0.65628 0.00000 0.75452
vn 0.00000 0.63023 0.77641
vn 0.00000 0.63023 0.77641
vn 0.00000 0.63023 0.77641
vn 0.00000 0.63023 0.77641
vn 0.00000 0.00000 1.00000
vn 0.00000 0.00000 1.00000
vn 0.00000 0.00000 1.00000
vn 0.00000 0.00000 1.00000
vn 0.00000 0.00000 1.00000
vn 0.00000 0.00000 1.00000
vn 0.00000 0.00000 1.00000
vn 0.00000 0.00000 1.00000
vn 0.00000 0.00000 1.00000
vn 0.00000 0.00000 1.00000
vn 0.65626 0.00000 0.75453
vn 0.65626 0.00000 0.75453
vn 0.65626 0.00000 0.75453
vn 0.65626 0.00000 0.75453
vn -0.65483 0.00000 0.75578
vn -0.65483 0.00000 0.75578
vn -0.65483 0.00000 0.75578
vn -0.65483 0.00000 0.75578
vn 0.00000 0.69267 0.72125
vn 0.00000 0.69267 0.72125
vn 0.00000 0.69267 0.72125
vn 0.00000 0.69267 0.72125
vn 0.65483 0.00000 0.75578
vn 0.65483 0.00000 0.75578
vn 0.65483 0.00000 0.75578
vn 0.65483 0.00000 0.75578
vn 0.00000 0.00000 1.00000
vn 0.00000 0.00000 1.00000
vn 0.00000 0.00000 1.00000
vn 0.00000 0.00000 1.00000
vn 0.00000 0.00000 1.00000
vn 0.00000 0.00000 1.00000
vn 0.00000 0.00000 1.00000
vn -0.00000 0.00000 1.00000
vn 0.00000 0.00000 1.00000
vn -0.00000 0.00000 1.00000
vn -0.00000 0.00000 1.00000
vn -0.00000 0.00000 1.00000
vn 0.00000 -0.69267 0.72125
vn 0.00000 -0.69267 0.72125
vn 0.00000 -0.69267 0.72125
vn 0.00000 -0.69267 0.72125
vn 0.00000 0.00000 1.00000
vn 0.00000 0.00000 1.00000
vn 0.72318 -0.69066 0.00000
vn 0.72318 -0.69066 0.00000
vn 0.76383 -0.64541 0.00000
vn 0.00000 0.54265 0.83996
vn 0.00000 0.70038 0.71377
vn 0.00000 0.70038 0.71377
vn 0.00000 0.54265 0.83996
vn 0.00000 0.30519 0.95229
vn 0.00000 0.30519 0.95229
vn 0.00000 0.08679 0.99623
vn -0.83996 0.54265 -0.00000
vn -0.71377 0.70038 -0.00000
vn -0.83996 0.54265 -0.00000
vn -0.95229 0.30519 -0.00000
vn -0.95229 0.30519 -0.00000
vn -0.99623 0.08679 -0.00000
vn 0.00000 0.54265 -0.83996
vn 0.00000 0.70038 -0.71377
vn 0.00000 0.54265 -0.83996
vn 0.00000 0.30519 -0.95229
vn 0.00000 0.30519 -0.95229
vn 0.00000 0.08679 -0.99623
vn 0.83996 0.54265 -0.00000
vn 0.71377 0.70038 -0.00000
vn 0.83996 0.54265 -0.00000
vn 0.95229 0.30518 -0.00000
vn 0.95229 0.30518 -0.00000
vn 0.99623 0.08679 -0.00000
vn 0.00000 -0.00736 0.99997
vn 0.00000 -0.00736 0.99997
vn 0.00000 -0.16136 0.98690
vn 0.00000 -0.16136 0.98690
vn 0.00000 -0.45153 0.89226
vn 0.00000 -0.45153 0.89226
vn 0.00000 -0.64541 0.76383
vn -0.99997 -0.00736 0.00000
vn -0.99997 -0.00736 0.00000
vn -0.98690 -0.16136 0.00000
vn -0.98690 -0.16136 0.00000
vn -0.89226 -0.45153 0.00000
vn -0.89226 -0.45153 0.00000
vn -0.76383 -0.64542 0.00000
vn 0.00000 -0.00736 -0.99997
vn 0.00000 -0.00736 -0.99997
vn 0.00000 -0.16136 -0.98690
vn 0.00000 -0.16136 -0.98690
vn 0.00000 -0.45153 -0.89226
vn 0.00000 -0.45153 -0.89226
vn 0.00000 -0.64542 -0.76383
vn 0.00000 -0.64542 -0.76383
vn 0.99997 -0.00736 0.00000
vn 0.99997 -0.00736 0.00000
vn 0.98690 -0.16135 0.00000
vn 0.98690 -0.16135 0.00000
vn 0.89226 -0.45153 0.00000
vn 0.76383 -0.64541 0.00000
vn 0.89226 -0.45153 0.00000
vn 0.00000 0.70038 -0.71377
vn 0.00000 0.73672 -0.67620
vn 0.00000 0.73672 -0.67620
vn 0.00000 0.73672 0.67620
vn 0.00000 0.73672 0.67620
vn 0.71377 0.70038 -0.00000
vn 0.67620 0.73672 -0.00000
vn 0.67620 0.73672 -0.00000
vn 0.00000 0.08679 -0.99623
vn 0.00000 -0.00000 -1.00000
vn 0.00000 -0.00000 -1.00000
vn 0.00000 0.08679 0.99623
vn 0.00000 0.00000 1.00000
vn 0.00000 0.00000 1.00000
vn -0.99623 0.08679 -0.00000
vn -1.00000 0.00000 0.00000
vn -1.00000 0.00000 0.00000
vn 1.00000 0.00000 0.00000
vn 1.00000 0.00000 0.00000
vn 1.00000 0.00000 0.00000
vn 1.00000 0.00000 0.00000
vn -1.00000 0.00000 0.00000
vn -1.00000 0.00000 0.00000
vn -1.00000 0.00000 0.00000
vn -1.00000 0.00000 0.00000
vn 0.00000 -0.00000 -1.00000
vn 0.00000 -0.00000 -1.00000
vn 0.00000 -0.00000 -1.00000
vn 0.00000 -0.00000 -1.00000
vn -0.71377 0.70038 -0.00000
vn -0.67619 0.73672 -0.00000
vn -0.67619 0.73672 -0.00000
vn 0.00000 0.00000 1.00000
vn 0.00000 0.00000 1.00000
vn 0.00000 0.00000 1.00000
vn 0.00000 0.00000 1.00000
vn 0.00000 -0.69067 -0.72317
vn 0.00000 -0.69067 -0.72317
vn 0.00000 -0.64541 0.76383
vn 0.00000 -0.69067 0.72317
vn 0.00000 -0.69067 0.72317
vn -0.76383 -0.64542 0.00000
vn -0.72317 -0.69067 0.00000
vn -0.72317 -0.69067 0.00000
vn 0.99623 0.08679 -0.00000
vn 1.00000 0.00000 0.00000
vn 1.00000 0.00000 0.00000
g Main
usemtl Main
f 1/1/1 2/2/2 3/3/3
f 1/1/1 4/4/4 2/2/2
f 5/5/5 6/6/6 7/7/7
f 5/5/5 8/8/8 6/6/6
f 9/9/9 10/10/10 11/11/11
f 10/10/10 9/9/9 12/12/12
f 13/13/13 14/14/14 15/15/15
f 14/14/14 13/13/13 16/16/16
f 17/17/17 18/18/18 19/19/19
f 20/20/20 17/17/17 19/19/19
f 21/21/21 22/22/22 23/23/23
f 21/21/21 24/24/24 22/22/22
f 25/25/25 26/26/26 27/27/27
f 28/28/28 29/29/29 30/30/30
f 31/31/31 32/32/32 33/33/33
f 34/34/34 35/35/35 36/36/36
f 34/34/34 37/37/37 35/35/35
f 26/26/26 25/25/25 38/38/38
f 26/26/26 39/39/39 27/27/27
f 39/39/39 26/26/26 40/40/40
f 41/41/41 30/30/30 29/29/29
f 41/41/41 42/42/42 30/30/30
f 42/42/42 41/41/41 43/43/43
f 44/44/44 33/33/33 32/32/32
f 44/44/44 45/45/45 33/33/33
f 45/45/45 44/44/44 46/46/46
f 47/47/47 48/48/48 49/49/49
f 50/50/50 51/51/51 52/52/52
f 53/53/53 50/50/50 52/52/52
f 48/48/48 47/47/47 54/54/54
f 48/48/48 54/54/54 55/55/55
f 56/56/56 55/55/55 54/54/54
f 57/57/57 58/58/58 59/59/59
f 60/60/60 58/58/58 57/57/57
f 61/61/61 62/62/62 63/63/63
f 61/61/61 64/64/64 62/62/62
f 65/65/65 66/66/66 67/67/67
f 65/65/65 68/68/68 66/66/66
f 69/69/69 70/70/70 71/71/71
f 69/69/69 72/72/72 70/70/70
f 73/73/73 74/74/74 75/75/75
f 73/73/73 76/76/76 74/74/74
f 77/77/77 78/78/78 79/79/79
f 80/80/80 77/77/77 79/79/79
f 81/81/81 82/82/82 83/83/83
f 82/82/82 81/81/81 84/84/84
f 85/85/85 86/86/86 87/87/87
f 88/88/88 89/89/89 90/90/90
f 91/91/91 88/88/88 92/92/92
f 92/92/92 88/88/88 93/93/93
f 92/92/92 94/94/94 95/95/95
f 96/96/96 97/97/97 98/98/98
f 96/96/96 98/98/98 99/99/99
f 99/99/99 100/100/100 101/101/101
f 99/99/99 98/98/98 100/100/100
f 102/102/102 103/103/103 104/104/104
f 102/102/102 105/105/105 106/106/106
f 103/103/103 102/102/102 106/106/106
f 104/104/104 103/103/103 107/107/107
f 108/108/108 109/109/109 110/110/110
f 108/108/108 110/110/110 111/111/111
f 111/111/111 110/110/110 112/112/112
f 111/111/111 112/112/112 113/113/113
f 114/114/114 115/115/115 116/116/116
f 117/117/117 116/116/116 115/115/115
f 116/116/116 118/118/118 119/119/119
f 118/118/118 120/120/120 119/119/119
f 118/118/118 116/116/116 117/117/117
f 121/121/121 122/122/122 123/123/123
f 124/124/124 123/123/123 122/122/122
f 123/123/123 124/124/124 125/125/125
f 126/126/126 125/125/125 124/124/124
f 126/126/126 127/127/127 125/125/125
f 128/128/128 129/129/129 130/130/130
f 129/129/129 128/128/128 131/131/131
f 130/130/130 129/129/129 132/132/132
f 133/133/133 132/132/132 129/129/129
f 132/132/132 134/134/134 135/135/135
f 136/136/136 137/137/137 138/138/138
f 137/137/137 136/136/136 139/139/139
f 138/138/138 137/137/137 140/140/140
f 87/87/87 86/86/86 141/141/141
f 87/87/87 141/141/141 142/142/142
f 142/142/142 141/141/141 140/140/140
f 142/142/142 140/140/140 137/137/137
f 143/143/143 105/105/105 102/102/102
f 144/144/144 105/105/105 143/143/143
f 105/105/105 144/144/144 145/145/145
f 89/89/89 146/146/146 90/90/90
f 89/89/89 88/88/88 91/91/91
f 146/146/146 89/89/89 147/147/147
f 148/148/148 109/109/109 108/108/108
f 149/149/149 109/109/109 148/148/148
f 109/109/109 149/149/149 150/150/150
f 151/151/151 152/152/152 107/107/107
f 151/151/151 107/107/107 103/103/103
f 152/152/152 151/151/151 153/153/153
f 94/94/94 154/154/154 95/95/95
f 94/94/94 92/92/92 93/93/93
f 154/154/154 94/94/94 155/155/155
f 156/156/156 157/157/157 101/101/101
f 156/156/156 101/101/101 100/100/100
f 157/157/157 156/156/156 158/158/158
f 159/159/159 160/160/160 161/161/161
f 160/160/160 159/159/159 162/162/162
f 163/163/163 164/164/164 165/165/165
f 164/164/164 163/163/163 166/166/166
f 167/167/167 168/168/168 169/169/169
f 168/168/168 167/167/167 170/170/170
f 171/171/171 172/172/172 97/97/97
f 171/171/171 97/97/97 96/96/96
f 173/173/173 172/172/172 171/171/171
f 174/174/174 175/175/175 176/176/176
f 175/175/175 174/174/174 177/177/177
f 134/134/134 132/132/132 133/133/133
f 134/134/134 178/178/178 135/135/135
f 179/179/179 178/178/178 134/134/134
f 180/180/180 120/120/120 118/118/118
f 120/120/120 181/181/181 182/182/182
f 181/181/181 120/120/120 180/180/180
f 183/183/183 127/127/127 126/126/126
f 127/127/127 184/184/184 185/185/185
f 184/184/184 127/127/127 183/183/183
f 186/186/186 187/187/187 113/113/113
f 186/186/186 113/113/113 112/112/112
f 187/187/187 186/186/186 188/188/188
f 189/189/189 190/190/190 191/191/191
f 190/190/190 189/189/189 192/192/192
f 193/193/193 194/194/194 195/195/195
f 194/194/194 193/193/193 196/196/196
f 197/197/197 198/198/198 199/199/199
f 198/198/198 197/197/197 200/200/200
f 201/201/201 202/202/202 203/203/203
f 202/202/202 201/201/201 204/204/204
f 205/205/205 206/206/206 207/207/207
f 208/208/208 205/205/205 207/207/207
f 209/209/209 210/210/210 211/211/211
f 209/209/209 212/212/212 210/210/210
f 213/213/213 214/214/214 215/215/215
f 215/215/215 216/216/216 213/213/213
f 217/217/217 218/218/218 219/219/219
f 219/219/219 220/220/220 217/217/217
f 221/221/221 222/222/222 223/223/223
f 221/221/221 224/224/224 222/222/222
f 225/225/225 221/221/221 223/223/223
f 225/225/225 223/223/223 226/226/226
f 224/224/224 221/221/221 227/227/227
f 227/227/227 228/228/228 224/224/224
f 216/216/216 215/215/215 229/229/229
f 229/229/229 230/230/230 216/216/216
f 214/214/214 213/213/213 231/231/231
f 214/214/214 231/231/231 232/232/232
f 220/220/220 232/232/232 217/217/217
f 220/220/220 214/214/214 232/232/232
f 228/228/228 227/227/227 233/233/233
f 218/218/218 217/217/217 234/234/234
f 218/218/218 234/234/234 228/228/228
f 233/233/233 218/218/218 228/228/228
f 235/235/235 236/236/236 237/237/237
f 237/237/237 236/236/236 238/238/238
f 237/237/237 239/239/239 235/235/235
f 240/240/240 241/241/241 242/242/242
f 241/241/241 243/243/243 244/244/244
f 242/242/242 245/245/245 240/240/240
f 242/242/242 241/241/241 244/244/244
f 243/243/243 241/241/241 246/246/246
f 246/246/246 247/247/247 243/243/243
f 248/248/248 249/249/249 250/250/250
f 239/239/239 251/251/251 248/248/248
f 239/239/239 237/237/237 252/252/252
f 251/251/251 249/249/249 248/248/248
f 252/252/252 251/251/251 239/239/239
f 253/253/253 254/254/254 247/247/247
f 254/254/254 250/250/250 255/255/255
f 247/247/247 246/246/246 253/253/253
f 255/255/255 250/250/250 249/249/249
f 255/255/255 247/247/247 254/254/254
f 256/256/256 225/225/225 226/226/226
f 226/226/226 230/230/230 256/256/256
f 230/230/230 226/226/226 257/257/257
f 230/230/230 257/257/257 216/216/216
f 258/258/258 259/259/259 260/260/260
f 260/260/260 261/261/261 258/258/258
f 262/262/262 263/263/263 264/264/264
f 264/264/264 265/265/265 262/262/262
f 266/266/266 267/267/267 268/268/268
f 268/268/268 269/269/269 266/266/266
f 259/259/259 270/270/270 271/271/271
f 270/270/270 272/272/272 273/273/273
f 271/271/271 260/260/260 259/259/259
f 273/273/273 271/271/271 270/270/270
f 272/272/272 274/274/274 275/275/275
f 275/275/275 273/273/273 272/272/272
f 263/263/263 276/276/276 277/277/277
f 276/276/276 258/258/258 261/261/261
f 277/277/277 264/264/264 263/263/263
f 261/261/261 277/277/277 276/276/276
f 267/267/267 278/278/278 279/279/279
f 278/278/278 262/262/262 265/265/265
f 279/279/279 268/268/268 267/267/267
f 265/265/265 279/279/279 278/278/278
f 280/280/280 238/238/238 281/281/281
f 245/245/245 242/242/242 282/282/282
f 281/281/281 238/238/238 236/236/236
f 281/281/281 282/282/282 280/280/280
f 282/282/282 281/281/281 245/245/245
f 283/283/283 284/284/284 285/285/285
f 285/285/285 286/286/286 283/283/283
f 287/287/287 288/288/288 289/289/289
f 289/289/289 290/290/290 287/287/287
f 289/289/289 288/288/288 291/291/291
f 292/292/292 293/293/293 294/294/294
f 294/294/294 295/295/295 292/292/292
f 286/286/286 285/285/285 296/296/296
f 296/296/296 297/297/297 286/286/286
f 288/288/288 298/298/298 291/291/291
f 298/298/298 299/299/299 300/300/300
f 300/300/300 291/291/291 298/298/298
f 301/301/301 302/302/302 299/299/299
f 302/302/302 285/285/285 284/284/284
f 299/299/299 298/298/298 301/301/301
f 284/284/284 299/299/299 302/302/302
f 303/303/303 290/290/290 295/295/295
f 290/290/290 289/289/289 304/304/304
f 295/295/295 294/294/294 303/303/303
f 304/304/304 295/295/295 290/290/290
f 274/274/274 305/305/305 306/306/306
f 305/305/305 266/266/266 269/269/269
f 306/306/306 275/275/275 274/274/274
f 269/269/269 306/306/306 305/305/305
f 307/307/307 308/308/308 309/309/309
f 309/309/309 310/310/310 307/307/307
f 311/311/311 312/312/312 313/313/313
f 313/313/313 314/314/314 311/311/311
f 315/315/315 316/316/316 317/317/317
f 317/317/317 318/318/318 315/315/315
f 319/319/319 320/320/320 310/310/310
f 310/310/310 309/309/309 319/319/319
f 321/321/321 322/322/322 314/314/314
f 322/322/322 323/323/323 324/324/324
f 314/314/314 313/313/313 321/321/321
f 324/324/324 314/314/314 322/322/322
f 323/323/323 325/325/325 326/326/326
f 325/325/325 309/309/309 308/308/308
f 326/326/326 324/324/324 323/323/323
f 308/308/308 326/326/326 325/325/325
f 316/316/316 312/312/312 327/327/327
f 312/312/312 311/311/311 328/328/328
f 327/327/327 317/317/317 316/316/316
f 328/328/328 327/327/327 312/312/312
f 329/329/329 293/293/293 297/297/297
f 293/293/293 292/292/292 330/330/330
f 297/297/297 296/296/296 329/329/329
f 330/330/330 297/297/297 293/293/293
f 331/331/331 332/332/332 333/333/333
f 333/333/333 334/334/334 331/331/331
f 335/335/335 336/336/336 337/337/337
f 335/335/335 338/338/338 339/339/339
f 337/337/337 338/338/338 335/335/335
f 336/336/336 335/335/335 340/340/340
f 340/340/340 341/341/341 336/336/336
f 341/341/341 340/340/340 342/342/342
f 334/334/334 333/333/333 343/343/343
f 342/342/342 343/343/343 341/341/341
f 343/343/343 342/342/342 334/334/334
f 338/338/338 344/344/344 339/339/339
f 344/344/344 338/338/338 345/345/345
f 346/346/346 344/344/344 347/347/347
f 347/347/347 344/344/344 345/345/345
f 347/347/347 348/348/348 346/346/346
f 349/349/349 346/346/346 348/348/348
f 349/349/349 350/350/350 351/351/351
f 348/348/348 350/350/350 349/349/349
f 351/351/351 352/352/352 353/353/353
f 350/350/350 352/352/352 351/351/351
f 320/320/320 354/354/354 355/355/355
f 354/354/354 315/315/315 318/318/318
f 355/355/355 310/310/310 320/320/320
f 318/318/318 355/355/355 354/354/354
f 356/356/356 333/333/333 332/332/332
f 352/352/352 332/332/332 353/353/353
f 332/332/332 352/352/352 356/356/356
f 357/357/357 358/358/358 359/359/359
f 360/360/360 361/361/361 357/357/357
f 362/362/362 360/360/360 357/357/357
f 362/362/362 363/363/363 360/360/360
f 364/364/364 363/363/363 362/362/362
f 363/363/363 365/365/365 366/366/366
f 365/365/365 363/363/363 364/364/364
f 366/366/366 367/367/367 368/368/368
f 367/367/367 366/366/366 365/365/365
f 367/367/367 369/369/369 368/368/368
f 370/370/370 369/369/369 367/367/367
f 369/369/369 371/371/371 372/372/372
f 371/371/371 369/369/369 370/370/370
f 372/372/372 373/373/373 374/374/374
f 373/373/373 372/372/372 371/371/371
f 373/373/373 375/375/375 374/374/374
f 376/376/376 375/375/375 373/373/373
f 375/375/375 377/377/377 378/378/378
f 377/377/377 375/375/375 376/376/376
f 379/379/379 378/378/378 377/377/377
f 380/380/380 379/379/379 377/377/377
f 380/380/380 358/358/358 379/379/379
f 358/358/358 357/357/357 361/361/361
f 359/359/359 358/358/358 380/380/380
f 381/381/381 382/382/382 383/383/383
f 383/383/383 382/382/382 384/384/384
f 385/385/385 386/386/386 387/387/387
f 387/387/387 386/386/386 388/388/388
f 389/389/389 390/390/390 391/391/391
f 390/390/390 389/389/389 392/392/392
f 393/393/393 394/394/394 395/395/395
f 395/395/395 394/394/394 396/396/396
f 397/397/397 398/398/398 399/399/399
f 400/400/400 398/398/398 397/397/397
f 401/401/401 402/402/402 403/403/403
f 402/402/402 401/401/401 404/404/404
f 405/405/405 406/406/406 407/407/407
f 408/408/408 409/409/409 410/410/410
f 409/409/409 408/408/408 411/411/411
f 406/406/406 405/405/405 412/412/412
f 413/413/413 406/406/406 412/412/412
f 413/413/413 414/414/414 406/406/406
f 415/415/415 416/416/416 417/417/417
f 415/415/415 418/418/418 416/416/416
f 419/419/419 420/420/420 418/418/418
f 419/419/419 418/418/418 415/415/415
f 421/421/421 422/422/422 423/423/423
f 421/421/421 424/424/424 422/422/422
f 425/425/425 424/424/424 421/421/421
f 425/425/425 426/426/426 424/424/424
f 427/427/427 428/428/428 429/429/429
f 427/427/427 429/429/429 430/430/430
f 431/431/431 432/432/432 433/433/433
f 434/434/434 432/432/432 431/431/431
f 430/430/430 429/429/429 435/435/435
f 430/430/430 435/435/435 436/436/436
f 437/437/437 438/438/438 439/439/439
f 438/438/438 437/437/437 440/440/440
f 441/441/441 442/442/442 443/443/443
f 442/442/442 441/441/441 444/444/444
f 445/445/445 446/446/446 447/447/447
f 445/445/445 448/448/448 446/446/446
f 449/449/449 450/450/450 451/451/451
f 449/449/449 452/452/452 450/450/450
f 453/453/453 454/454/454 455/455/455
f 456/456/456 453/453/453 455/455/455
f 457/457/457 458/458/458 459/459/459
f 457/457/457 460/460/460 458/458/458
f 461/461/461 462/462/462 463/463/463
f 464/464/464 461/461/461 463/463/463
f 465/465/465 466/466/466 467/467/467
f 468/468/468 467/467/467 466/466/466
f 469/469/469 470/470/470 471/471/471
f 472/472/472 471/471/471 470/470/470
f 473/473/473 474/474/474 475/475/475
f 476/476/476 475/475/475 474/474/474
f 477/477/477 478/478/478 479/479/479
f 480/480/480 479/479/479 478/478/478
f 481/481/481 482/482/482 483/483/483
f 482/482/482 481/481/481 484/484/484
f 485/485/485 486/486/486 487/487/487
f 485/485/485 488/488/488 486/486/486
f 488/488/488 485/485/485 489/489/489
f 488/488/488 489/489/489 490/490/490
f 491/491/491 492/492/492 493/493/493
f 494/494/494 495/495/495 496/496/496
f 497/497/497 498/498/498 499/499/499
f 500/500/500 498/498/498 497/497/497
f 493/493/493 492/492/492 501/501/501
f 492/492/492 491/491/491 502/502/502
f 503/503/503 501/501/501 492/492/492
f 495/495/495 494/494/494 504/504/504
f 495/495/495 504/504/504 505/505/505
f 506/506/506 505/505/505 504/504/504
f 507/507/507 508/508/508 509/509/509
f 510/510/510 511/511/511 512/512/512
f 511/511/511 510/510/510 513/513/513
f 514/514/514 515/515/515 516/516/516
f 515/515/515 509/509/509 508/508/508
f 515/515/515 514/514/514 509/509/509
f 517/517/517 518/518/518 519/519/519
f 518/518/518 517/517/517 520/520/520
f 521/521/521 522/522/522 523/523/523
f 522/522/522 521/521/521 524/524/524
f 525/525/525 526/526/526 527/527/527
f 526/526/526 525/525/525 528/528/528
f 529/529/529 530/530/530 531/531/531
f 530/530/530 529/529/529 532/532/532
f 533/533/533 534/534/534 535/535/535
f 533/533/533 536/536/536 534/534/534
f 537/537/537 538/538/538 539/539/539
f 540/540/540 537/537/537 539/539/539
f 541/541/541 542/542/542 543/543/543
f 542/542/542 541/541/541 544/544/544
f 545/545/545 546/546/546 547/547/547
f 546/546/546 545/545/545 548/548/548
f 549/549/549 550/550/550 551/551/551
f 550/550/550 549/549/549 552/552/552
f 553/553/553 554/554/554 555/555/555
f 554/554/554 553/553/553 556/556/556
f 557/557/557 558/558/558 559/559/559
f 557/557/557 560/560/560 558/558/558
f 561/561/561 562/562/562 563/563/563
f 564/564/564 561/561/561 563/563/563
f 565/565/565 566/566/566 567/567/567
f 565/565/565 568/568/568 566/566/566
f 569/569/569 570/570/570 571/571/571
f 569/569/569 571/571/571 572/572/572
f 573/573/573 574/574/574 575/575/575
f 573/573/573 576/576/576 574/574/574
f 577/577/577 578/578/578 579/579/579
f 577/577/577 580/580/580 578/578/578
f 581/581/581 582/582/582 583/583/583
f 581/581/581 584/584/584 582/582/582
f 585/585/585 586/586/586 587/587/587
f 586/586/586 585/585/585 588/588/588
f 589/589/589 590/590/590 591/591/591
f 590/590/590 589/589/589 592/592/592
f 593/593/593 594/594/594 595/595/595
f 594/594/594 593/593/593 596/596/596
f 597/597/597 598/598/598 599/599/599
f 598/598/598 597/597/597 600/600/600
f 601/601/601 602/602/602 603/603/603
f 602/602/602 601/601/601 604/604/604
f 605/605/605 606/606/606 607/607/607
f 607/607/607 606/606/606 608/608/608
f 607/607/607 609/609/609 605/605/605
f 609/609/609 607/607/607 610/610/610
f 611/611/611 612/612/612 613/613/613
f 613/613/613 612/612/612 614/614/614
f 615/615/615 616/616/616 617/617/617
f 617/617/617 616/616/616 618/618/618
f 619/619/619 620/620/620 621/621/621
f 620/620/620 619/619/619 622/622/622
f 623/623/623 624/624/624 625/625/625
f 626/626/626 624/624/624 623/623/623
f 627/627/627 628/628/628 629/629/629
f 628/628/628 627/627/627 630/630/630
f 630/630/630 631/631/631 628/628/628
f 631/631/631 630/630/630 632/632/632
f 633/633/633 634/634/634 635/635/635
f 636/636/636 637/637/637 638/638/638
f 634/634/634 637/637/637 636/636/636
f 635/635/635 634/634/634 636/636/636
f 639/639/639 640/640/640 641/641/641
f 641/641/641 640/640/640 642/642/642
f 643/643/643 609/609/609 610/610/610
f 608/608/608 644/644/644 643/643/643
f 644/644/644 609/609/609 643/643/643
f 606/606/606 644/644/644 608/608/608
f 645/645/645 646/646/646 647/647/647
f 645/645/645 647/647/647 648/648/648
f 649/649/649 650/650/650 651/651/651
f 650/650/650 649/649/649 652/652/652
f 653/653/653 654/654/654 655/655/655
f 654/654/654 653/653/653 656/656/656
f 657/657/657 658/658/658 659/659/659
f 657/657/657 660/660/660 658/658/658
f 661/661/661 662/662/662 663/663/663
f 662/662/662 661/661/661 664/664/664
f 663/663/663 665/665/665 666/666/666
f 667/667/667 668/668/668 669/669/669
f 667/667/667 670/670/670 668/668/668
f 671/671/671 672/672/672 673/673/673
f 671/671/671 674/674/674 672/672/672
f 675/675/675 676/676/676 677/677/677
f 675/675/675 678/678/678 676/676/676
f 679/679/679 680/680/680 681/681/681
f 679/679/679 682/682/682 680/680/680
f 683/683/683 684/684/684 685/685/685
f 686/686/686 687/687/687 688/688/688
f 687/687/687 689/689/689 690/690/690
f 687/687/687 690/690/690 688/688/688
f 687/687/687 686/686/686 691/691/691
f 684/684/684 683/683/683 692/692/692
f 693/693/693 684/684/684 694/694/694
f 693/693/693 685/685/685 684/684/684
f 695/695/695 696/696/696 697/697/697
f 696/696/696 695/695/695 698/698/698
f 699/699/699 664/664/664 661/661/661
f 699/699/699 661/661/661 700/700/700
f 665/665/665 663/663/663 662/662/662
f 665/665/665 700/700/700 666/666/666
f 700/700/700 665/665/665 699/699/699
f 701/701/701 702/702/702 703/703/703
f 702/702/702 701/701/701 704/704/704
f 705/705/705 706/706/706 707/707/707
f 706/706/706 705/705/705 708/708/708
f 709/709/709 710/710/710 711/711/711
f 710/710/710 709/709/709 712/712/712
f 713/713/713 714/714/714 715/715/715
f 713/713/713 716/716/716 714/714/714
f 717/717/717 718/718/718 719/719/719
f 720/720/720 721/721/721 722/722/722
f 721/721/721 720/720/720 717/717/717
f 721/721/721 723/723/723 722/722/722
f 721/721/721 724/724/724 723/723/723
f 725/725/725 726/726/726 727/727/727
f 725/725/725 727/727/727 728/728/728
f 729/729/729 730/730/730 731/731/731
f 729/729/729 732/732/732 730/730/730
f 733/733/733 734/734/734 735/735/735
f 734/734/734 733/733/733 736/736/736
f 737/737/737 738/738/738 739/739/739
f 737/737/737 740/740/740 738/738/738
f 741/741/741 742/742/742 743/743/743
f 742/742/742 741/741/741 744/744/744
f 743/743/743 745/745/745 746/746/746
f 745/745/745 743/743/743 742/742/742
f 747/747/747 748/748/748 749/749/749
f 747/747/747 749/749/749 750/750/750
f 751/751/751 750/750/750 752/752/752
f 751/751/751 747/747/747 750/750/750
f 753/753/753 754/754/754 755/755/755
f 753/753/753 756/756/756 754/754/754
f 724/724/724 718/718/718 723/723/723
f 718/718/718 717/717/717 720/720/720
f 718/718/718 724/724/724 719/719/719
f 757/757/757 758/758/758 759/759/759
f 758/758/758 757/757/757 760/760/760
f 761/761/761 762/762/762 763/763/763
f 762/762/762 761/761/761 764/764/764
f 765/765/765 766/766/766 767/767/767
f 767/767/767 766/766/766 768/768/768
f 769/769/769 770/770/770 771/771/771
f 770/770/770 769/769/769 772/772/772
f 773/773/773 774/774/774 775/775/775
f 775/775/775 774/774/774 776/776/776
f 775/775/775 777/777/777 773/773/773
f 777/777/777 775/775/775 778/778/778
f 779/779/779 780/780/780 781/781/781
f 781/781/781 780/780/780 782/782/782
f 783/783/783 784/784/784 785/785/785
f 785/785/785 784/784/784 786/786/786
f 787/787/787 788/788/788 789/789/789
f 788/788/788 787/787/787 790/790/790
f 791/791/791 792/792/792 793/793/793
f 794/794/794 792/792/792 791/791/791
f 795/795/795 796/796/796 797/797/797
f 796/796/796 795/795/795 798/798/798
f 796/796/796 799/799/799 797/797/797
f 799/799/799 796/796/796 800/800/800
f 801/801/801 802/802/802 803/803/803
f 804/804/804 802/802/802 805/805/805
f 802/802/802 801/801/801 806/806/806
f 805/805/805 802/802/802 806/806/806
f 807/807/807 808/808/808 809/809/809
f 809/809/809 808/808/808 810/810/810
f 811/811/811 777/777/777 778/778/778
f 776/776/776 812/812/812 811/811/811
f 812/812/812 777/777/777 811/811/811
f 774/774/774 812/812/812 776/776/776
f 813/813/813 814/814/814 815/815/815
f 816/816/816 817/817/817 818/818/818
f 819/819/819 816/816/816 820/820/820
f 820/820/820 816/816/816 821/821/821
f 820/820/820 821/821/821 822/822/822
f 823/823/823 824/824/824 825/825/825
f 823/823/823 825/825/825 826/826/826
f 826/826/826 827/827/827 828/828/828
f 826/826/826 825/825/825 827/827/827
f 829/829/829 830/830/830 831/831/831
f 829/829/829 832/832/832 833/833/833
f 832/832/832 829/829/829 831/831/831
f 833/833/833 832/832/832 834/834/834
f 835/835/835 836/836/836 837/837/837
f 835/835/835 837/837/837 838/838/838
f 838/838/838 837/837/837 839/839/839
f 838/838/838 839/839/839 840/840/840
f 841/841/841 842/842/842 843/843/843
f 844/844/844 843/843/843 842/842/842
f 843/843/843 845/845/845 846/846/846
f 845/845/845 843/843/843 844/844/844
f 845/845/845 847/847/847 846/846/846
f 848/848/848 849/849/849 850/850/850
f 851/851/851 850/850/850 849/849/849
f 850/850/850 851/851/851 852/852/852
f 853/853/853 854/854/854 852/852/852
f 853/853/853 852/852/852 851/851/851
f 855/855/855 856/856/856 857/857/857
f 858/858/858 857/857/857 856/856/856
f 857/857/857 858/858/858 859/859/859
f 860/860/860 859/859/859 858/858/858
f 859/859/859 861/861/861 862/862/862
f 863/863/863 864/864/864 865/865/865
f 866/866/866 865/865/865 864/864/864
f 865/865/865 866/866/866 867/867/867
f 815/815/815 868/868/868 869/869/869
f 815/815/815 814/814/814 868/868/868
f 869/869/869 868/868/868 867/867/867
f 869/869/869 867/867/867 866/866/866
f 870/870/870 830/830/830 829/829/829
f 871/871/871 830/830/830 870/870/870
f 830/830/830 871/871/871 872/872/872
f 817/817/817 873/873/873 818/818/818
f 817/817/817 816/816/816 819/819/819
f 873/873/873 817/817/817 874/874/874
f 875/875/875 836/836/836 835/835/835
f 876/876/876 836/836/836 875/875/875
f 836/836/836 876/876/876 877/877/877
f 878/878/878 879/879/879 834/834/834
f 878/878/878 834/834/834 832/832/832
f 879/879/879 878/878/878 880/880/880
f 881/881/881 882/882/882 822/822/822
f 881/881/881 822/822/822 821/821/821
f 882/882/882 881/881/881 883/883/883
f 884/884/884 828/828/828 827/827/827
f 884/884/884 885/885/885 828/828/828
f 885/885/885 884/884/884 886/886/886
f 887/887/887 888/888/888 889/889/889
f 888/888/888 887/887/887 890/890/890
f 891/891/891 892/892/892 893/893/893
f 892/892/892 891/891/891 894/894/894
f 895/895/895 896/896/896 897/897/897
f 896/896/896 895/895/895 898/898/898
f 899/899/899 824/824/824 823/823/823
f 899/899/899 900/900/900 824/824/824
f 901/901/901 900/900/900 899/899/899
f 902/902/902 903/903/903 904/904/904
f 903/903/903 902/902/902 905/905/905
f 861/861/861 859/859/859 860/860/860
f 861/861/861 906/906/906 862/862/862
f 907/907/907 906/906/906 861/861/861
f 908/908/908 847/847/847 845/845/845
f 847/847/847 909/909/909 910/910/910
f 909/909/909 847/847/847 908/908/908
f 911/911/911 854/854/854 853/853/853
f 854/854/854 912/912/912 913/913/913
f 912/912/912 854/854/854 911/911/911
f 914/914/914 840/840/840 839/839/839
f 914/914/914 915/915/915 840/840/840
f 915/915/915 914/914/914 916/916/916
