# Ruins_Pot3Broken: from Quaternius, Ultimate Modular Ruins Pack (CC0 1.0)
mtllib Ruins_Pot3Broken.mtl
v 0.08831 0.27606 -0.20024
v -0.00000 0.16090 -0.23167
v 0.00000 0.30156 -0.21459
v 0.16864 0.16790 -0.16864
v 0.09396 0.16571 -0.21306
v -0.08641 0.31303 0.19594
v -0.16864 0.16790 0.16864
v -0.09396 0.16571 0.21306
v -0.19569 0.31425 0.08630
v -0.15320 0.32714 0.15320
v -0.21468 0.30115 -0.00000
v -0.19569 0.31425 -0.08630
v -0.21306 0.16571 -0.09396
v -0.23167 0.16090 0.00000
v -0.21306 0.16571 0.09396
v 0.19970 0.27998 -0.08807
v 0.15320 0.32714 -0.15320
v 0.22277 0.23436 -0.00000
v 0.21306 0.16571 -0.09396
v 0.21306 0.16571 0.09396
v 0.23167 0.16090 0.00000
v 0.19917 0.28454 0.08783
v 0.15785 0.27916 0.15785
v 0.09396 0.16571 0.21306
v 0.16864 0.16790 0.16864
v -0.00000 0.24305 0.22169
v -0.00000 0.16090 0.23167
v 0.08641 0.31303 0.19594
v -0.16096 0.24704 -0.16096
v -0.09396 0.16571 -0.21306
v -0.16864 0.16790 -0.16864
v -0.09021 0.23892 -0.20455
v 0.00007 0.24777 0.19794
v 0.06048 0.04490 0.13652
v 0.00020 0.04490 0.15449
v 0.07894 0.27724 -0.17890
v 0.00020 0.04490 -0.14988
v 0.06180 0.04490 -0.13986
v -0.14369 0.25133 -0.14382
v -0.13632 0.04490 -0.06038
v -0.11209 0.04490 -0.11246
v -0.19167 0.29966 -0.00006
v -0.14956 0.04490 -0.00017
v -0.17471 0.31135 -0.07714
v -0.13632 0.04490 0.06003
v -0.17471 0.31135 0.07702
v -0.10667 0.04490 0.10670
v -0.14369 0.25133 -0.14382
v -0.11209 0.04490 -0.11246
v -0.08050 0.24408 -0.18275
v 0.00007 0.24777 0.19794
v -0.06008 0.04490 0.13652
v -0.07711 0.31026 0.17494
v 0.00007 0.30002 -0.19172
v -0.06273 0.04490 -0.14287
v 0.00020 0.04490 0.15449
v -0.13675 0.32286 0.13676
v 0.19904 0.24000 -0.00006
v 0.13951 0.04490 -0.06161
v 0.15561 0.04490 -0.00017
v 0.17843 0.28075 -0.07872
v 0.10707 0.04490 -0.10705
v 0.19904 0.24000 -0.00006
v 0.13914 0.04490 0.06110
v 0.17795 0.28482 0.07839
v 0.07725 0.31026 0.17494
v 0.14105 0.28001 0.14092
v 0.11032 0.04490 0.10995
v 0.15561 0.04490 -0.00017
v 0.11032 0.04490 0.10995
v 0.14105 0.28001 0.14092
v 0.13689 0.32286 -0.13689
v 0.07894 0.27724 -0.17890
v 0.06180 0.04490 -0.13986
v 0.13951 0.04490 -0.06161
v 0.13914 0.04490 0.06110
v 0.15561 0.04490 -0.00017
v 0.10707 0.04490 -0.10705
v 0.06048 0.04490 0.13652
v 0.11032 0.04490 0.10995
v -0.06008 0.04490 0.13652
v -0.13632 0.04490 0.06003
v -0.10667 0.04490 0.10670
v 0.00020 0.04490 -0.14988
v 0.06180 0.04490 -0.13986
v -0.13632 0.04490 -0.06038
v 0.00020 0.04490 0.15449
v -0.14956 0.04490 -0.00017
v -0.06273 0.04490 -0.14287
v -0.11209 0.04490 -0.11246
v 0.15627 0.00000 -0.06892
v -0.00000 0.00000 -0.16854
v 0.06892 0.00000 -0.15627
v 0.12428 0.00000 -0.12428
v -0.06892 0.00000 -0.15627
v -0.15627 0.00000 -0.06892
v -0.12428 0.00000 -0.12428
v -0.16854 0.00000 0.00000
v -0.15627 0.00000 0.06892
v -0.06892 0.00000 0.15627
v -0.12428 0.00000 0.12428
v -0.00000 0.00000 0.16854
v 0.16854 0.00000 0.00000
v 0.06892 0.00000 0.15627
v 0.15627 0.00000 0.06892
v 0.12428 0.00000 0.12428
v 0.19955 0.05792 -0.08800
v 0.12428 0.00000 -0.12428
v 0.15816 0.06101 -0.15816
v 0.15627 0.00000 -0.06892
v 0.21635 0.05110 0.00000
v 0.16854 0.00000 0.00000
v -0.19955 0.05792 -0.08800
v -0.12428 0.00000 -0.12428
v -0.15627 0.00000 -0.06892
v -0.21635 0.05110 0.00000
v 0.08800 0.05792 -0.19955
v 0.06892 0.00000 -0.15627
v -0.00000 0.05110 -0.21635
v 0.15627 0.00000 0.06892
v -0.19955 0.05792 0.08800
v -0.12428 0.00000 0.12428
v -0.15816 0.06101 0.15816
v -0.15627 0.00000 0.06892
v -0.16854 0.00000 0.00000
v -0.15816 0.06101 -0.15816
v -0.08800 0.05792 -0.19955
v -0.06892 0.00000 -0.15627
v 0.19955 0.05792 0.08800
v 0.12428 0.00000 0.12428
v 0.08800 0.05792 0.19955
v 0.06892 0.00000 0.15627
v 0.15816 0.06101 0.15816
v -0.00000 0.05110 0.21635
v -0.00000 0.00000 0.16854
v -0.06892 0.00000 0.15627
v -0.08800 0.05792 0.19955
v -0.00000 0.00000 -0.16854
v 0.07894 0.27724 -0.17890
v 0.00000 0.30156 -0.21459
v 0.00007 0.30002 -0.19172
v 0.08831 0.27606 -0.20024
v -0.09021 0.23892 -0.20455
v -0.14369 0.25133 -0.14382
v -0.08050 0.24408 -0.18275
v -0.16096 0.24704 -0.16096
v 0.19917 0.28454 0.08783
v 0.14105 0.28001 0.14092
v 0.15785 0.27916 0.15785
v 0.19904 0.24000 -0.00006
v 0.19970 0.27998 -0.08807
v 0.17843 0.28075 -0.07872
v -0.19569 0.31425 -0.08630
v -0.21468 0.30115 -0.00000
v -0.19167 0.29966 -0.00006
v -0.17471 0.31135 -0.07714
v -0.19569 0.31425 0.08630
v -0.17471 0.31135 0.07702
v -0.13675 0.32286 0.13676
v -0.08641 0.31303 0.19594
v -0.07711 0.31026 0.17494
v -0.15320 0.32714 0.15320
v 0.22277 0.23436 -0.00000
v 0.15320 0.32714 -0.15320
v 0.13689 0.32286 -0.13689
v 0.08641 0.31303 0.19594
v 0.17795 0.28482 0.07839
v 0.07725 0.31026 0.17494
v -0.19569 0.31425 -0.08630
v -0.14369 0.25133 -0.14382
v -0.16096 0.24704 -0.16096
v -0.17471 0.31135 -0.07714
v 0.15320 0.32714 -0.15320
v 0.08831 0.27606 -0.20024
v 0.07894 0.27724 -0.17890
v 0.13689 0.32286 -0.13689
v 0.08641 0.31303 0.19594
v 0.00007 0.24777 0.19794
v -0.00000 0.24305 0.22169
v 0.07725 0.31026 0.17494
v 0.19917 0.28454 0.08783
v 0.19904 0.24000 -0.00006
v 0.17795 0.28482 0.07839
v 0.22277 0.23436 -0.00000
v 0.00000 0.30156 -0.21459
v -0.08050 0.24408 -0.18275
v 0.00007 0.30002 -0.19172
v -0.09021 0.23892 -0.20455
v 0.00007 0.24777 0.19794
v -0.00000 0.24305 0.22169
v -0.08800 0.05792 -0.19955
v -0.00000 0.05110 -0.21635
v -0.15816 0.06101 -0.15816
v 0.08800 0.05792 0.19955
v -0.00000 0.05110 0.21635
v 0.15816 0.06101 0.15816
v 0.19955 0.05792 -0.08800
v 0.21635 0.05110 0.00000
v 0.15816 0.06101 -0.15816
v -0.19955 0.05792 0.08800
v -0.21635 0.05110 0.00000
v -0.15816 0.06101 0.15816
v -0.08800 0.05792 0.19955
v -0.19955 0.05792 -0.08800
v 0.08800 0.05792 -0.19955
v 0.19955 0.05792 0.08800
vt 0.00000 0.00000
vt 0.00000 0.00000
vt 0.00000 0.00000
vt 0.00000 0.00000
vt 0.00000 0.00000
vt 0.00000 0.00000
vt 0.00000 0.00000
vt 0.00000 0.00000
vt 0.00000 0.00000
vt 0.00000 0.00000
vt 0.00000 0.00000
vt 0.00000 0.00000
vt 0.00000 0.00000
vt 0.00000 0.00000
vt 0.00000 0.00000
vt 0.00000 0.00000
vt 0.00000 0.00000
vt 0.00000 0.00000
vt 0.00000 0.00000
vt 0.00000 0.00000
vt 0.00000 0.00000
vt 0.00000 0.00000
vt 0.00000 0.00000
vt 0.00000 0.00000
vt 0.00000 0.00000
vt 0.00000 0.00000
vt 0.00000 0.00000
vt 0.00000 0.00000
vt 0.00000 0.00000
vt 0.00000 0.00000
vt 0.00000 0.00000
vt 0.00000 0.00000
vt 0.00000 0.00000
vt 0.00000 0.00000
vt 0.00000 0.00000
vt 0.00000 0.00000
vt 0.00000 0.00000
vt 0.00000 0.00000
vt 0.00000 0.00000
vt 0.00000 0.00000
vt 0.00000 0.00000
vt 0.00000 0.00000
vt 0.00000 0.00000
vt 0.00000 0.00000
vt 0.00000 0.00000
vt 0.00000 0.00000
vt 0.00000 0.00000
vt 0.00000 0.00000
vt 0.00000 0.00000
vt 0.00000 0.00000
vt 0.00000 0.00000
vt 0.00000 0.00000
vt 0.00000 0.00000
vt 0.00000 0.00000
vt 0.00000 0.00000
vt 0.00000 0.00000
vt 0.00000 0.00000
vt 0.00000 0.00000
vt 0.00000 0.00000
vt 0.00000 0.00000
vt 0.00000 0.00000
vt 0.00000 0.00000
vt 0.00000 0.00000
vt 0.00000 0.00000
vt 0.00000 0.00000
vt 0.00000 0.00000
vt 0.00000 0.00000
vt 0.00000 0.00000
vt 0.00000 0.00000
vt 0.00000 0.00000
vt 0.00000 0.00000
vt 0.00000 0.00000
vt 0.00000 0.00000
vt 0.00000 0.00000
vt 0.00000 0.00000
vt 0.00000 0.00000
vt 0.00000 0.00000
vt 0.00000 0.00000
vt 0.00000 0.00000
vt 0.00000 0.00000
vt 0.00000 0.00000
vt 0.00000 0.00000
vt 0.00000 0.00000
vt 0.00000 0.00000
vt 0.00000 0.00000
vt 0.00000 0.00000
vt 0.00000 0.00000
vt 0.00000 0.00000
vt 0.00000 0.00000
vt 0.00000 0.00000
vt 0.00000 0.00000
vt 0.00000 0.00000
vt 0.00000 0.00000
vt 0.00000 0.00000
vt 0.00000 0.00000
vt 0.00000 0.00000
vt 0.00000 0.00000
vt 0.00000 0.00000
vt 0.00000 0.00000
vt 0.00000 0.00000
vt 0.00000 0.00000
vt 0.00000 0.00000
vt 0.00000 0.00000
vt 0.00000 0.00000
vt 0.00000 0.00000
vt 0.00000 0.00000
vt 0.00000 0.00000
vt 0.00000 0.00000
vt 0.00000 0.00000
vt 0.00000 0.00000
vt 0.00000 0.00000
vt 0.00000 0.00000
vt 0.00000 0.00000
vt 0.00000 0.00000
vt 0.00000 0.00000
vt 0.00000 0.00000
vt 0.00000 0.00000
vt 0.00000 0.00000
vt 0.00000 0.00000
vt 0.00000 0.00000
vt 0.00000 0.00000
vt 0.00000 0.00000
vt 0.00000 0.00000
vt 0.00000 0.00000
vt 0.00000 0.00000
vt 0.00000 0.00000
vt 0.00000 0.00000
vt 0.00000 0.00000
vt 0.00000 0.00000
vt 0.00000 0.00000
vt 0.00000 0.00000
vt 0.00000 0.00000
vt 0.00000 0.00000
vt 0.00000 0.00000
vt 0.00000 0.00000
vt 0.00000 0.00000
vt 0.00000 0.00000
vt 0.00000 0.00000
vt 0.00000 0.00000
vt 0.00000 0.00000
vt 0.00000 0.00000
vt 0.00000 0.00000
vt 0.00000 0.00000
vt 0.00000 0.00000
vt 0.00000 0.00000
vt 0.00000 0.00000
vt 0.00000 0.00000
vt 0.00000 0.00000
vt 0.00000 0.00000
vt 0.00000 0.00000
vt 0.00000 0.00000
vt 0.00000 0.00000
vt 0.00000 0.00000
vt 0.00000 0.00000
vt 0.00000 0.00000
vt 0.00000 0.00000
vt 0.00000 0.00000
vt 0.00000 0.00000
vt 0.00000 0.00000
vt 0.00000 0.00000
vt 0.00000 0.00000
vt 0.00000 0.00000
vt 0.00000 0.00000
vt 0.00000 0.00000
vt 0.00000 0.00000
vt 0.00000 0.00000
vt 0.00000 0.00000
vt 0.00000 0.00000
vt 0.00000 0.00000
vt 0.00000 0.00000
vt 0.00000 0.00000
vt 0.00000 0.00000
vt 0.00000 0.00000
vt 0.00000 0.00000
vt 0.00000 0.00000
vt 0.00000 0.00000
vt 0.00000 0.00000
vt 0.00000 0.00000
vt 0.00000 0.00000
vt 0.00000 0.00000
vt 0.00000 0.00000
vt 0.00000 0.00000
vt 0.00000 0.00000
vt 0.00000 0.00000
vt 0.00000 0.00000
vt 0.00000 0.00000
vt 0.00000 0.00000
vt 0.00000 0.00000
vt 0.00000 0.00000
vt 0.00000 0.00000
vt 0.00000 0.00000
vt 0.00000 0.00000
vt 0.00000 0.00000
vt 0.00000 0.00000
vt 0.00000 0.00000
vt 0.00000 0.00000
vt 0.00000 0.00000
vt 0.00000 0.00000
vt 0.00000 0.00000
vt 0.00000 0.00000
vt 0.00000 0.00000
vt 0.00000 0.00000
vt 0.00000 0.00000
vt 0.00000 0.00000
vt 0.00000 0.00000
vt 0.00000 0.00000
vn 0.36572 0.12686 -0.92204
vn 0.00016 -0.01121 -0.99994
vn 0.02798 0.12234 -0.99209
vn 0.70720 -0.00023 -0.70702
vn 0.36002 -0.00367 -0.93294
vn -0.40421 0.12776 0.90570
vn -0.70723 -0.00045 0.70698
vn -0.36013 -0.00355 0.93290
vn -0.92019 0.12715 0.37025
vn -0.70203 0.13268 0.69968
vn -0.99238 0.12322 0.00000
vn -0.94038 0.12531 -0.31619
vn -0.93295 -0.00381 -0.35998
vn -0.99994 -0.01081 0.00000
vn -0.93279 -0.00355 0.36040
vn 0.90623 0.12828 -0.40285
vn 0.70397 0.13315 -0.69764
vn 0.99231 0.12373 0.00187
vn 0.93302 -0.00332 -0.35981
vn 0.93307 -0.00346 0.35967
vn 0.99994 -0.01053 0.00001
vn 0.91608 0.12751 0.38018
vn 0.68504 0.13222 0.71641
vn 0.35988 -0.00370 0.93299
vn 0.70729 -0.00067 0.70693
vn 0.00000 0.12351 0.99234
vn 0.00000 -0.01064 0.99994
vn 0.37357 0.12686 0.91889
vn -0.73666 0.13196 -0.66326
vn -0.35935 -0.00391 -0.93319
vn -0.70699 -0.00074 -0.70722
vn -0.33143 0.12545 -0.93510
vn -0.35285 0.17332 -0.91949
vn -0.39160 0.16877 -0.90453
vn -0.35285 0.17332 -0.91949
vn -0.13180 0.16673 0.97715
vn -0.04639 0.17320 0.98379
vn -0.13180 0.16673 0.97715
vn 0.92357 0.17158 0.34289
vn 0.94473 0.16391 0.28395
vn 0.92357 0.17158 0.34289
vn 0.98713 0.15991 -0.00006
vn 0.98713 0.15991 0.00006
vn 0.94869 0.16221 0.27142
vn 0.90812 0.15569 -0.38870
vn 0.90091 0.15540 -0.40522
vn 0.70033 0.15410 -0.69699
vn 0.52264 0.20879 0.82659
vn 0.52264 0.20879 0.82659
vn 0.26003 0.19815 0.94505
vn 0.35298 0.17369 -0.91937
vn 0.45202 0.16339 -0.87692
vn 0.48194 0.15977 -0.86152
vn -0.05819 0.17239 0.98331
vn 0.28798 0.20000 0.93652
vn 0.35298 0.17369 -0.91937
vn 0.70106 0.15410 -0.69625
vn -0.93466 0.19042 0.30025
vn -0.86680 0.17776 0.46589
vn -0.93466 0.19042 0.30025
vn -0.84009 0.17267 0.51424
vn -0.70208 0.16093 0.69367
vn -0.93158 0.18853 -0.31084
vn -0.89604 0.18265 -0.40465
vn -0.88884 0.18142 -0.42078
vn -0.39663 0.16815 -0.90245
vn -0.42982 0.16391 -0.88791
vn -0.42982 0.16391 -0.88791
vn -0.93158 0.18853 -0.31084
vn -0.85124 0.17488 -0.49479
vn -0.85124 0.17488 -0.49479
vn -0.70328 0.16092 0.69246
vn -0.62486 0.16062 0.76404
vn -0.62486 0.16062 0.76404
vn -0.00000 1.00000 -0.00000
vn -0.00000 1.00000 -0.00000
vn -0.00000 1.00000 -0.00000
vn -0.00000 1.00000 -0.00000
vn -0.00000 1.00000 -0.00000
vn -0.00000 1.00000 -0.00000
vn -0.00000 1.00000 -0.00000
vn -0.00000 1.00000 -0.00000
vn -0.00000 1.00000 -0.00000
vn -0.00000 1.00000 -0.00000
vn -0.00000 1.00000 -0.00000
vn -0.00000 1.00000 -0.00000
vn -0.00000 1.00000 -0.00000
vn -0.00000 1.00000 -0.00000
vn -0.00000 1.00000 -0.00000
vn -0.00000 1.00000 -0.00000
vn 0.00000 -1.00000 0.00000
vn 0.00000 -1.00000 0.00000
vn 0.00000 -1.00000 0.00000
vn 0.00000 -1.00000 0.00000
vn 0.00000 -1.00000 0.00000
vn 0.00000 -1.00000 0.00000
vn 0.00000 -1.00000 0.00000
vn 0.00000 -1.00000 0.00000
vn 0.00000 -1.00000 0.00000
vn 0.00000 -1.00000 0.00000
vn 0.00000 -1.00000 0.00000
vn 0.00000 -1.00000 0.00000
vn 0.00000 -1.00000 0.00000
vn 0.00000 -1.00000 0.00000
vn 0.00000 -1.00000 0.00000
vn 0.00000 -1.00000 0.00000
vn 0.71104 -0.63787 -0.29589
vn 0.54975 -0.62892 -0.54975
vn 0.54975 -0.62892 -0.54975
vn 0.71383 -0.63912 -0.28630
vn 0.75272 -0.65834 0.00000
vn 0.75272 -0.65834 0.00000
vn -0.71104 -0.63787 -0.29589
vn -0.54975 -0.62892 -0.54975
vn -0.71383 -0.63912 -0.28630
vn -0.75272 -0.65834 0.00000
vn 0.29589 -0.63787 -0.71104
vn 0.28630 -0.63912 -0.71383
vn -0.00000 -0.65834 -0.75272
vn 0.71383 -0.63912 0.28630
vn -0.71104 -0.63787 0.29589
vn -0.54975 -0.62892 0.54975
vn -0.54975 -0.62892 0.54975
vn -0.71383 -0.63912 0.28630
vn -0.75272 -0.65834 0.00000
vn -0.54975 -0.62892 -0.54975
vn -0.29589 -0.63787 -0.71104
vn -0.28630 -0.63912 -0.71383
vn 0.71104 -0.63787 0.29589
vn 0.54975 -0.62892 0.54975
vn 0.29589 -0.63787 0.71104
vn 0.28630 -0.63912 0.71383
vn 0.54975 -0.62892 0.54975
vn 0.00000 -0.65834 0.75272
vn 0.00000 -0.65834 0.75272
vn -0.28630 -0.63912 0.71383
vn -0.29589 -0.63787 0.71104
vn -0.00000 -0.65834 -0.75272
vn 0.26730 0.96150 0.06384
vn 0.26730 0.96150 0.06384
vn 0.26730 0.96150 0.06384
vn 0.26730 0.96150 0.06384
vn -0.02371 0.97519 -0.22008
vn -0.02371 0.97519 -0.22008
vn -0.02371 0.97519 -0.22008
vn -0.02371 0.97519 -0.22008
vn -0.01660 0.99762 0.06690
vn 0.14733 0.98438 -0.09642
vn 0.14467 0.98503 -0.09376
vn 0.21043 0.88948 0.40564
vn 0.22092 0.87504 0.43069
vn 0.22138 0.87438 0.43180
vn 0.06438 0.98443 0.16355
vn 0.06482 0.99790 -0.00023
vn 0.06482 0.99790 0.00033
vn 0.06438 0.98443 0.16355
vn 0.05148 0.98056 -0.18934
vn 0.05215 0.98080 -0.18790
vn 0.13333 0.98350 -0.12225
vn 0.41611 0.90699 0.06501
vn 0.42171 0.90419 0.06786
vn 0.13336 0.98350 -0.12222
vn 0.21043 0.88948 0.40564
vn 0.23170 0.85900 0.45654
vn 0.23170 0.85900 0.45654
vn 0.30131 0.91949 -0.25249
vn -0.01660 0.99762 0.06690
vn 0.30131 0.91949 -0.25249
vn 0.34074 0.77205 -0.53650
vn 0.34074 0.77205 -0.53650
vn 0.34074 0.77205 -0.53650
vn 0.34074 0.77205 -0.53650
vn -0.47652 0.84107 -0.25598
vn -0.47652 0.84107 -0.25598
vn -0.47652 0.84107 -0.25598
vn -0.47652 0.84107 -0.25598
vn -0.59339 0.78985 0.15499
vn -0.59339 0.78985 0.15499
vn -0.59339 0.78985 0.15499
vn -0.59339 0.78985 0.15499
vn 0.20852 0.87228 -0.44231
vn 0.20852 0.87228 -0.44231
vn 0.20852 0.87228 -0.44231
vn 0.20852 0.87228 -0.44231
vn -0.56511 0.82303 0.05709
vn -0.56511 0.82303 0.05709
vn -0.56511 0.82303 0.05709
vn -0.56511 0.82303 0.05709
vn 0.59239 0.78990 0.15852
vn 0.59239 0.78990 0.15852
vn -0.35192 -0.13589 -0.92611
vn 0.00000 -0.13674 -0.99061
vn -0.70034 -0.13801 -0.70034
vn 0.35192 -0.13589 0.92611
vn -0.00000 -0.13674 0.99061
vn 0.70034 -0.13801 0.70034
vn 0.92611 -0.13589 -0.35192
vn 0.99061 -0.13674 0.00000
vn 0.70034 -0.13801 -0.70034
vn -0.92611 -0.13589 0.35192
vn -0.99061 -0.13674 0.00000
vn -0.70034 -0.13801 0.70034
vn -0.35192 -0.13589 0.92611
vn -0.92611 -0.13589 -0.35192
vn 0.35192 -0.13589 -0.92611
vn 0.92611 -0.13589 0.35192
g Pot_Main
usemtl Pot_Main
f 1/1/1 2/2/2 3/3/3
f 1/1/1 4/4/4 5/5/5
f 6/6/6 7/7/7 8/8/8
f 9/9/9 7/7/7 10/10/10
f 11/11/11 12/12/12 13/13/13
f 11/11/11 13/13/13 14/14/14
f 11/11/11 15/15/15 9/9/9
f 16/16/16 4/4/4 17/17/17
f 18/18/18 19/19/19 16/16/16
f 18/18/18 20/20/20 21/21/21
f 18/18/18 22/22/22 20/20/20
f 23/23/23 20/20/20 22/22/22
f 23/23/23 24/24/24 25/25/25
f 26/26/26 6/6/6 8/8/8
f 26/26/26 8/8/8 27/27/27
f 28/28/28 24/24/24 23/23/23
f 29/29/29 30/30/30 31/31/31
f 29/29/29 32/32/32 30/30/30
f 32/32/32 2/2/2 30/30/30
f 33/33/33 34/34/34 35/35/35
f 36/36/36 37/37/37 38/38/38
f 39/39/39 40/40/40 41/41/41
f 40/40/40 42/42/42 43/43/43
f 44/44/44 40/40/40 39/39/39
f 42/42/42 40/40/40 44/44/44
f 42/42/42 45/45/45 43/43/43
f 46/46/46 47/47/47 45/45/45
f 46/46/46 45/45/45 42/42/42
f 48/48/48 49/49/49 50/50/50
f 51/51/51 52/52/52 53/53/53
f 54/54/54 37/37/37 36/36/36
f 37/37/37 50/50/50 55/55/55
f 50/50/50 37/37/37 54/54/54
f 50/50/50 49/49/49 55/55/55
f 52/52/52 51/51/51 56/56/56
f 57/57/57 47/47/47 46/46/46
f 47/47/47 53/53/53 52/52/52
f 53/53/53 47/47/47 57/57/57
f 58/58/58 59/59/59 60/60/60
f 61/61/61 62/62/62 59/59/59
f 61/61/61 59/59/59 58/58/58
f 63/63/63 64/64/64 65/65/65
f 66/66/66 34/34/34 33/33/33
f 34/34/34 67/67/67 68/68/68
f 67/67/67 34/34/34 66/66/66
f 64/64/64 63/63/63 69/69/69
f 70/70/70 65/65/65 64/64/64
f 65/65/65 70/70/70 71/71/71
f 72/72/72 62/62/62 61/61/61
f 62/62/62 73/73/73 74/74/74
f 73/73/73 62/62/62 72/72/72
f 75/75/75 76/76/76 77/77/77
f 76/76/76 75/75/75 78/78/78
f 76/76/76 79/79/79 80/80/80
f 81/81/81 82/82/82 83/83/83
f 84/84/84 78/78/78 85/85/85
f 84/84/84 79/79/79 78/78/78
f 79/79/79 84/84/84 86/86/86
f 79/79/79 76/76/76 78/78/78
f 79/79/79 81/81/81 87/87/87
f 82/82/82 86/86/86 88/88/88
f 82/82/82 81/81/81 79/79/79
f 86/86/86 82/82/82 79/79/79
f 86/86/86 84/84/84 89/89/89
f 86/86/86 89/89/89 90/90/90
f 91/91/91 92/92/92 93/93/93
f 91/91/91 93/93/93 94/94/94
f 95/95/95 96/96/96 97/97/97
f 96/96/96 92/92/92 98/98/98
f 99/99/99 100/100/100 101/101/101
f 100/100/100 98/98/98 102/102/102
f 103/103/103 92/92/92 91/91/91
f 104/104/104 105/105/105 106/106/106
f 104/104/104 103/103/103 105/105/105
f 98/98/98 100/100/100 99/99/99
f 102/102/102 103/103/103 104/104/104
f 102/102/102 92/92/92 103/103/103
f 92/92/92 96/96/96 95/95/95
f 92/92/92 102/102/102 98/98/98
f 107/107/107 108/108/108 109/109/109
f 110/110/110 111/111/111 112/112/112
f 113/113/113 114/114/114 115/115/115
f 113/113/113 115/115/115 116/116/116
f 117/117/117 118/118/118 119/119/119
f 117/117/117 108/108/108 118/118/118
f 108/108/108 107/107/107 110/110/110
f 109/109/109 108/108/108 117/117/117
f 111/111/111 110/110/110 107/107/107
f 111/111/111 120/120/120 112/112/112
f 121/121/121 122/122/122 123/123/123
f 124/124/124 116/116/116 125/125/125
f 116/116/116 115/115/115 125/125/125
f 116/116/116 124/124/124 121/121/121
f 126/126/126 114/114/114 113/113/113
f 114/114/114 127/127/127 128/128/128
f 129/129/129 120/120/120 111/111/111
f 129/129/129 130/130/130 120/120/120
f 130/130/130 131/131/131 132/132/132
f 133/133/133 130/130/130 129/129/129
f 131/131/131 130/130/130 133/133/133
f 132/132/132 134/134/134 135/135/135
f 134/134/134 136/136/136 135/135/135
f 134/134/134 132/132/132 131/131/131
f 137/137/137 136/136/136 134/134/134
f 137/137/137 122/122/122 136/136/136
f 122/122/122 121/121/121 124/124/124
f 123/123/123 122/122/122 137/137/137
f 127/127/127 114/114/114 126/126/126
f 128/128/128 119/119/119 138/138/138
f 119/119/119 118/118/118 138/138/138
f 119/119/119 128/128/128 127/127/127
f 139/139/139 140/140/140 141/141/141
f 140/140/140 139/139/139 142/142/142
f 143/143/143 144/144/144 145/145/145
f 144/144/144 143/143/143 146/146/146
f 147/147/147 148/148/148 149/149/149
f 150/150/150 151/151/151 152/152/152
f 153/153/153 154/154/154 155/155/155
f 155/155/155 156/156/156 153/153/153
f 155/155/155 157/157/157 158/158/158
f 157/157/157 155/155/155 154/154/154
f 157/157/157 159/159/159 158/158/158
f 159/159/159 160/160/160 161/161/161
f 159/159/159 157/157/157 162/162/162
f 151/151/151 150/150/150 163/163/163
f 164/164/164 152/152/152 151/151/151
f 152/152/152 164/164/164 165/165/165
f 166/166/166 149/149/149 148/148/148
f 148/148/148 147/147/147 167/167/167
f 148/148/148 168/168/168 166/166/166
f 169/169/169 170/170/170 171/171/171
f 170/170/170 169/169/169 172/172/172
f 173/173/173 174/174/174 175/175/175
f 175/175/175 176/176/176 173/173/173
f 177/177/177 178/178/178 179/179/179
f 178/178/178 177/177/177 180/180/180
f 181/181/181 182/182/182 183/183/183
f 182/182/182 181/181/181 184/184/184
f 185/185/185 186/186/186 187/187/187
f 186/186/186 185/185/185 188/188/188
f 189/189/189 160/160/160 190/190/190
f 160/160/160 189/189/189 161/161/161
f 160/160/160 159/159/159 162/162/162
f 191/191/191 2/2/2 192/192/192
f 30/30/30 191/191/191 193/193/193
f 194/194/194 27/27/27 195/195/195
f 24/24/24 26/26/26 27/27/27
f 24/24/24 28/28/28 26/26/26
f 24/24/24 194/194/194 196/196/196
f 197/197/197 21/21/21 198/198/198
f 19/19/19 18/18/18 21/21/21
f 19/19/19 197/197/197 199/199/199
f 200/200/200 14/14/14 201/201/201
f 15/15/15 200/200/200 202/202/202
f 15/15/15 11/11/11 14/14/14
f 7/7/7 15/15/15 202/202/202
f 7/7/7 9/9/9 15/15/15
f 7/7/7 6/6/6 10/10/10
f 7/7/7 202/202/202 8/8/8
f 8/8/8 202/202/202 203/203/203
f 203/203/203 27/27/27 8/8/8
f 27/27/27 203/203/203 195/195/195
f 27/27/27 194/194/194 24/24/24
f 31/31/31 30/30/30 193/193/193
f 31/31/31 193/193/193 13/13/13
f 13/13/13 12/12/12 29/29/29
f 13/13/13 29/29/29 31/31/31
f 13/13/13 193/193/193 204/204/204
f 204/204/204 14/14/14 13/13/13
f 14/14/14 200/200/200 15/15/15
f 14/14/14 204/204/204 201/201/201
f 4/4/4 1/1/1 17/17/17
f 4/4/4 199/199/199 5/5/5
f 4/4/4 19/19/19 199/199/199
f 4/4/4 16/16/16 19/19/19
f 5/5/5 199/199/199 205/205/205
f 205/205/205 2/2/2 5/5/5
f 2/2/2 1/1/1 5/5/5
f 2/2/2 205/205/205 192/192/192
f 2/2/2 32/32/32 3/3/3
f 2/2/2 191/191/191 30/30/30
f 25/25/25 24/24/24 196/196/196
f 25/25/25 196/196/196 20/20/20
f 20/20/20 23/23/23 25/25/25
f 20/20/20 196/196/196 206/206/206
f 206/206/206 21/21/21 20/20/20
f 21/21/21 206/206/206 198/198/198
f 21/21/21 197/197/197 19/19/19
