# Ruins_Pot2Broken: from Quaternius, Ultimate Modular Ruins Pack (CC0 1.0)
mtllib Ruins_Pot2Broken.mtl
v 0.06661 0.35408 -0.14961
v 0.11406 0.40360 -0.11443
v 0.12508 0.40948 -0.12508
v 0.00537 0.36421 0.15371
v -0.03370 0.33535 0.18115
v 0.00544 0.37110 0.16746
v -0.03453 0.32132 0.16623
v -0.18817 0.22207 -0.08176
v -0.15125 0.17959 -0.15135
v -0.16105 0.18403 -0.16105
v -0.17573 0.21720 -0.07692
v 0.11421 0.40354 0.11437
v 0.15907 0.40787 0.07015
v 0.14505 0.40176 0.06466
v -0.00169 0.37593 -0.16803
v -0.05491 0.34215 -0.17404
v -0.05417 0.33231 -0.15541
v -0.00164 0.36965 -0.15392
v 0.15797 0.39946 0.00016
v 0.12508 0.40948 0.12508
v 0.17303 0.40567 0.00000
v 0.06661 0.35408 -0.14961
v -0.00169 0.37593 -0.16803
v -0.00164 0.36965 -0.15392
v 0.07186 0.36003 -0.16294
v -0.08037 0.23526 0.17826
v -0.15257 0.21825 0.14748
v -0.08402 0.24326 0.19053
v -0.20762 0.18404 0.00009
v -0.20092 0.19770 0.08861
v -0.18811 0.19385 0.08351
v 0.00544 0.37110 0.16746
v 0.07239 0.35704 0.16414
v 0.06721 0.35092 0.15084
v 0.00537 0.36421 0.15371
v 0.15022 0.42867 -0.06714
v 0.15797 0.39946 0.00016
v 0.17303 0.40567 0.00000
v 0.13616 0.42280 -0.06163
v -0.08402 0.24326 -0.19053
v -0.15125 0.17959 -0.15135
v -0.08063 0.23555 -0.17800
v -0.16105 0.18403 -0.16105
v 0.12508 0.40948 0.12508
v 0.06721 0.35092 0.15084
v 0.07239 0.35704 0.16414
v 0.11421 0.40354 0.11437
v 0.07186 0.36003 -0.16294
v 0.15022 0.42867 -0.06714
v 0.13616 0.42280 -0.06163
v -0.08402 0.24326 0.19053
v -0.08037 0.23526 0.17826
v -0.18817 0.22207 -0.08176
v -0.22144 0.18800 -0.00000
v -0.20762 0.18404 0.00009
v -0.17573 0.21720 -0.07692
v -0.22144 0.18800 -0.00000
v -0.14277 0.21386 0.13799
v -0.15125 0.17959 -0.15135
v -0.11774 0.01237 -0.05194
v -0.09333 0.01264 -0.09333
v -0.17573 0.21720 -0.07692
v -0.20762 0.18404 0.00009
v -0.12732 0.01188 -0.00000
v 0.05194 0.01237 -0.11774
v 0.11774 0.01237 -0.05194
v 0.09333 0.01264 -0.09333
v 0.00000 0.01188 -0.12732
v 0.12732 0.01188 0.00000
v 0.11774 0.01237 0.05194
v 0.05194 0.01237 0.11774
v 0.09333 0.01264 0.09333
v -0.00000 0.01188 0.12732
v -0.05194 0.01237 -0.11774
v -0.12732 0.01188 -0.00000
v -0.11774 0.01237 -0.05194
v -0.09333 0.01264 -0.09333
v -0.11774 0.01237 0.05194
v -0.05194 0.01237 0.11774
v -0.09333 0.01264 0.09333
v -0.00000 0.22427 0.17935
v -0.03453 0.32132 0.16623
v 0.00002 0.31602 0.17372
v -0.08037 0.23526 0.17826
v -0.00000 0.15275 0.16913
v -0.03218 0.20697 0.17908
v 0.16843 0.12859 0.00002
v 0.11774 0.01237 -0.05194
v 0.12732 0.01188 0.00000
v 0.11774 0.01237 0.05194
v 0.15035 0.13782 0.06769
v 0.06789 0.13558 0.15094
v -0.00000 0.01188 0.12732
v 0.06721 0.35092 0.15084
v 0.11241 0.35794 0.11252
v 0.06588 0.33839 0.15168
v 0.05194 0.01237 0.11774
v 0.07080 0.20632 0.15944
v -0.00164 0.36965 -0.15392
v -0.05417 0.33231 -0.15541
v -0.00009 0.31556 -0.17357
v 0.15797 0.39946 0.00016
v 0.14777 0.34856 -0.05512
v 0.16542 0.33848 0.00145
v 0.15064 0.34033 0.06545
v 0.14505 0.40176 0.06466
v -0.08063 0.23555 -0.17800
v -0.00000 0.16464 -0.16956
v -0.03433 0.21552 -0.17888
v -0.05194 0.01237 -0.11774
v -0.15125 0.17959 -0.15135
v -0.09333 0.01264 -0.09333
v -0.20762 0.18404 0.00009
v -0.11774 0.01237 0.05194
v -0.12732 0.01188 -0.00000
v -0.18811 0.19385 0.08351
v 0.15035 0.13787 -0.06768
v 0.09333 0.01264 -0.09333
v 0.06758 0.15426 -0.15135
v 0.05194 0.01237 -0.11774
v 0.11514 0.15781 -0.11501
v 0.06995 0.22663 -0.15904
v -0.00000 0.23733 -0.17925
v 0.06661 0.35408 -0.14961
v 0.06875 0.31700 -0.15822
v 0.00000 0.01188 -0.12732
v 0.17984 0.19864 0.00008
v 0.15847 0.20877 0.07045
v 0.11237 0.13939 0.11228
v 0.11715 0.21099 0.11712
v 0.11890 0.23069 -0.11895
v 0.11790 0.33222 -0.11829
v -0.05194 0.01237 0.11774
v -0.14277 0.21386 0.13799
v -0.09333 0.01264 0.09333
v 0.11406 0.40360 -0.11443
v 0.13616 0.42280 -0.06163
v 0.11406 0.40360 -0.11443
v 0.09333 0.01264 0.09333
v 0.00537 0.36421 0.15371
v 0.06721 0.35092 0.15084
v 0.11421 0.40354 0.11437
v 0.15835 0.20871 -0.06952
v 0.17984 0.19864 0.00008
v 0.06794 0.00057 0.15406
v 0.15406 0.00057 0.06794
v 0.12225 0.00097 0.12225
v 0.16669 0.00000 0.00000
v 0.15406 0.00057 -0.06794
v 0.00000 0.00000 -0.16669
v 0.06794 0.00057 -0.15406
v 0.12225 0.00097 -0.12225
v -0.15406 0.00057 0.06794
v -0.00000 0.00000 0.16669
v -0.06794 0.00057 0.15406
v -0.12225 0.00097 0.12225
v -0.16669 0.00000 -0.00000
v -0.06794 0.00057 -0.15406
v -0.15406 0.00057 -0.06794
v -0.12225 0.00097 -0.12225
v -0.05417 0.33231 -0.15541
v -0.08402 0.24326 -0.19053
v -0.08063 0.23555 -0.17800
v -0.05491 0.34215 -0.17404
v -0.19869 0.05945 0.08763
v -0.12225 0.00097 0.12225
v -0.15762 0.06277 0.15762
v -0.15406 0.00057 0.06794
v -0.21498 0.05216 -0.00000
v -0.16669 0.00000 -0.00000
v 0.19869 0.05945 0.08763
v 0.15406 0.00057 0.06794
v 0.21498 0.05216 0.00000
v 0.12225 0.00097 0.12225
v -0.08763 0.05945 0.19869
v -0.06794 0.00057 0.15406
v -0.00000 0.05216 0.21498
v -0.15406 0.00057 -0.06794
v 0.19869 0.05945 -0.08763
v 0.12225 0.00097 -0.12225
v 0.15762 0.06277 -0.15762
v 0.15406 0.00057 -0.06794
v 0.16669 0.00000 0.00000
v 0.15762 0.06277 0.15762
v 0.08763 0.05945 0.19869
v 0.06794 0.00057 0.15406
v -0.19869 0.05945 -0.08763
v -0.12225 0.00097 -0.12225
v -0.08763 0.05945 -0.19869
v -0.06794 0.00057 -0.15406
v -0.15762 0.06277 -0.15762
v 0.00000 0.05216 -0.21498
v 0.00000 0.00000 -0.16669
v 0.06794 0.00057 -0.15406
v 0.08763 0.05945 -0.19869
v -0.00000 0.00000 0.16669
v 0.00544 0.37110 0.16746
v 0.07394 0.34825 0.16765
v 0.07239 0.35704 0.16414
v -0.03370 0.33535 0.18115
v -0.00000 0.32455 0.19246
v 0.07239 0.35704 0.16414
v 0.12504 0.36827 0.12504
v 0.12508 0.40948 0.12508
v -0.05491 0.34215 -0.17404
v -0.00169 0.37593 -0.16803
v 0.00000 0.32455 -0.19246
v 0.09095 0.11675 0.20623
v 0.08763 0.05945 0.19869
v 0.15762 0.06277 0.15762
v -0.00000 0.16109 0.23082
v -0.00000 0.11163 0.22415
v -0.00000 0.05216 0.21498
v -0.09095 0.11675 -0.20623
v -0.08763 0.05945 -0.19869
v -0.15762 0.06277 -0.15762
v 0.00000 0.16109 -0.23082
v 0.00000 0.11163 -0.22415
v 0.00000 0.05216 -0.21498
v 0.09329 0.16606 0.21155
v -0.00000 0.21661 0.21498
v 0.16327 0.11909 0.16327
v 0.16668 0.16791 0.16668
v 0.16526 0.34879 -0.07288
v 0.17303 0.40567 0.00000
v 0.19309 0.32335 0.00000
v -0.20623 0.11675 0.09095
v -0.19869 0.05945 0.08763
v -0.15762 0.06277 0.15762
v -0.23087 0.16111 -0.00000
v -0.22415 0.11163 -0.00000
v -0.21498 0.05216 -0.00000
v -0.20623 0.11675 -0.09095
v -0.21143 0.16599 -0.09324
v -0.21143 0.16599 0.09324
v -0.22144 0.18800 -0.00000
v -0.20092 0.19770 0.08861
v -0.09329 0.16606 -0.21155
v -0.16327 0.11909 -0.16327
v -0.16668 0.16791 -0.16668
v -0.16105 0.18403 -0.16105
v 0.00000 0.21661 -0.21498
v 0.20623 0.11675 -0.09095
v 0.19869 0.05945 -0.08763
v 0.15762 0.06277 -0.15762
v 0.23087 0.16111 0.00000
v 0.22415 0.11163 0.00000
v 0.21498 0.05216 0.00000
v -0.16668 0.16791 0.16668
v -0.15257 0.21825 0.14748
v -0.16327 0.11909 0.16327
v 0.08763 0.05945 -0.19869
v 0.09095 0.11675 -0.20623
v 0.16327 0.11909 -0.16327
v 0.21143 0.16599 -0.09324
v 0.16668 0.16791 -0.16668
v 0.21542 0.21532 0.00000
v 0.18921 0.24693 -0.08344
v 0.08402 0.24326 -0.19053
v 0.14031 0.28019 -0.14031
v 0.09329 0.16606 -0.21155
v 0.19869 0.05945 0.08763
v 0.20623 0.11675 0.09095
v 0.18921 0.24693 0.08344
v 0.14031 0.28019 0.14031
v 0.21143 0.16599 0.09324
v 0.08402 0.24326 0.19053
v -0.08763 0.05945 0.19869
v -0.09095 0.11675 0.20623
v -0.09329 0.16606 0.21155
v -0.08402 0.24326 0.19053
v -0.19869 0.05945 -0.08763
v -0.18817 0.22207 -0.08176
v -0.08402 0.24326 -0.19053
v 0.12508 0.40948 -0.12508
v 0.15022 0.42867 -0.06714
v 0.12504 0.36827 -0.12504
v 0.07186 0.36003 -0.16294
v 0.07394 0.34825 -0.16765
v 0.07186 0.36003 -0.16294
v 0.15907 0.40787 0.07015
v 0.16659 0.35022 0.07347
v 0.16526 0.34879 -0.07288
v 0.19309 0.32335 0.00000
v 0.18921 0.24693 -0.08344
v 0.14031 0.28019 -0.14031
v 0.12504 0.36827 -0.12504
v -0.08402 0.24326 -0.19053
v 0.00000 0.32455 -0.19246
v 0.00000 0.21661 -0.21498
v 0.07394 0.34825 -0.16765
v 0.14031 0.28019 0.14031
v 0.16659 0.35022 0.07347
v 0.12504 0.36827 0.12504
v 0.18921 0.24693 0.08344
v -0.08402 0.24326 0.19053
v -0.00000 0.32455 0.19246
v -0.03370 0.33535 0.18115
v 0.08402 0.24326 -0.19053
v -0.05491 0.34215 -0.17404
v -0.00000 0.21661 0.21498
v 0.08402 0.24326 0.19053
v 0.07394 0.34825 0.16765
v 0.21542 0.21532 0.00000
vt 0.00000 0.00000
vt 0.00000 0.00000
vt 0.00000 0.00000
vt 0.00000 0.00000
vt 0.00000 0.00000
vt 0.00000 0.00000
vt 0.00000 0.00000
vt 0.00000 0.00000
vt 0.00000 0.00000
vt 0.00000 0.00000
vt 0.00000 0.00000
vt 0.00000 0.00000
vt 0.00000 0.00000
vt 0.00000 0.00000
vt 0.00000 0.00000
vt 0.00000 0.00000
vt 0.00000 0.00000
vt 0.00000 0.00000
vt 0.00000 0.00000
vt 0.00000 0.00000
vt 0.00000 0.00000
vt 0.00000 0.00000
vt 0.00000 0.00000
vt 0.00000 0.00000
vt 0.00000 0.00000
vt 0.00000 0.00000
vt 0.00000 0.00000
vt 0.00000 0.00000
vt 0.00000 0.00000
vt 0.00000 0.00000
vt 0.00000 0.00000
vt 0.00000 0.00000
vt 0.00000 0.00000
vt 0.00000 0.00000
vt 0.00000 0.00000
vt 0.00000 0.00000
vt 0.00000 0.00000
vt 0.00000 0.00000
vt 0.00000 0.00000
vt 0.00000 0.00000
vt 0.00000 0.00000
vt 0.00000 0.00000
vt 0.00000 0.00000
vt 0.00000 0.00000
vt 0.00000 0.00000
vt 0.00000 0.00000
vt 0.00000 0.00000
vt 0.00000 0.00000
vt 0.00000 0.00000
vt 0.00000 0.00000
vt 0.00000 0.00000
vt 0.00000 0.00000
vt 0.00000 0.00000
vt 0.00000 0.00000
vt 0.00000 0.00000
vt 0.00000 0.00000
vt 0.00000 0.00000
vt 0.00000 0.00000
vt 0.00000 0.00000
vt 0.00000 0.00000
vt 0.00000 0.00000
vt 0.00000 0.00000
vt 0.00000 0.00000
vt 0.00000 0.00000
vt 0.00000 0.00000
vt 0.00000 0.00000
vt 0.00000 0.00000
vt 0.00000 0.00000
vt 0.00000 0.00000
vt 0.00000 0.00000
vt 0.00000 0.00000
vt 0.00000 0.00000
vt 0.00000 0.00000
vt 0.00000 0.00000
vt 0.00000 0.00000
vt 0.00000 0.00000
vt 0.00000 0.00000
vt 0.00000 0.00000
vt 0.00000 0.00000
vt 0.00000 0.00000
vt 0.00000 0.00000
vt 0.00000 0.00000
vt 0.00000 0.00000
vt 0.00000 0.00000
vt 0.00000 0.00000
vt 0.00000 0.00000
vt 0.00000 0.00000
vt 0.00000 0.00000
vt 0.00000 0.00000
vt 0.00000 0.00000
vt 0.00000 0.00000
vt 0.00000 0.00000
vt 0.00000 0.00000
vt 0.00000 0.00000
vt 0.00000 0.00000
vt 0.00000 0.00000
vt 0.00000 0.00000
vt 0.00000 0.00000
vt 0.00000 0.00000
vt 0.00000 0.00000
vt 0.00000 0.00000
vt 0.00000 0.00000
vt 0.00000 0.00000
vt 0.00000 0.00000
vt 0.00000 0.00000
vt 0.00000 0.00000
vt 0.00000 0.00000
vt 0.00000 0.00000
vt 0.00000 0.00000
vt 0.00000 0.00000
vt 0.00000 0.00000
vt 0.00000 0.00000
vt 0.00000 0.00000
vt 0.00000 0.00000
vt 0.00000 0.00000
vt 0.00000 0.00000
vt 0.00000 0.00000
vt 0.00000 0.00000
vt 0.00000 0.00000
vt 0.00000 0.00000
vt 0.00000 0.00000
vt 0.00000 0.00000
vt 0.00000 0.00000
vt 0.00000 0.00000
vt 0.00000 0.00000
vt 0.00000 0.00000
vt 0.00000 0.00000
vt 0.00000 0.00000
vt 0.00000 0.00000
vt 0.00000 0.00000
vt 0.00000 0.00000
vt 0.00000 0.00000
vt 0.00000 0.00000
vt 0.00000 0.00000
vt 0.00000 0.00000
vt 0.00000 0.00000
vt 0.00000 0.00000
vt 0.00000 0.00000
vt 0.00000 0.00000
vt 0.00000 0.00000
vt 0.00000 0.00000
vt 0.00000 0.00000
vt 0.00000 0.00000
vt 0.00000 0.00000
vt 0.00000 0.00000
vt 0.00000 0.00000
vt 0.00000 0.00000
vt 0.00000 0.00000
vt 0.00000 0.00000
vt 0.00000 0.00000
vt 0.00000 0.00000
vt 0.00000 0.00000
vt 0.00000 0.00000
vt 0.00000 0.00000
vt 0.00000 0.00000
vt 0.00000 0.00000
vt 0.00000 0.00000
vt 0.00000 0.00000
vt 0.00000 0.00000
vt 0.00000 0.00000
vt 0.00000 0.00000
vt 0.00000 0.00000
vt 0.00000 0.00000
vt 0.00000 0.00000
vt 0.00000 0.00000
vt 0.00000 0.00000
vt 0.00000 0.00000
vt 0.00000 0.00000
vt 0.00000 0.00000
vt 0.00000 0.00000
vt 0.00000 0.00000
vt 0.00000 0.00000
vt 0.00000 0.00000
vt 0.00000 0.00000
vt 0.00000 0.00000
vt 0.00000 0.00000
vt 0.00000 0.00000
vt 0.00000 0.00000
vt 0.00000 0.00000
vt 0.00000 0.00000
vt 0.00000 0.00000
vt 0.00000 0.00000
vt 0.00000 0.00000
vt 0.00000 0.00000
vt 0.00000 0.00000
vt 0.00000 0.00000
vt 0.00000 0.00000
vt 0.00000 0.00000
vt 0.00000 0.00000
vt 0.00000 0.00000
vt 0.00000 0.00000
vt 0.00000 0.00000
vt 0.00000 0.00000
vt 0.00000 0.00000
vt 0.00000 0.00000
vt 0.00000 0.00000
vt 0.00000 0.00000
vt 0.00000 0.00000
vt 0.00000 0.00000
vt 0.00000 0.00000
vt 0.00000 0.00000
vt 0.00000 0.00000
vt 0.00000 0.00000
vt 0.00000 0.00000
vt 0.00000 0.00000
vt 0.00000 0.00000
vt 0.00000 0.00000
vt 0.00000 0.00000
vt 0.00000 0.00000
vt 0.00000 0.00000
vt 0.00000 0.00000
vt 0.00000 0.00000
vt 0.00000 0.00000
vt 0.00000 0.00000
vt 0.00000 0.00000
vt 0.00000 0.00000
vt 0.00000 0.00000
vt 0.00000 0.00000
vt 0.00000 0.00000
vt 0.00000 0.00000
vt 0.00000 0.00000
vt 0.00000 0.00000
vt 0.00000 0.00000
vt 0.00000 0.00000
vt 0.00000 0.00000
vt 0.00000 0.00000
vt 0.00000 0.00000
vt 0.00000 0.00000
vt 0.00000 0.00000
vt 0.00000 0.00000
vt 0.00000 0.00000
vt 0.00000 0.00000
vt 0.00000 0.00000
vt 0.00000 0.00000
vt 0.00000 0.00000
vt 0.00000 0.00000
vt 0.00000 0.00000
vt 0.00000 0.00000
vt 0.00000 0.00000
vt 0.00000 0.00000
vt 0.00000 0.00000
vt 0.00000 0.00000
vt 0.00000 0.00000
vt 0.00000 0.00000
vt 0.00000 0.00000
vt 0.00000 0.00000
vt 0.00000 0.00000
vt 0.00000 0.00000
vt 0.00000 0.00000
vt 0.00000 0.00000
vt 0.00000 0.00000
vt 0.00000 0.00000
vt 0.00000 0.00000
vt 0.00000 0.00000
vt 0.00000 0.00000
vt 0.00000 0.00000
vt 0.00000 0.00000
vt 0.00000 0.00000
vt 0.00000 0.00000
vt 0.00000 0.00000
vt 0.00000 0.00000
vt 0.00000 0.00000
vt 0.00000 0.00000
vt 0.00000 0.00000
vt 0.00000 0.00000
vt 0.00000 0.00000
vt 0.00000 0.00000
vt 0.00000 0.00000
vt 0.00000 0.00000
vt 0.00000 0.00000
vt 0.00000 0.00000
vt 0.00000 0.00000
vt 0.00000 0.00000
vt 0.00000 0.00000
vt 0.00000 0.00000
vt 0.00000 0.00000
vt 0.00000 0.00000
vt 0.00000 0.00000
vt 0.00000 0.00000
vt 0.00000 0.00000
vt 0.00000 0.00000
vt 0.00000 0.00000
vt 0.00000 0.00000
vt 0.00000 0.00000
vt 0.00000 0.00000
vt 0.00000 0.00000
vt 0.00000 0.00000
vt 0.00000 0.00000
vt 0.00000 0.00000
vt 0.00000 0.00000
vt 0.00000 0.00000
vt 0.00000 0.00000
vt 0.00000 0.00000
vt 0.00000 0.00000
vt 0.00000 0.00000
vt 0.00000 0.00000
vt 0.00000 0.00000
vt 0.00000 0.00000
vt 0.00000 0.00000
vt 0.00000 0.00000
vt 0.00000 0.00000
vt 0.00000 0.00000
vt 0.00000 0.00000
vt 0.00000 0.00000
vn -0.66591 0.74103 -0.08628
vn -0.57792 0.81068 -0.09389
vn -0.56853 0.81721 -0.09460
vn -0.70957 0.57980 -0.40043
vn -0.75295 0.51904 -0.40455
vn -0.70957 0.57980 -0.40043
vn -0.78686 0.46453 -0.40628
vn 0.50370 0.83004 -0.23943
vn 0.50370 0.83004 -0.23943
vn 0.50370 0.83004 -0.23943
vn 0.50370 0.83004 -0.23943
vn -0.30585 0.92645 -0.21943
vn -0.33914 0.92652 -0.16291
vn -0.33954 0.92650 -0.16221
vn -0.53385 0.75340 0.38392
vn -0.53385 0.75340 0.38392
vn -0.53385 0.75340 0.38392
vn -0.53385 0.75340 0.38392
vn -0.37137 0.92253 -0.10495
vn -0.30585 0.92645 -0.21943
vn -0.37137 0.92253 -0.10495
vn 0.16868 0.88804 0.42772
vn 0.16868 0.88804 0.42772
vn 0.16868 0.88804 0.42772
vn 0.16868 0.88804 0.42772
vn 0.00495 0.87029 -0.49252
vn 0.04211 0.89478 -0.44452
vn 0.00495 0.87029 -0.49252
vn 0.24851 0.95428 -0.16608
vn 0.16710 0.94502 -0.28108
vn 0.16486 0.94451 -0.28411
vn 0.16424 0.87611 -0.45328
vn 0.16424 0.87611 -0.45328
vn 0.16424 0.87611 -0.45328
vn 0.16424 0.87611 -0.45328
vn -0.28023 0.86839 0.40911
vn -0.28023 0.86839 0.40911
vn -0.28023 0.86839 0.40911
vn -0.28023 0.86839 0.40911
vn -0.33913 0.72610 0.59814
vn -0.33913 0.72610 0.59814
vn -0.33913 0.72610 0.59814
vn -0.33913 0.72610 0.59814
vn -0.68643 0.72078 0.09643
vn -0.68643 0.72078 0.09643
vn -0.68643 0.72078 0.09643
vn -0.68643 0.72078 0.09643
vn -0.66591 0.74103 -0.08628
vn -0.47450 0.87447 -0.10080
vn -0.47450 0.87447 -0.10080
vn -0.82367 0.39576 -0.40614
vn -0.82367 0.39576 -0.40614
vn 0.20652 0.86769 0.45217
vn 0.20652 0.86769 0.45217
vn 0.20652 0.86769 0.45217
vn 0.20652 0.86769 0.45217
vn 0.24851 0.95428 -0.16608
vn 0.04280 0.89520 -0.44361
vn 0.90040 0.34101 0.27016
vn 0.88369 0.34176 0.31985
vn 0.90040 0.34101 0.27016
vn 0.88366 0.34176 0.31993
vn 0.86507 0.34157 0.36739
vn 0.86507 0.34157 0.36739
vn 0.00000 1.00000 -0.00000
vn 0.00000 1.00000 -0.00000
vn 0.00000 1.00000 -0.00000
vn 0.00000 1.00000 -0.00000
vn 0.00000 1.00000 -0.00000
vn 0.00000 1.00000 -0.00000
vn 0.00000 1.00000 -0.00000
vn 0.00000 1.00000 -0.00000
vn 0.00000 1.00000 -0.00000
vn 0.00000 1.00000 -0.00000
vn 0.00000 1.00000 -0.00000
vn 0.00000 1.00000 -0.00000
vn 0.00000 1.00000 -0.00000
vn 0.00000 1.00000 -0.00000
vn 0.00000 1.00000 -0.00000
vn 0.00000 1.00000 -0.00000
vn -0.12859 0.00092 -0.99170
vn 0.08333 -0.20714 -0.97476
vn -0.07286 -0.19799 -0.97749
vn 0.22719 0.12887 -0.96529
vn -0.03689 0.22849 -0.97285
vn 0.07688 0.11990 -0.98980
vn -0.97354 0.22850 0.00055
vn -0.86946 0.27231 0.41217
vn -0.95212 0.30572 0.00004
vn -0.87040 0.27343 -0.40944
vn -0.87104 0.19362 -0.45144
vn -0.42733 0.20074 -0.88153
vn -0.00065 0.28369 -0.95892
vn -0.65017 0.04818 -0.75826
vn -0.72817 -0.01540 -0.68523
vn -0.43933 -0.12258 -0.88992
vn -0.38602 0.26790 -0.88273
vn -0.47107 0.03966 -0.88120
vn -0.00610 -0.31673 0.94849
vn 0.14857 -0.22548 0.96285
vn -0.03406 -0.19768 0.97967
vn -0.99101 -0.11652 0.06570
vn -0.92322 -0.09738 0.37174
vn -0.99419 -0.10482 0.02432
vn -0.90014 -0.07108 -0.42976
vn -0.91116 -0.06512 -0.40688
vn 0.16281 0.09486 0.98209
vn -0.05912 0.21556 0.97470
vn 0.08361 0.09062 0.99237
vn 0.20079 0.30084 0.93230
vn 0.25005 0.33133 0.90978
vn 0.25005 0.33133 0.90978
vn 0.88980 0.39893 -0.22159
vn 0.82585 0.38105 -0.41566
vn 0.88980 0.39893 -0.22159
vn 0.81496 0.37755 -0.43966
vn -0.87428 0.19545 0.44434
vn -0.67666 0.23466 0.69790
vn -0.41634 0.17914 0.89139
vn -0.38180 0.24524 0.89112
vn -0.69027 0.15197 0.70742
vn -0.44869 0.04440 0.89259
vn -0.10075 -0.01650 0.99477
vn -0.39375 -0.20617 0.89580
vn -0.41303 -0.11877 0.90294
vn -0.02357 0.26647 0.96356
vn -0.96093 0.03705 -0.27429
vn -0.88227 0.02168 -0.47024
vn -0.70189 0.17160 -0.69130
vn -0.71233 0.02102 -0.70153
vn -0.73321 0.01299 0.67988
vn -0.74763 -0.08036 0.65923
vn 0.32147 0.28916 -0.90169
vn 0.58195 0.32002 -0.74761
vn 0.60081 0.32393 -0.73082
vn -0.89880 -0.08758 0.42951
vn -0.92494 -0.10123 0.36638
vn -0.55535 -0.12517 0.82214
vn -0.68958 0.24387 -0.68192
vn -0.07330 -0.33442 -0.93957
vn -0.16146 -0.30472 -0.93866
vn -0.76277 0.00221 -0.64667
vn -0.89466 0.01634 0.44645
vn -0.95717 0.02607 0.28835
vn -0.00000 -1.00000 0.00000
vn -0.00000 -1.00000 0.00000
vn -0.00000 -1.00000 0.00000
vn -0.00000 -1.00000 0.00000
vn -0.00000 -1.00000 0.00000
vn -0.00000 -1.00000 0.00000
vn -0.00000 -1.00000 0.00000
vn -0.00000 -1.00000 0.00000
vn -0.00000 -1.00000 0.00000
vn -0.00000 -1.00000 0.00000
vn -0.00000 -1.00000 0.00000
vn -0.00000 -1.00000 0.00000
vn -0.00000 -1.00000 0.00000
vn -0.00000 -1.00000 0.00000
vn -0.00000 -1.00000 0.00000
vn -0.00000 -1.00000 0.00000
vn -0.94374 0.21848 0.24823
vn -0.94374 0.21848 0.24823
vn -0.94374 0.21848 0.24823
vn -0.94374 0.21848 0.24823
vn -0.70564 -0.64260 0.29855
vn -0.54509 -0.63699 0.54509
vn -0.54509 -0.63699 0.54509
vn -0.70888 -0.64361 0.28854
vn -0.75157 -0.65965 0.00000
vn -0.75157 -0.65965 0.00000
vn 0.70564 -0.64260 0.29855
vn 0.70888 -0.64361 0.28854
vn 0.75157 -0.65965 0.00000
vn 0.54509 -0.63699 0.54509
vn -0.29855 -0.64260 0.70564
vn -0.28854 -0.64361 0.70888
vn -0.00000 -0.65965 0.75157
vn -0.70888 -0.64361 -0.28854
vn 0.70564 -0.64260 -0.29855
vn 0.54509 -0.63699 -0.54509
vn 0.54509 -0.63699 -0.54509
vn 0.70888 -0.64361 -0.28854
vn 0.75157 -0.65965 0.00000
vn 0.54509 -0.63699 0.54509
vn 0.29855 -0.64260 0.70564
vn 0.28854 -0.64361 0.70888
vn -0.70564 -0.64260 -0.29855
vn -0.54509 -0.63699 -0.54509
vn -0.29855 -0.64260 -0.70564
vn -0.28854 -0.64361 -0.70888
vn -0.54509 -0.63699 -0.54509
vn 0.00000 -0.65965 -0.75157
vn 0.00000 -0.65965 -0.75157
vn 0.28854 -0.64361 -0.70888
vn 0.29855 -0.64260 -0.70564
vn -0.00000 -0.65965 0.75157
vn 0.05699 0.46046 0.88585
vn 0.38790 0.26729 0.88209
vn 0.14600 0.44497 0.88357
vn -0.18998 0.32235 0.92736
vn -0.00128 0.31502 0.94908
vn 0.58440 0.07372 0.80811
vn 0.70542 0.14384 0.69404
vn 0.74337 0.07922 0.66417
vn -0.20374 0.29374 -0.93392
vn 0.01891 0.42588 -0.90458
vn 0.00097 0.29876 -0.95433
vn 0.36073 -0.12951 0.92364
vn 0.34999 -0.14372 0.92566
vn 0.69984 -0.14302 0.69984
vn -0.00000 0.07045 0.99752
vn -0.00000 -0.13646 0.99065
vn -0.00000 -0.14727 0.98910
vn -0.36073 -0.12951 -0.92364
vn -0.34999 -0.14372 -0.92566
vn -0.69984 -0.14302 -0.69984
vn 0.00000 0.07045 -0.99752
vn 0.00000 -0.13646 -0.99065
vn 0.00000 -0.14727 -0.98910
vn 0.36559 0.08928 0.92648
vn 0.00101 0.25534 0.96685
vn 0.70170 -0.12502 0.70142
vn 0.70411 0.10057 0.70294
vn 0.89357 0.20880 -0.39741
vn 0.97675 0.21046 -0.04071
vn 0.97585 0.21824 -0.00932
vn -0.92368 -0.12903 0.36080
vn -0.92566 -0.14372 0.34999
vn -0.69984 -0.14302 0.69984
vn -0.99375 0.11159 -0.00252
vn -0.99069 -0.13615 -0.00000
vn -0.98910 -0.14727 -0.00000
vn -0.92368 -0.12903 -0.36080
vn -0.91983 0.14967 -0.36264
vn -0.92343 0.12477 0.36292
vn -0.93105 0.36437 -0.01972
vn -0.86181 0.36181 0.35549
vn -0.36829 0.09265 -0.92508
vn -0.70170 -0.12502 -0.70142
vn -0.70415 0.13488 -0.69712
vn -0.65737 0.37326 -0.65463
vn 0.00041 0.25600 -0.96668
vn 0.92368 -0.12903 -0.36080
vn 0.92566 -0.14372 -0.34999
vn 0.69984 -0.14302 -0.69984
vn 0.99743 0.07166 0.00000
vn 0.99069 -0.13615 0.00000
vn 0.98910 -0.14727 0.00000
vn -0.70580 0.13105 0.69618
vn -0.65561 0.36402 0.66156
vn -0.70170 -0.12502 0.70142
vn 0.34999 -0.14372 -0.92566
vn 0.36073 -0.12951 -0.92364
vn 0.70170 -0.12502 -0.70142
vn 0.92637 0.09010 -0.36568
vn 0.70411 0.10057 -0.70294
vn 0.96559 0.26007 -0.00131
vn 0.88883 0.26421 -0.37440
vn 0.37306 0.26140 -0.89022
vn 0.68790 0.26372 -0.67620
vn 0.36559 0.08928 -0.92648
vn 0.92566 -0.14372 0.34999
vn 0.92368 -0.12903 0.36080
vn 0.88956 0.26058 0.37521
vn 0.68512 0.26079 0.68015
vn 0.92637 0.09010 0.36568
vn 0.37306 0.26140 0.89022
vn -0.34999 -0.14372 0.92566
vn -0.36073 -0.12951 0.92364
vn -0.37495 0.10103 0.92152
vn -0.31736 0.27826 0.90656
vn -0.92566 -0.14372 -0.34999
vn -0.85511 0.40583 -0.32263
vn -0.28589 0.26017 -0.92227
vn 0.77415 0.12000 -0.62153
vn 0.90427 0.17232 -0.39064
vn 0.71527 0.16644 -0.67874
vn 0.56819 0.09381 -0.81753
vn 0.38715 0.26329 -0.88363
vn 0.15873 0.42140 -0.89287
vn 0.90240 0.13882 0.40792
vn 0.89483 0.18934 0.40427
vn 0.89357 0.20880 -0.39741
vn 0.97585 0.21824 -0.00932
vn 0.88883 0.26421 -0.37440
vn 0.68790 0.26372 -0.67620
vn 0.71527 0.16644 -0.67874
vn -0.28589 0.26017 -0.92227
vn 0.00097 0.29876 -0.95433
vn 0.00041 0.25600 -0.96668
vn 0.38715 0.26329 -0.88363
vn 0.68512 0.26079 0.68015
vn 0.89483 0.18934 0.40427
vn 0.70542 0.14384 0.69404
vn 0.88956 0.26058 0.37521
vn -0.31736 0.27826 0.90656
vn -0.00128 0.31502 0.94908
vn -0.18998 0.32235 0.92736
vn 0.37306 0.26140 -0.89022
vn -0.20374 0.29374 -0.93392
vn 0.00101 0.25534 0.96685
vn 0.37306 0.26140 0.89022
vn 0.38790 0.26729 0.88209
vn 0.96559 0.26007 -0.00131
g Pot_Main
usemtl Pot_Main
f 1/1/1 2/2/2 3/3/3
f 4/4/4 5/5/5 6/6/6
f 4/4/4 7/7/7 5/5/5
f 8/8/8 9/9/9 10/10/10
f 9/9/9 8/8/8 11/11/11
f 12/12/12 13/13/13 14/14/14
f 15/15/15 16/16/16 17/17/17
f 15/15/15 17/17/17 18/18/18
f 13/13/13 19/19/19 14/14/14
f 13/13/13 12/12/12 20/20/20
f 19/19/19 13/13/13 21/21/21
f 22/22/22 23/23/23 24/24/24
f 23/23/23 22/22/22 25/25/25
f 26/26/26 27/27/27 28/28/28
f 29/29/29 30/30/30 31/31/31
f 32/32/32 33/33/33 34/34/34
f 34/34/34 35/35/35 32/32/32
f 36/36/36 37/37/37 38/38/38
f 37/37/37 36/36/36 39/39/39
f 40/40/40 41/41/41 42/42/42
f 41/41/41 40/40/40 43/43/43
f 44/44/44 45/45/45 46/46/46
f 45/45/45 44/44/44 47/47/47
f 3/3/3 48/48/48 1/1/1
f 49/49/49 3/3/3 2/2/2
f 2/2/2 50/50/50 49/49/49
f 51/51/51 5/5/5 7/7/7
f 7/7/7 52/52/52 51/51/51
f 53/53/53 54/54/54 55/55/55
f 55/55/55 56/56/56 53/53/53
f 30/30/30 29/29/29 57/57/57
f 31/31/31 27/27/27 58/58/58
f 27/27/27 31/31/31 30/30/30
f 27/27/27 26/26/26 58/58/58
f 59/59/59 60/60/60 61/61/61
f 62/62/62 60/60/60 59/59/59
f 60/60/60 63/63/63 64/64/64
f 63/63/63 60/60/60 62/62/62
f 65/65/65 66/66/66 67/67/67
f 66/66/66 68/68/68 69/69/69
f 70/70/70 71/71/71 72/72/72
f 71/71/71 69/69/69 73/73/73
f 74/74/74 75/75/75 68/68/68
f 76/76/76 74/74/74 77/77/77
f 69/69/69 71/71/71 70/70/70
f 75/75/75 73/73/73 69/69/69
f 75/75/75 74/74/74 76/76/76
f 68/68/68 75/75/75 69/69/69
f 68/68/68 66/66/66 65/65/65
f 73/73/73 78/78/78 79/79/79
f 78/78/78 73/73/73 75/75/75
f 79/79/79 78/78/78 80/80/80
f 81/81/81 82/82/82 83/83/83
f 81/81/81 84/84/84 82/82/82
f 81/81/81 85/85/85 86/86/86
f 87/87/87 88/88/88 89/89/89
f 87/87/87 90/90/90 91/91/91
f 92/92/92 93/93/93 85/85/85
f 94/94/94 95/95/95 96/96/96
f 93/93/93 92/92/92 97/97/97
f 85/85/85 84/84/84 86/86/86
f 85/85/85 98/98/98 92/92/92
f 99/99/99 100/100/100 101/101/101
f 102/102/102 103/103/103 104/104/104
f 102/102/102 105/105/105 106/106/106
f 107/107/107 101/101/101 100/100/100
f 107/107/107 108/108/108 109/109/109
f 110/110/110 111/111/111 112/112/112
f 111/111/111 110/110/110 107/107/107
f 113/113/113 114/114/114 115/115/115
f 116/116/116 114/114/114 113/113/113
f 117/117/117 88/88/88 87/87/87
f 118/118/118 88/88/88 117/117/117
f 118/118/118 119/119/119 120/120/120
f 121/121/121 118/118/118 117/117/117
f 121/121/121 122/122/122 119/119/119
f 101/101/101 107/107/107 123/123/123
f 101/101/101 124/124/124 99/99/99
f 123/123/123 107/107/107 109/109/109
f 123/123/123 125/125/125 101/101/101
f 119/119/119 118/118/118 121/121/121
f 119/119/119 126/126/126 120/120/120
f 108/108/108 123/123/123 109/109/109
f 108/108/108 126/126/126 119/119/119
f 108/108/108 110/110/110 126/126/126
f 108/108/108 107/107/107 110/110/110
f 127/127/127 91/91/91 128/128/128
f 128/128/128 104/104/104 127/127/127
f 128/128/128 129/129/129 130/130/130
f 122/122/122 121/121/121 131/131/131
f 122/122/122 123/123/123 108/108/108
f 122/122/122 108/108/108 119/119/119
f 131/131/131 132/132/132 125/125/125
f 131/131/131 103/103/103 132/132/132
f 133/133/133 85/85/85 93/93/93
f 134/134/134 135/135/135 116/116/116
f 135/135/135 114/114/114 116/116/116
f 135/135/135 84/84/84 133/133/133
f 84/84/84 85/85/85 133/133/133
f 84/84/84 81/81/81 86/86/86
f 84/84/84 135/135/135 134/134/134
f 136/136/136 103/103/103 137/137/137
f 125/125/125 123/123/123 122/122/122
f 125/125/125 122/122/122 131/131/131
f 124/124/124 101/101/101 125/125/125
f 124/124/124 132/132/132 138/138/138
f 132/132/132 124/124/124 125/125/125
f 90/90/90 87/87/87 89/89/89
f 129/129/129 139/139/139 92/92/92
f 129/129/129 128/128/128 91/91/91
f 139/139/139 97/97/97 92/92/92
f 139/139/139 91/91/91 90/90/90
f 91/91/91 139/139/139 129/129/129
f 91/91/91 127/127/127 87/87/87
f 83/83/83 98/98/98 81/81/81
f 140/140/140 96/96/96 83/83/83
f 140/140/140 141/141/141 96/96/96
f 140/140/140 83/83/83 82/82/82
f 105/105/105 102/102/102 104/104/104
f 105/105/105 128/128/128 130/130/130
f 106/106/106 95/95/95 142/142/142
f 103/103/103 136/136/136 132/132/132
f 103/103/103 102/102/102 137/137/137
f 103/103/103 131/131/131 143/143/143
f 144/144/144 143/143/143 117/117/117
f 144/144/144 117/117/117 87/87/87
f 143/143/143 121/121/121 117/117/117
f 143/143/143 104/104/104 103/103/103
f 143/143/143 131/131/131 121/121/121
f 104/104/104 143/143/143 144/144/144
f 104/104/104 128/128/128 105/105/105
f 95/95/95 106/106/106 105/105/105
f 95/95/95 94/94/94 142/142/142
f 98/98/98 85/85/85 81/81/81
f 98/98/98 130/130/130 129/129/129
f 98/98/98 83/83/83 96/96/96
f 98/98/98 129/129/129 92/92/92
f 130/130/130 96/96/96 95/95/95
f 130/130/130 95/95/95 105/105/105
f 96/96/96 130/130/130 98/98/98
f 145/145/145 146/146/146 147/147/147
f 145/145/145 148/148/148 146/146/146
f 149/149/149 150/150/150 151/151/151
f 149/149/149 151/151/151 152/152/152
f 153/153/153 154/154/154 155/155/155
f 153/153/153 155/155/155 156/156/156
f 148/148/148 150/150/150 149/149/149
f 154/154/154 148/148/148 145/145/145
f 154/154/154 157/157/157 148/148/148
f 157/157/157 154/154/154 153/153/153
f 157/157/157 150/150/150 148/148/148
f 150/150/150 157/157/157 158/158/158
f 158/158/158 157/157/157 159/159/159
f 158/158/158 159/159/159 160/160/160
f 161/161/161 162/162/162 163/163/163
f 164/164/164 162/162/162 161/161/161
f 165/165/165 166/166/166 167/167/167
f 168/168/168 169/169/169 170/170/170
f 171/171/171 172/172/172 173/173/173
f 171/171/171 174/174/174 172/172/172
f 175/175/175 166/166/166 176/176/176
f 175/175/175 176/176/176 177/177/177
f 166/166/166 165/165/165 168/168/168
f 167/167/167 166/166/166 175/175/175
f 169/169/169 178/178/178 170/170/170
f 169/169/169 168/168/168 165/165/165
f 179/179/179 180/180/180 181/181/181
f 182/182/182 173/173/173 183/183/183
f 173/173/173 172/172/172 183/183/183
f 173/173/173 182/182/182 179/179/179
f 184/184/184 174/174/174 171/171/171
f 174/174/174 185/185/185 186/186/186
f 187/187/187 178/178/178 169/169/169
f 187/187/187 188/188/188 178/178/178
f 188/188/188 189/189/189 190/190/190
f 191/191/191 188/188/188 187/187/187
f 189/189/189 188/188/188 191/191/191
f 190/190/190 192/192/192 193/193/193
f 192/192/192 190/190/190 189/189/189
f 192/192/192 194/194/194 193/193/193
f 195/195/195 194/194/194 192/192/192
f 195/195/195 180/180/180 194/194/194
f 180/180/180 179/179/179 182/182/182
f 181/181/181 180/180/180 195/195/195
f 185/185/185 174/174/174 184/184/184
f 186/186/186 177/177/177 196/196/196
f 177/177/177 186/186/186 185/185/185
f 177/177/177 176/176/176 196/196/196
f 197/197/197 198/198/198 199/199/199
f 197/197/197 200/200/200 201/201/201
f 202/202/202 203/203/203 204/204/204
f 205/205/205 206/206/206 207/207/207
f 208/208/208 209/209/209 210/210/210
f 208/208/208 211/211/211 212/212/212
f 209/209/209 212/212/212 213/213/213
f 214/214/214 215/215/215 216/216/216
f 214/214/214 217/217/217 218/218/218
f 215/215/215 218/218/218 219/219/219
f 220/220/220 221/221/221 211/211/211
f 220/220/220 222/222/222 223/223/223
f 224/224/224 225/225/225 226/226/226
f 227/227/227 228/228/228 229/229/229
f 227/227/227 230/230/230 231/231/231
f 228/228/228 231/231/231 232/232/232
f 230/230/230 233/233/233 231/231/231
f 230/230/230 234/234/234 233/233/233
f 230/230/230 227/227/227 235/235/235
f 236/236/236 234/234/234 230/230/230
f 236/236/236 235/235/235 237/237/237
f 238/238/238 239/239/239 240/240/240
f 238/238/238 240/240/240 241/241/241
f 238/238/238 242/242/242 217/217/217
f 243/243/243 244/244/244 245/245/245
f 243/243/243 246/246/246 247/247/247
f 244/244/244 247/247/247 248/248/248
f 235/235/235 236/236/236 230/230/230
f 235/235/235 249/249/249 250/250/250
f 235/235/235 251/251/251 249/249/249
f 218/218/218 215/215/215 214/214/214
f 218/218/218 252/252/252 219/219/219
f 252/252/252 218/218/218 253/253/253
f 253/253/253 245/245/245 252/252/252
f 254/254/254 255/255/255 243/243/243
f 254/254/254 245/245/245 253/253/253
f 254/254/254 243/243/243 245/245/245
f 255/255/255 254/254/254 256/256/256
f 255/255/255 257/257/257 246/246/246
f 256/256/256 258/258/258 255/255/255
f 256/256/256 259/259/259 260/260/260
f 256/256/256 254/254/254 261/261/261
f 258/258/258 256/256/256 260/260/260
f 247/247/247 262/262/262 248/248/248
f 247/247/247 244/244/244 243/243/243
f 262/262/262 247/247/247 263/263/263
f 263/263/263 210/210/210 262/262/262
f 222/222/222 220/220/220 208/208/208
f 222/222/222 210/210/210 263/263/263
f 222/222/222 208/208/208 210/210/210
f 223/223/223 264/264/264 265/265/265
f 223/223/223 222/222/222 266/266/266
f 223/223/223 267/267/267 220/220/220
f 217/217/217 253/253/253 218/218/218
f 217/217/217 261/261/261 253/253/253
f 217/217/217 214/214/214 238/238/238
f 261/261/261 254/254/254 253/253/253
f 212/212/212 268/268/268 213/213/213
f 212/212/212 209/209/209 208/208/208
f 268/268/268 212/212/212 269/269/269
f 269/269/269 229/229/229 268/268/268
f 251/251/251 229/229/229 269/269/269
f 251/251/251 227/227/227 229/229/229
f 251/251/251 235/235/235 227/227/227
f 249/249/249 251/251/251 270/270/270
f 250/250/250 237/237/237 235/235/235
f 250/250/250 270/270/270 271/271/271
f 246/246/246 243/243/243 255/255/255
f 246/246/246 266/266/266 263/263/263
f 246/246/246 263/263/263 247/247/247
f 266/266/266 222/222/222 263/263/263
f 264/264/264 223/223/223 266/266/266
f 257/257/257 255/255/255 258/258/258
f 257/257/257 266/266/266 246/246/246
f 257/257/257 264/264/264 266/266/266
f 231/231/231 228/228/228 227/227/227
f 231/231/231 272/272/272 232/232/232
f 272/272/272 231/231/231 233/233/233
f 233/233/233 216/216/216 272/272/272
f 239/239/239 214/214/214 216/216/216
f 239/239/239 216/216/216 233/233/233
f 239/239/239 238/238/238 214/214/214
f 240/240/240 239/239/239 234/234/234
f 234/234/234 241/241/241 240/240/240
f 234/234/234 236/236/236 273/273/273
f 234/234/234 239/239/239 233/233/233
f 241/241/241 234/234/234 273/273/273
f 241/241/241 274/274/274 238/238/238
f 211/211/211 208/208/208 220/220/220
f 211/211/211 270/270/270 269/269/269
f 211/211/211 269/269/269 212/212/212
f 270/270/270 250/250/250 249/249/249
f 270/270/270 251/251/251 269/269/269
f 275/275/275 276/276/276 224/224/224
f 275/275/275 224/224/224 277/277/277
f 277/277/277 278/278/278 275/275/275
f 278/278/278 277/277/277 279/279/279
f 280/280/280 207/207/207 206/206/206
f 242/242/242 259/259/259 261/261/261
f 242/242/242 261/261/261 217/217/217
f 242/242/242 238/238/238 274/274/274
f 259/259/259 256/256/256 261/261/261
f 207/207/207 280/280/280 279/279/279
f 221/221/221 271/271/271 270/270/270
f 221/221/221 270/270/270 211/211/211
f 221/221/221 220/220/220 267/267/267
f 267/267/267 223/223/223 265/265/265
f 198/198/198 197/197/197 201/201/201
f 203/203/203 202/202/202 198/198/198
f 203/203/203 281/281/281 204/204/204
f 281/281/281 203/203/203 282/282/282
f 225/225/225 224/224/224 276/276/276
f 225/225/225 282/282/282 226/226/226
f 225/225/225 281/281/281 282/282/282
g Pot_Detail
usemtl Pot_Detail
f 283/283/283 284/284/284 285/285/285
f 283/283/283 286/286/286 287/287/287
f 283/283/283 285/285/285 286/286/286
f 288/288/288 289/289/289 290/290/290
f 286/286/286 291/291/291 287/287/287
f 292/292/292 293/293/293 294/294/294
f 295/295/295 284/284/284 293/293/293
f 296/296/296 297/297/297 298/298/298
f 291/291/291 286/286/286 299/299/299
f 299/299/299 289/289/289 291/291/291
f 289/289/289 299/299/299 290/290/290
f 289/289/289 288/288/288 300/300/300
f 297/297/297 296/296/296 301/301/301
f 297/297/297 301/301/301 302/302/302
f 303/303/303 297/297/297 302/302/302
f 303/303/303 292/292/292 294/294/294
f 303/303/303 302/302/302 292/292/292
f 284/284/284 295/295/295 304/304/304
f 284/284/284 304/304/304 285/285/285
f 293/293/293 292/292/292 295/295/295
